<svg version="1.1" viewBox="0.0 0.0 1728.0 1152.0" fill="none" stroke="none" stroke-linecap="square" stroke-miterlimit="10" xmlns:xlink="http://www.w3.org/1999/xlink" xmlns="http://www.w3.org/2000/svg"><clipPath id="p.0"><path d="m0 0l1728.0 0l0 1152.0l-1728.0 0l0 -1152.0z" clip-rule="nonzero"/></clipPath><g clip-path="url(#p.0)"><path fill="#000000" fill-opacity="0.0" d="m0 0l1728.0 0l0 1152.0l-1728.0 0z" fill-rule="evenodd"/><path fill="#ffffff" d="m0 0l1728.0 0l0 1152.0l-1728.0 0z" fill-rule="evenodd"/><path fill="#000000" fill-opacity="0.0" d="m91.270805 571.5062l0 0c0 -93.201294 128.90674 -168.75589 287.92126 -168.75589l0 0c159.01453 0 287.92126 75.554596 287.92126 168.75589l0 0c0 93.201355 -128.90674 168.75592 -287.92126 168.75592l0 0c-159.01453 0 -287.92126 -75.554565 -287.92126 -168.75592z" fill-rule="evenodd"/><path stroke="#000000" stroke-width="4.0" stroke-linejoin="round" stroke-linecap="butt" d="m91.270805 571.5062l0 0c0 -93.201294 128.90674 -168.75589 287.92126 -168.75589l0 0c159.01453 0 287.92126 75.554596 287.92126 168.75589l0 0c0 93.201355 -128.90674 168.75592 -287.92126 168.75592l0 0c-159.01453 0 -287.92126 -75.554565 -287.92126 -168.75592z" fill-rule="evenodd"/><path fill="#000000" d="m327.7624 538.4856l0.984375 6.75l1.4375 -6.078125l10.125 -35.71872l5.703125 0l9.875 35.71872l1.40625 6.1875l1.09375 -6.890625l7.9375 -35.015594l6.78125 0l-12.40625 51.18747l-6.15625 0l-10.546875 -37.296875l-0.796875 -3.90625l-0.8125 3.90625l-10.9375 37.296875l-6.15625 0l-12.375 -51.18747l6.75 0l8.09375 35.046844zm74.140625 16.140625q-0.5625 -1.125 -0.90625 -4.015625q-4.546875 4.71875 -10.828125 4.71875q-5.625 0 -9.234375 -3.171875q-3.609375 -3.1875 -3.609375 -8.078125q0 -5.9375 4.515625 -9.21875q4.53125 -3.296875 12.71875 -3.296875l6.328125 0l0 -2.984375q0 -3.421875 -2.046875 -5.4375q-2.03125 -2.015625 -6.0 -2.015625q-3.484375 0 -5.84375 1.765625q-2.359375 1.75 -2.359375 4.234375l-6.53125 0q0 -2.84375 2.015625 -5.5q2.03125 -2.65625 5.484375 -4.203125q3.46875 -1.546875 7.609375 -1.546875q6.578125 0 10.296875 3.296875q3.734375 3.28125 3.875 9.046875l0 17.515625q0 5.234375 1.34375 8.328125l0 0.5625l-6.828125 0zm-10.796875 -4.953125q3.0625 0 5.796875 -1.578125q2.75 -1.59375 3.984375 -4.125l0 -7.796875l-5.09375 0q-11.953125 0 -11.953125 6.984375q0 3.0625 2.03125 4.796875q2.046875 1.71875 5.234375 1.71875zm33.539062 4.953125l-6.5 0l0 -53.99997l6.5 0l0 53.99997zm17.472626 0l-6.5 0l0 -53.99997l6.5 0l0 53.99997z" fill-rule="nonzero"/><path fill="#000000" d="m240.43427 640.6262l0 -33.015625l-6.015625 0l0 -5.03125l6.015625 0l0 -3.890625q0 -6.125 3.265625 -9.453125q3.265625 -3.34375 9.25 -3.34375q2.25 0 4.46875 0.59375l-0.359375 5.265625q-1.65625 -0.3125 -3.515625 -0.3125q-3.15625 0 -4.890625 1.84375q-1.71875 1.84375 -1.71875 5.296875l0 4.0l8.125 0l0 5.03125l-8.125 0l0 33.015625l-6.5 0zm20.074219 -19.375q0 -5.59375 2.1875 -10.046875q2.203125 -4.46875 6.125 -6.890625q3.921875 -2.4375 8.953125 -2.4375q7.765625 0 12.5625 5.390625q4.796875 5.375 4.796875 14.296875l0 0.46875q0 5.546875 -2.125 9.96875q-2.125 4.40625 -6.078125 6.875q-3.953125 2.453125 -9.09375 2.453125q-7.734375 0 -12.53125 -5.375q-4.796875 -5.390625 -4.796875 -14.25l0 -0.453125zm6.53125 0.78125q0 6.328125 2.9375 10.15625q2.9375 3.828125 7.859375 3.828125q4.953125 0 7.875 -3.875q2.921875 -3.890625 2.921875 -10.890625q0 -6.25 -2.96875 -10.140625q-2.96875 -3.890625 -7.890625 -3.890625q-4.828125 0 -7.78125 3.84375q-2.953125 3.828125 -2.953125 10.96875zm43.3125 18.59375l-6.5 0l0 -54.0l6.5 0l0 54.0zm17.472656 0l-6.5 0l0 -54.0l6.5 0l0 54.0zm8.691406 -19.375q0 -5.59375 2.1875 -10.046875q2.203125 -4.46875 6.125 -6.890625q3.921875 -2.4375 8.953125 -2.4375q7.765625 0 12.5625 5.390625q4.796875 5.375 4.796875 14.296875l0 0.46875q0 5.546875 -2.125 9.96875q-2.125 4.40625 -6.078125 6.875q-3.953125 2.453125 -9.09375 2.453125q-7.734375 0 -12.53125 -5.375q-4.796875 -5.390625 -4.796875 -14.25l0 -0.453125zm6.53125 0.78125q0 6.328125 2.9375 10.15625q2.9375 3.828125 7.859375 3.828125q4.953125 0 7.875 -3.875q2.921875 -3.890625 2.921875 -10.890625q0 -6.25 -2.96875 -10.140625q-2.96875 -3.890625 -7.890625 -3.890625q-4.828125 0 -7.78125 3.84375q-2.953125 3.828125 -2.953125 10.96875zm69.9375 9.625l7.3125 -29.078125l6.5 0l-11.078125 38.046875l-5.265625 0l-9.25 -28.828125l-9.0 28.828125l-5.28125 0l-11.03125 -38.046875l6.46875 0l7.484375 28.484375l8.859375 -28.484375l5.234375 0l9.046875 29.078125zm27.480438 8.96875l-6.5 0l0 -38.046875l6.5 0l0 38.046875zm-7.03125 -48.125q0 -1.59375 0.96875 -2.671875q0.96875 -1.09375 2.859375 -1.09375q1.90625 0 2.890625 1.09375q0.984375 1.078125 0.984375 2.671875q0 1.578125 -0.984375 2.640625q-0.984375 1.046875 -2.890625 1.046875q-1.890625 0 -2.859375 -1.046875q-0.96875 -1.0625 -0.96875 -2.640625zm23.597656 10.078125l0.203125 4.78125q4.359375 -5.484375 11.390625 -5.484375q12.0625 0 12.171875 13.609375l0 25.140625l-6.5 0l0 -25.171875q-0.046875 -4.109375 -1.890625 -6.078125q-1.84375 -1.96875 -5.75 -1.96875q-3.15625 0 -5.546875 1.6875q-2.390625 1.6875 -3.734375 4.421875l0 27.109375l-6.5 0l0 -38.046875l6.15625 0zm32.023438 18.703125q0 -8.890625 4.109375 -14.140625q4.125 -5.265625 10.90625 -5.265625q6.953125 0 10.8594055 4.921875l0.3125 -4.21875l5.953125 0l0 37.125q0 7.390625 -4.390625 11.640625q-4.375 4.265625 -11.7500305 4.265625q-4.109375 0 -8.046875 -1.765625q-3.9375 -1.75 -6.015625 -4.8125l3.375 -3.90625q4.1875 5.171875 10.234375 5.171875q4.734375 0 7.390625 -2.671875q2.6562805 -2.671875 2.6562805 -7.53125l0 -3.265625q-3.9062805 4.5 -10.6562805 4.5q-6.671875 0 -10.8125 -5.375q-4.125 -5.390625 -4.125 -14.671875zm6.546875 0.75q0 6.421875 2.625 10.109375q2.640625 3.671875 7.390625 3.671875q6.15625 0 9.0312805 -5.59375l0 -17.375q-2.9844055 -5.4375 -8.9687805 -5.4375q-4.734375 0 -7.40625 3.6875q-2.671875 3.6875 -2.671875 10.9375z" fill-rule="nonzero"/><path fill="#000000" fill-opacity="0.0" d="m1036.028 588.00073l0 0c0 -93.201324 128.90674 -168.75592 287.92126 -168.75592l0 0c159.01453 0 287.92126 75.554596 287.92126 168.75592l0 0c0 93.201294 -128.90674 168.75586 -287.92126 168.75586l0 0c-159.01453 0 -287.92126 -75.554565 -287.92126 -168.75586z" fill-rule="evenodd"/><path stroke="#000000" stroke-width="4.0" stroke-linejoin="round" stroke-linecap="butt" d="m1036.028 588.00073l0 0c0 -93.201324 128.90674 -168.75592 287.92126 -168.75592l0 0c159.01453 0 287.92126 75.554596 287.92126 168.75592l0 0c0 93.201294 -128.90674 168.75586 -287.92126 168.75586l0 0c-159.01453 0 -287.92126 -75.554565 -287.92126 -168.75586z" fill-rule="evenodd"/><path fill="#000000" d="m1223.9434 551.07385l0 20.046875l-6.75 0l0 -51.1875l18.890625 0q8.390625 0 13.15625 4.296875q4.765625 4.28125 4.765625 11.34375q0 7.453125 -4.65625 11.484375q-4.65625 4.015625 -13.34375 4.015625l-12.0625 0zm0 -5.515625l12.140625 0q5.40625 0 8.28125 -2.546875q2.890625 -2.546875 2.890625 -7.359375q0 -4.578125 -2.890625 -7.3125q-2.875 -2.75 -7.90625 -2.859375l-12.515625 0l0 20.078125zm52.98047 26.265625q-7.734375 0 -12.59375 -5.078125q-4.84375 -5.078125 -4.84375 -13.59375l0 -1.1875q0 -5.671875 2.15625 -10.109375q2.171875 -4.453125 6.046875 -6.96875q3.890625 -2.515625 8.4375 -2.515625q7.40625 0 11.515625 4.890625q4.125 4.890625 4.125 14.0l0 2.703125l-25.765625 0q0.140625 5.625 3.28125 9.09375q3.140625 3.453125 8.0 3.453125q3.4375 0 5.828125 -1.40625q2.390625 -1.40625 4.1875 -3.71875l3.96875 3.09375q-4.78125 7.34375 -14.34375 7.34375zm-0.796875 -34.109375q-3.9375 0 -6.609375 2.875q-2.671875 2.859375 -3.3125 8.03125l19.0625 0l0 -0.5q-0.28125 -4.953125 -2.671875 -7.671875q-2.390625 -2.734375 -6.46875 -2.734375zm41.55078 1.203125q-1.484375 -0.25 -3.203125 -0.25q-6.390625 0 -8.6875 5.453125l0 27.0l-6.5 0l0 -38.046875l6.328125 0l0.109375 4.40625q3.203125 -5.109375 9.0625 -5.109375q1.90625 0 2.890625 0.5l0 6.046875zm28.128906 22.109375q0 -2.640625 -2.0 -4.09375q-1.984375 -1.453125 -6.921875 -2.5q-4.9375 -1.0625 -7.84375 -2.53125q-2.890625 -1.484375 -4.28125 -3.515625q-1.390625 -2.046875 -1.390625 -4.859375q0 -4.6875 3.953125 -7.921875q3.953125 -3.234375 10.109375 -3.234375q6.46875 0 10.484375 3.34375q4.03125 3.34375 4.03125 8.546875l-6.53125 0q0 -2.671875 -2.265625 -4.609375q-2.265625 -1.9375 -5.71875 -1.9375q-3.546875 0 -5.5625 1.546875q-2.0 1.546875 -2.0 4.046875q0 2.359375 1.859375 3.5625q1.875 1.1875 6.734375 2.28125q4.875 1.078125 7.890625 2.59375q3.03125 1.515625 4.484375 3.640625q1.46875 2.125 1.46875 5.1875q0 5.09375 -4.078125 8.171875q-4.078125 3.078125 -10.578125 3.078125q-4.578125 0 -8.09375 -1.609375q-3.515625 -1.625 -5.5 -4.515625q-1.984375 -2.90625 -1.984375 -6.28125l6.5 0q0.171875 3.265625 2.609375 5.1875q2.453125 1.90625 6.46875 1.90625q3.6875 0 5.921875 -1.484375q2.234375 -1.5 2.234375 -4.0zm13.25 -9.28125q0 -5.59375 2.1875 -10.046875q2.203125 -4.46875 6.125 -6.890625q3.921875 -2.4375 8.953125 -2.4375q7.765625 0 12.5625 5.390625q4.796875 5.375 4.796875 14.296875l0 0.46875q0 5.546875 -2.125 9.96875q-2.125 4.40625 -6.078125 6.875q-3.953125 2.453125 -9.09375 2.453125q-7.734375 0 -12.53125 -5.375q-4.796875 -5.390625 -4.796875 -14.25l0 -0.453125zm6.53125 0.78125q0 6.328125 2.9375 10.15625q2.9375 3.828125 7.859375 3.828125q4.953125 0 7.875 -3.875q2.921875 -3.890625 2.921875 -10.890625q0 -6.25 -2.96875 -10.140625q-2.96875 -3.890625 -7.890625 -3.890625q-4.828125 0 -7.78125 3.84375q-2.953125 3.828125 -2.953125 10.96875zm42.40625 -19.453125l0.203125 4.78125q4.359375 -5.484375 11.390625 -5.484375q12.0625 0 12.171875 13.609375l0 25.140625l-6.5 0l0 -25.171875q-0.046875 -4.109375 -1.890625 -6.078125q-1.84375 -1.96875 -5.75 -1.96875q-3.15625 0 -5.546875 1.6875q-2.390625 1.6875 -3.734375 4.421875l0 27.109375l-6.5 0l0 -38.046875l6.15625 0z" fill-rule="nonzero"/><path fill="#000000" d="m1185.1914 657.1207l0 -33.015625l-6.015625 0l0 -5.03125l6.015625 0l0 -3.890625q0 -6.125 3.265625 -9.453125q3.265625 -3.34375 9.25 -3.34375q2.25 0 4.46875 0.59375l-0.359375 5.265625q-1.65625 -0.3125 -3.515625 -0.3125q-3.15625 0 -4.890625 1.84375q-1.71875 1.84375 -1.71875 5.296875l0 4.0l8.125 0l0 5.03125l-8.125 0l0 33.015625l-6.5 0zm20.074219 -19.375q0 -5.59375 2.1875 -10.046875q2.203125 -4.46875 6.125 -6.890625q3.921875 -2.4375 8.953125 -2.4375q7.765625 0 12.5625 5.390625q4.796875 5.375 4.796875 14.296875l0 0.46875q0 5.546875 -2.125 9.96875q-2.125 4.40625 -6.078125 6.875q-3.953125 2.453125 -9.09375 2.453125q-7.734375 0 -12.53125 -5.375q-4.796875 -5.390625 -4.796875 -14.25l0 -0.453125zm6.53125 0.78125q0 6.328125 2.9375 10.15625q2.9375 3.828125 7.859375 3.828125q4.953125 0 7.875 -3.875q2.921875 -3.890625 2.921875 -10.890625q0 -6.25 -2.96875 -10.140625q-2.96875 -3.890625 -7.890625 -3.890625q-4.828125 0 -7.78125 3.84375q-2.953125 3.828125 -2.953125 10.96875zm43.3125 18.59375l-6.5 0l0 -54.0l6.5 0l0 54.0zm17.472656 0l-6.5 0l0 -54.0l6.5 0l0 54.0zm8.691406 -19.375q0 -5.59375 2.1875 -10.046875q2.203125 -4.46875 6.125 -6.890625q3.921875 -2.4375 8.953125 -2.4375q7.765625 0 12.5625 5.390625q4.796875 5.375 4.796875 14.296875l0 0.46875q0 5.546875 -2.125 9.96875q-2.125 4.40625 -6.078125 6.875q-3.953125 2.453125 -9.09375 2.453125q-7.734375 0 -12.53125 -5.375q-4.796875 -5.390625 -4.796875 -14.25l0 -0.453125zm6.53125 0.78125q0 6.328125 2.9375 10.15625q2.9375 3.828125 7.859375 3.828125q4.953125 0 7.875 -3.875q2.921875 -3.890625 2.921875 -10.890625q0 -6.25 -2.96875 -10.140625q-2.96875 -3.890625 -7.890625 -3.890625q-4.828125 0 -7.78125 3.84375q-2.953125 3.828125 -2.953125 10.96875zm69.9375 9.625l7.3125 -29.078125l6.5 0l-11.078125 38.046875l-5.265625 0l-9.25 -28.828125l-9.0 28.828125l-5.28125 0l-11.03125 -38.046875l6.46875 0l7.484375 28.484375l8.859375 -28.484375l5.234375 0l9.046875 29.078125zm27.480469 8.96875l-6.5 0l0 -38.046875l6.5 0l0 38.046875zm-7.03125 -48.125q0 -1.59375 0.96875 -2.671875q0.96875 -1.09375 2.859375 -1.09375q1.90625 0 2.890625 1.09375q0.984375 1.078125 0.984375 2.671875q0 1.578125 -0.984375 2.640625q-0.984375 1.046875 -2.890625 1.046875q-1.890625 0 -2.859375 -1.046875q-0.96875 -1.0625 -0.96875 -2.640625zm23.597656 10.078125l0.203125 4.78125q4.359375 -5.484375 11.390625 -5.484375q12.0625 0 12.171875 13.609375l0 25.140625l-6.5 0l0 -25.171875q-0.046875 -4.109375 -1.890625 -6.078125q-1.84375 -1.96875 -5.75 -1.96875q-3.15625 0 -5.546875 1.6875q-2.390625 1.6875 -3.734375 4.421875l0 27.109375l-6.5 0l0 -38.046875l6.15625 0zm32.023438 18.703125q0 -8.890625 4.109375 -14.140625q4.125 -5.265625 10.90625 -5.265625q6.953125 0 10.859375 4.921875l0.3125 -4.21875l5.953125 0l0 37.125q0 7.390625 -4.390625 11.640625q-4.375 4.265625 -11.75 4.265625q-4.109375 0 -8.046875 -1.765625q-3.9375 -1.75 -6.015625 -4.8125l3.375 -3.90625q4.1875 5.171875 10.234375 5.171875q4.734375 0 7.390625 -2.671875q2.65625 -2.671875 2.65625 -7.53125l0 -3.265625q-3.90625 4.5 -10.65625 4.5q-6.671875 0 -10.8125 -5.375q-4.125 -5.390625 -4.125 -14.671875zm6.546875 0.75q0 6.421875 2.625 10.109375q2.640625 3.671875 7.390625 3.671875q6.15625 0 9.03125 -5.59375l0 -17.375q-2.984375 -5.4375 -8.96875 -5.4375q-4.734375 0 -7.40625 3.6875q-2.671875 3.6875 -2.671875 10.9375z" fill-rule="nonzero"/><path fill="#000000" fill-opacity="0.0" d="m379.19208 402.75034c0 -77.55365 236.18896 -157.17029 472.37793 -155.1073c236.18903 2.0629883 472.378 85.80563 472.378 171.61124" fill-rule="evenodd"/><path stroke="#000000" stroke-width="4.0" stroke-linejoin="round" stroke-linecap="butt" d="m379.19205 402.75034c0 -77.55365 236.189 -157.17029 472.37802 -155.10728c118.09448 1.0314941 236.18896 22.482895 324.75977 54.402115c44.285522 15.959625 81.19006 34.536194 107.02319 54.485718c12.916626 9.974731 23.065308 20.292725 29.984863 30.798462c1.7299805 2.6264343 3.2580566 5.264618 4.5770264 7.912079c0.08239746 0.16549683 0.16418457 0.33099365 0.24499512 0.496521l0.09692383 0.2008667" fill-rule="evenodd"/><path fill="#000000" stroke="#000000" stroke-width="4.0" stroke-linecap="butt" d="m1311.8384 397.5055l10.723022 16.067963l2.1140137 -19.201355z" fill-rule="evenodd"/><path fill="#000000" fill-opacity="0.0" d="m1323.9492 756.7566c0 67.62579 -236.18896 137.31458 -472.37793 135.25159c-236.18896 -2.0629883 -472.37793 -75.87775 -472.37793 -151.7555" fill-rule="evenodd"/><path stroke="#000000" stroke-width="4.0" stroke-linejoin="round" stroke-linecap="butt" d="m1323.9492 756.75665c0 67.62573 -236.18896 137.31451 -472.37793 135.25153c-118.09448 -1.0314941 -236.18896 -20.000977 -324.75983 -48.197266c-44.28543 -14.0980835 -81.18994 -30.50293 -107.02313 -48.12561c-12.916565 -8.81134 -23.065308 -17.927124 -29.984924 -27.211304c-0.8649292 -1.1605225 -1.6794434 -2.3236694 -2.442566 -3.4891968c-0.3815918 -0.5827637 -0.7503052 -1.1660767 -1.1060791 -1.75l-0.022644043 -0.037475586" fill-rule="evenodd"/><path fill="#000000" stroke="#000000" stroke-width="4.0" stroke-linecap="butt" d="m392.54852 761.25964l-11.640167 -15.416443l-0.99264526 19.29181z" fill-rule="evenodd"/><path fill="#000000" fill-opacity="0.0" d="m501.03784 65.252495l701.0393 0l0 193.66928l-701.0393 0z" fill-rule="evenodd"/><path fill="#000000" d="m630.7919 142.71562l18.859375 0l0 4.296875l-24.140625 0l0 -39.812508l5.28125 0l0 35.515633zm42.320312 4.296875q-0.4375 -0.875 -0.703125 -3.125q-3.53125 3.671875 -8.421875 3.671875q-4.375 0 -7.1875 -2.46875q-2.796875 -2.484375 -2.796875 -6.28125q0 -4.625 3.515625 -7.171875q3.515625 -2.5625 9.875 -2.5625l4.921875 0l0 -2.3281326q0 -2.65625 -1.59375 -4.21875q-1.578125 -1.578125 -4.65625 -1.578125q-2.71875 0 -4.546875 1.375q-1.828125 1.359375 -1.828125 3.296875l-5.09375 0q0 -2.203125 1.578125 -4.265625q1.578125 -2.078125 4.265625 -3.28125q2.6875 -1.203125 5.921875 -1.203125q5.109375 0 8.0 2.5625q2.90625 2.5625 3.015625 7.046875l0 13.609383q0 4.078125 1.046875 6.484375l0 0.4375l-5.3125 0zm-8.390625 -3.859375q2.375 0 4.5 -1.21875q2.140625 -1.234375 3.09375 -3.203125l0 -6.078125l-3.953125 0q-9.296875 0 -9.296875 5.4375q0 2.390625 1.578125 3.734375q1.59375 1.328125 4.078125 1.328125zm37.820312 -3.984375q0 -2.0625 -1.546875 -3.1875q-1.546875 -1.140625 -5.390625 -1.953125q-3.84375 -0.828125 -6.109375 -1.96875q-2.25 -1.15625 -3.328125 -2.734375q-1.078125 -1.5937576 -1.078125 -3.7812576q0 -3.640625 3.078125 -6.15625q3.078125 -2.515625 7.859375 -2.515625q5.03125 0 8.15625 2.609375q3.140625 2.59375 3.140625 6.640625l-5.09375 0q0 -2.078125 -1.765625 -3.578125q-1.75 -1.515625 -4.4375 -1.515625q-2.765625 0 -4.328125 1.203125q-1.546875 1.203125 -1.546875 3.15625q0 1.828125 1.4375 2.7656326q1.453125 0.921875 5.234375 1.765625q3.796875 0.84375 6.140625 2.03125q2.359375 1.171875 3.484375 2.828125q1.140625 1.65625 1.140625 4.03125q0 3.96875 -3.171875 6.359375q-3.171875 2.390625 -8.21875 2.390625q-3.5625 0 -6.296875 -1.25q-2.734375 -1.265625 -4.28125 -3.515625q-1.546875 -2.265625 -1.546875 -4.890625l5.0625 0q0.140625 2.546875 2.03125 4.046875q1.90625 1.484375 5.03125 1.484375q2.859375 0 4.59375 -1.15625q1.75 -1.171875 1.75 -3.109375zm23.921875 8.390625q-6.015625 0 -9.796875 -3.953125q-3.765625 -3.953125 -3.765625 -10.5625l0 -0.9375q0 -4.4062576 1.671875 -7.8593826q1.6875 -3.453125 4.703125 -5.40625q3.03125 -1.96875 6.5625 -1.96875q5.765625 0 8.953125 3.8125q3.203125 3.796875 3.203125 10.875008l0 2.109375l-20.03125 0q0.109375 4.375 2.546875 7.078125q2.453125 2.6875 6.21875 2.6875q2.6875 0 4.546875 -1.09375q1.859375 -1.09375 3.25 -2.90625l3.09375 2.40625q-3.71875 5.71875 -11.15625 5.71875zm-0.625 -26.531258q-3.0625 0 -5.140625 2.234375q-2.078125 2.234375 -2.578125 6.2500076l14.828125 0l0 -0.390625q-0.21875 -3.8437576 -2.078125 -5.9687576q-1.859375 -2.125 -5.03125 -2.125zm32.308594 0.9375q-1.140625 -0.1875 -2.484375 -0.1875q-4.96875 0 -6.75 4.234375l0 21.000008l-5.0625 0l0 -29.593758l4.921875 0l0.078125 3.421875q2.5 -3.96875 7.0625 -3.96875q1.46875 0 2.234375 0.390625l0 4.703125zm35.75 17.203133q0 -2.0625 -1.546875 -3.1875q-1.546875 -1.140625 -5.390625 -1.953125q-3.84375 -0.828125 -6.109375 -1.96875q-2.25 -1.15625 -3.328125 -2.734375q-1.078125 -1.5937576 -1.078125 -3.7812576q0 -3.640625 3.078125 -6.15625q3.078125 -2.515625 7.859375 -2.515625q5.03125 0 8.15625 2.609375q3.140625 2.59375 3.140625 6.640625l-5.09375 0q0 -2.078125 -1.765625 -3.578125q-1.75 -1.515625 -4.4375 -1.515625q-2.765625 0 -4.328125 1.203125q-1.546875 1.203125 -1.546875 3.15625q0 1.828125 1.4375 2.7656326q1.453125 0.921875 5.234375 1.765625q3.796875 0.84375 6.140625 2.03125q2.359375 1.171875 3.484375 2.828125q1.140625 1.65625 1.140625 4.03125q0 3.96875 -3.171875 6.359375q-3.171875 2.390625 -8.21875 2.390625q-3.5625 0 -6.296875 -1.25q-2.734375 -1.265625 -4.28125 -3.515625q-1.546875 -2.265625 -1.546875 -4.890625l5.0625 0q0.140625 2.546875 2.03125 4.046875q1.90625 1.484375 5.03125 1.484375q2.859375 0 4.59375 -1.15625q1.75 -1.171875 1.75 -3.109375zm23.515625 4.265625q2.703125 0 4.71875 -1.640625q2.03125 -1.640625 2.25 -4.109375l4.78125 0q-0.140625 2.546875 -1.75 4.84375q-1.609375 2.296875 -4.3125 3.671875q-2.6875 1.359375 -5.6875 1.359375q-6.046875 0 -9.625 -4.03125q-3.5625 -4.03125 -3.5625 -11.03125l0 -0.859375q0 -4.3125076 1.578125 -7.6718826q1.59375 -3.375 4.5625 -5.234375q2.96875 -1.859375 7.015625 -1.859375q4.96875 0 8.265625 2.984375q3.296875 2.984375 3.515625 7.734375l-4.78125 0q-0.21875 -2.859375 -2.171875 -4.703125q-1.953125 -1.859375 -4.828125 -1.859375q-3.859375 0 -5.984375 2.78125q-2.109375 2.78125 -2.109375 8.031258l0 0.953125q0 5.109375 2.09375 7.875q2.109375 2.765625 6.03125 2.765625zm35.703125 3.578125q-0.4375 -0.875 -0.703125 -3.125q-3.53125 3.671875 -8.421875 3.671875q-4.375 0 -7.1875 -2.46875q-2.796875 -2.484375 -2.796875 -6.28125q0 -4.625 3.515625 -7.171875q3.515625 -2.5625 9.875 -2.5625l4.921875 0l0 -2.3281326q0 -2.65625 -1.59375 -4.21875q-1.578125 -1.578125 -4.65625 -1.578125q-2.71875 0 -4.546875 1.375q-1.828125 1.359375 -1.828125 3.296875l-5.09375 0q0 -2.203125 1.578125 -4.265625q1.578125 -2.078125 4.265625 -3.28125q2.6875 -1.203125 5.921875 -1.203125q5.109375 0 8.0 2.5625q2.90625 2.5625 3.015625 7.046875l0 13.609383q0 4.078125 1.046875 6.484375l0 0.4375l-5.3125 0zm-8.390625 -3.859375q2.375 0 4.5 -1.21875q2.140625 -1.234375 3.09375 -3.203125l0 -6.078125l-3.953125 0q-9.296875 0 -9.296875 5.4375q0 2.390625 1.578125 3.734375q1.59375 1.328125 4.078125 1.328125zm25.367188 -25.734383l0.171875 3.71875q3.390625 -4.265625 8.859375 -4.265625q9.375 0 9.453125 10.59375l0 19.546883l-5.046875 0l0 -19.578133q-0.03125 -3.203125 -1.46875 -4.734375q-1.4375 -1.53125 -4.46875 -1.53125q-2.46875 0 -4.328125 1.3125q-1.859375 1.3125 -2.890625 3.453125l0 21.078133l-5.0625 0l0 -29.593758l4.78125 0zm54.277344 4.546875q-1.140625 -0.1875 -2.484375 -0.1875q-4.96875 0 -6.75 4.234375l0 21.000008l-5.0625 0l0 -29.593758l4.921875 0l0.078125 3.421875q2.5 -3.96875 7.0625 -3.96875q1.46875 0 2.234375 0.390625l0 4.703125zm16.414062 25.593758q-6.015625 0 -9.796875 -3.953125q-3.765625 -3.953125 -3.765625 -10.5625l0 -0.9375q0 -4.4062576 1.671875 -7.8593826q1.6875 -3.453125 4.703125 -5.40625q3.03125 -1.96875 6.5625 -1.96875q5.765625 0 8.953125 3.8125q3.203125 3.796875 3.203125 10.875008l0 2.109375l-20.03125 0q0.109375 4.375 2.546875 7.078125q2.453125 2.6875 6.21875 2.6875q2.6875 0 4.546875 -1.09375q1.859375 -1.09375 3.25 -2.90625l3.09375 2.40625q-3.71875 5.71875 -11.15625 5.71875zm-0.625 -26.531258q-3.0625 0 -5.140625 2.234375q-2.078125 2.234375 -2.578125 6.2500076l14.828125 0l0 -0.390625q-0.21875 -3.8437576 -2.078125 -5.9687576q-1.859375 -2.125 -5.03125 -2.125zm24.871094 -10.765625l0 7.15625l5.53125 0l0 3.921875l-5.53125 0l0 18.343758q0 1.78125 0.734375 2.671875q0.75 0.875 2.53125 0.875q0.875 0 2.40625 -0.328125l0 4.109375q-2.0 0.546875 -3.890625 0.546875q-3.390625 0 -5.109375 -2.046875q-1.71875 -2.0625 -1.71875 -5.828125l0 -18.343758l-5.390625 0l0 -3.921875l5.390625 0l0 -7.15625l5.046875 0zm29.699219 33.828133q-2.953125 3.46875 -8.671875 3.46875q-4.71875 0 -7.203125 -2.75q-2.46875 -2.75 -2.5 -8.140625l0 -19.250008l5.0625 0l0 19.125008q0 6.71875 5.46875 6.71875q5.796875 0 7.703125 -4.3125l0 -21.531258l5.0625 0l0 29.593758l-4.8125 0l-0.109375 -2.921875zm26.902344 -22.125008q-1.140625 -0.1875 -2.484375 -0.1875q-4.96875 0 -6.75 4.234375l0 21.000008l-5.0625 0l0 -29.593758l4.921875 0l0.078125 3.421875q2.5 -3.96875 7.0625 -3.96875q1.46875 0 2.234375 0.390625l0 4.703125zm9.433594 -4.546875l0.171875 3.71875q3.390625 -4.265625 8.859375 -4.265625q9.375 0 9.453125 10.59375l0 19.546883l-5.046875 0l0 -19.578133q-0.03125 -3.203125 -1.46875 -4.734375q-1.4375 -1.53125 -4.46875 -1.53125q-2.46875 0 -4.328125 1.3125q-1.859375 1.3125 -2.890625 3.453125l0 21.078133l-5.0625 0l0 -29.593758l4.78125 0zm43.351562 21.750008q0 -2.0625 -1.546875 -3.1875q-1.546875 -1.140625 -5.390625 -1.953125q-3.84375 -0.828125 -6.109375 -1.96875q-2.25 -1.15625 -3.328125 -2.734375q-1.078125 -1.5937576 -1.078125 -3.7812576q0 -3.640625 3.078125 -6.15625q3.078125 -2.515625 7.859375 -2.515625q5.03125 0 8.15625 2.609375q3.140625 2.59375 3.140625 6.640625l-5.09375 0q0 -2.078125 -1.765625 -3.578125q-1.75 -1.515625 -4.4375 -1.515625q-2.765625 0 -4.328125 1.203125q-1.546875 1.203125 -1.546875 3.15625q0 1.828125 1.4375 2.7656326q1.453125 0.921875 5.234375 1.765625q3.796875 0.84375 6.140625 2.03125q2.359375 1.171875 3.484375 2.828125q1.140625 1.65625 1.140625 4.03125q0 3.96875 -3.171875 6.359375q-3.171875 2.390625 -8.21875 2.390625q-3.5625 0 -6.296875 -1.25q-2.734375 -1.265625 -4.28125 -3.515625q-1.546875 -2.265625 -1.546875 -4.890625l5.0625 0q0.140625 2.546875 2.03125 4.046875q1.90625 1.484375 5.03125 1.484375q2.859375 0 4.59375 -1.15625q1.75 -1.171875 1.75 -3.109375z" fill-rule="nonzero"/><path fill="#000000" d="m561.08093 189.16562q-1.140625 -0.1875 -2.484375 -0.1875q-4.96875 0 -6.75 4.234375l0 21.0l-5.0625 0l0 -29.59375l4.921875 0l0.078125 3.421875q2.5 -3.96875 7.0625 -3.96875q1.46875 0 2.234375 0.390625l0 4.703125zm16.414062 25.59375q-6.015625 0 -9.796875 -3.953125q-3.765625 -3.953125 -3.765625 -10.5625l0 -0.9375q0 -4.40625 1.671875 -7.859375q1.6875 -3.453125 4.703125 -5.40625q3.03125 -1.96875 6.5625 -1.96875q5.765625 0 8.953125 3.8125q3.203125 3.796875 3.203125 10.875l0 2.109375l-20.03125 0q0.109375 4.375 2.546875 7.078125q2.453125 2.6875 6.21875 2.6875q2.6875 0 4.546875 -1.09375q1.859375 -1.09375 3.25 -2.90625l3.09375 2.40625q-3.71875 5.71875 -11.15625 5.71875zm-0.625 -26.53125q-3.0625 0 -5.140625 2.234375q-2.078125 2.234375 -2.578125 6.25l14.828125 0l0 -0.390625q-0.21875 -3.84375 -2.078125 -5.96875q-1.859375 -2.125 -5.03125 -2.125zm36.277344 25.984375q-0.4375 -0.875 -0.703125 -3.125q-3.53125 3.671875 -8.421875 3.671875q-4.375 0 -7.1875 -2.46875q-2.796875 -2.484375 -2.796875 -6.28125q0 -4.625 3.515625 -7.171875q3.515625 -2.5625 9.875 -2.5625l4.921875 0l0 -2.328125q0 -2.65625 -1.59375 -4.21875q-1.578125 -1.578125 -4.65625 -1.578125q-2.71875 0 -4.546875 1.375q-1.828125 1.359375 -1.828125 3.296875l-5.09375 0q0 -2.203125 1.578125 -4.265625q1.578125 -2.078125 4.265625 -3.28125q2.6875 -1.203125 5.921875 -1.203125q5.109375 0 8.0 2.5625q2.90625 2.5625 3.015625 7.046875l0 13.609375q0 4.078125 1.046875 6.484375l0 0.4375l-5.3125 0zm-8.390625 -3.859375q2.375 0 4.5 -1.21875q2.140625 -1.234375 3.09375 -3.203125l0 -6.078125l-3.953125 0q-9.296875 0 -9.296875 5.4375q0 2.390625 1.578125 3.734375q1.59375 1.328125 4.078125 1.328125zm19.351562 -11.1875q0 -6.796875 3.21875 -10.9375q3.234375 -4.15625 8.46875 -4.15625q5.1875 0 8.21875 3.5625l0 -15.421875l5.0625 0l0 42.0l-4.640625 0l-0.25 -3.171875q-3.03125 3.71875 -8.453125 3.71875q-5.140625 0 -8.390625 -4.203125q-3.234375 -4.21875 -3.234375 -11.0l0 -0.390625zm5.0625 0.578125q0 5.03125 2.078125 7.875q2.078125 2.84375 5.75 2.84375q4.8125 0 7.015625 -4.3125l0 -13.59375q-2.265625 -4.1875 -6.96875 -4.1875q-3.71875 0 -5.796875 2.875q-2.078125 2.875 -2.078125 8.5zm33.253906 14.46875l-5.0625 0l0 -29.59375l5.0625 0l0 29.59375zm-5.46875 -37.4375q0 -1.234375 0.75 -2.078125q0.75 -0.84375 2.21875 -0.84375q1.484375 0 2.25 0.84375q0.765625 0.84375 0.765625 2.078125q0 1.234375 -0.765625 2.0625q-0.765625 0.8125 -2.25 0.8125q-1.46875 0 -2.21875 -0.8125q-0.75 -0.828125 -0.75 -2.0625zm18.339844 7.84375l0.171875 3.71875q3.390625 -4.265625 8.859375 -4.265625q9.375 0 9.453125 10.59375l0 19.546875l-5.046875 0l0 -19.578125q-0.03125 -3.203125 -1.46875 -4.734375q-1.4375 -1.53125 -4.46875 -1.53125q-2.46875 0 -4.328125 1.3125q-1.859375 1.3125 -2.890625 3.453125l0 21.078125l-5.0625 0l0 -29.59375l4.78125 0zm24.914062 14.546875q0 -6.90625 3.203125 -11.0q3.203125 -4.09375 8.46875 -4.09375q5.421875 0 8.453125 3.828125l0.25 -3.28125l4.625 0l0 28.875q0 5.75 -3.40625 9.0625q-3.40625 3.3125 -9.15625 3.3125q-3.1875 0 -6.25 -1.375q-3.0625 -1.359375 -4.6875 -3.75l2.625 -3.03125q3.265625 4.015625 7.96875 4.015625q3.6875 0 5.75 -2.078125q2.0625 -2.078125 2.0625 -5.84375l0 -2.546875q-3.03125 3.5 -8.28125 3.5q-5.203125 0 -8.421875 -4.1875q-3.203125 -4.1875 -3.203125 -11.40625zm5.09375 0.578125q0 5.0 2.046875 7.859375q2.046875 2.859375 5.734375 2.859375q4.796875 0 7.03125 -4.34375l0 -13.515625q-2.328125 -4.234375 -6.96875 -4.234375q-3.6875 0 -5.765625 2.875q-2.078125 2.875 -2.078125 8.5zm44.76172 6.625q0 -2.0625 -1.546875 -3.1875q-1.546875 -1.140625 -5.390625 -1.953125q-3.84375 -0.828125 -6.109375 -1.96875q-2.25 -1.15625 -3.328125 -2.734375q-1.078125 -1.59375 -1.078125 -3.78125q0 -3.640625 3.078125 -6.15625q3.078125 -2.515625 7.859375 -2.515625q5.03125 0 8.15625 2.609375q3.140625 2.59375 3.140625 6.640625l-5.09375 0q0 -2.078125 -1.765625 -3.578125q-1.75 -1.515625 -4.4375 -1.515625q-2.765625 0 -4.328125 1.203125q-1.546875 1.203125 -1.546875 3.15625q0 1.828125 1.4375 2.765625q1.453125 0.921875 5.234375 1.765625q3.796875 0.84375 6.140625 2.03125q2.359375 1.171875 3.484375 2.828125q1.140625 1.65625 1.140625 4.03125q0 3.96875 -3.171875 6.359375q-3.171875 2.390625 -8.21875 2.390625q-3.5625 0 -6.296875 -1.25q-2.734375 -1.265625 -4.28125 -3.515625q-1.546875 -2.265625 -1.546875 -4.890625l5.0625 0q0.140625 2.546875 2.03125 4.046875q1.90625 1.484375 5.03125 1.484375q2.859375 0 4.59375 -1.15625q1.75 -1.171875 1.75 -3.109375zm31.003906 7.84375l-5.0625 0l0 -29.59375l5.0625 0l0 29.59375zm-5.46875 -37.4375q0 -1.234375 0.75 -2.078125q0.75 -0.84375 2.21875 -0.84375q1.484375 0 2.25 0.84375q0.765625 0.84375 0.765625 2.078125q0 1.234375 -0.765625 2.0625q-0.765625 0.8125 -2.25 0.8125q-1.46875 0 -2.21875 -0.8125q-0.75 -0.828125 -0.75 -2.0625zm18.339844 7.84375l0.171875 3.71875q3.390625 -4.265625 8.859375 -4.265625q9.375 0 9.453125 10.59375l0 19.546875l-5.046875 0l0 -19.578125q-0.03125 -3.203125 -1.46875 -4.734375q-1.4375 -1.53125 -4.46875 -1.53125q-2.46875 0 -4.328125 1.3125q-1.859375 1.3125 -2.890625 3.453125l0 21.078125l-5.0625 0l0 -29.59375l4.78125 0zm42.464844 29.59375l0 -25.671875l-4.671875 0l0 -3.921875l4.671875 0l0 -3.03125q0 -4.75 2.546875 -7.34375q2.546875 -2.609375 7.1875 -2.609375q1.75 0 3.484375 0.46875l-0.28125 4.09375q-1.28125 -0.234375 -2.734375 -0.234375q-2.453125 0 -3.796875 1.4375q-1.34375 1.421875 -1.34375 4.109375l0 3.109375l6.3125 0l0 3.921875l-6.3125 0l0 25.671875l-5.0625 0zm31.253906 -25.046875q-1.140625 -0.1875 -2.484375 -0.1875q-4.96875 0 -6.75 4.234375l0 21.0l-5.0625 0l0 -29.59375l4.921875 0l0.078125 3.421875q2.5 -3.96875 7.0625 -3.96875q1.46875 0 2.234375 0.390625l0 4.703125zm2.7617188 9.984375q0 -4.359375 1.703125 -7.828125q1.71875 -3.46875 4.765625 -5.359375q3.046875 -1.890625 6.96875 -1.890625q6.03125 0 9.765625 4.1875q3.734375 4.1875 3.734375 11.125l0 0.359375q0 4.328125 -1.65625 7.765625q-1.65625 3.421875 -4.734375 5.34375q-3.0625 1.90625 -7.0625 1.90625q-6.015625 0 -9.75 -4.1875q-3.734375 -4.1875 -3.734375 -11.078125l0 -0.34375zm5.09375 0.59375q0 4.921875 2.28125 7.90625q2.28125 2.984375 6.109375 2.984375q3.859375 0 6.125 -3.015625q2.265625 -3.03125 2.265625 -8.46875q0 -4.875 -2.3125 -7.890625q-2.296875 -3.03125 -6.125 -3.03125q-3.75 0 -6.046875 2.984375q-2.296875 2.984375 -2.296875 8.53125zm32.96875 -15.125l0.171875 3.71875q3.390625 -4.265625 8.859375 -4.265625q9.375 0 9.453125 10.59375l0 19.546875l-5.046875 0l0 -19.578125q-0.03125 -3.203125 -1.46875 -4.734375q-1.4375 -1.53125 -4.46875 -1.53125q-2.46875 0 -4.328125 1.3125q-1.859375 1.3125 -2.890625 3.453125l0 21.078125l-5.0625 0l0 -29.59375l4.78125 0zm32.976562 -7.15625l0 7.15625l5.53125 0l0 3.921875l-5.53125 0l0 18.34375q0 1.78125 0.734375 2.671875q0.75 0.875 2.53125 0.875q0.875 0 2.40625 -0.328125l0 4.109375q-2.0 0.546875 -3.890625 0.546875q-3.390625 0 -5.109375 -2.046875q-1.71875 -2.0625 -1.71875 -5.828125l0 -18.34375l-5.390625 0l0 -3.921875l5.390625 0l0 -7.15625l5.046875 0zm23.953125 21.6875q0 -4.359375 1.703125 -7.828125q1.71875 -3.46875 4.765625 -5.359375q3.046875 -1.890625 6.96875 -1.890625q6.03125 0 9.765625 4.1875q3.734375 4.1875 3.734375 11.125l0 0.359375q0 4.328125 -1.65625 7.765625q-1.65625 3.421875 -4.734375 5.34375q-3.0625 1.90625 -7.0625 1.90625q-6.015625 0 -9.75 -4.1875q-3.734375 -4.1875 -3.734375 -11.078125l0 -0.34375zm5.09375 0.59375q0 4.921875 2.28125 7.90625q2.28125 2.984375 6.109375 2.984375q3.859375 0 6.125 -3.015625q2.265625 -3.03125 2.265625 -8.46875q0 -4.875 -2.3125 -7.890625q-2.296875 -3.03125 -6.125 -3.03125q-3.75 0 -6.046875 2.984375q-2.296875 2.984375 -2.296875 8.53125zm30.671875 14.46875l0 -25.671875l-4.671875 0l0 -3.921875l4.671875 0l0 -3.03125q0 -4.75 2.546875 -7.34375q2.546875 -2.609375 7.1875 -2.609375q1.75 0 3.484375 0.46875l-0.28125 4.09375q-1.28125 -0.234375 -2.734375 -0.234375q-2.453125 0 -3.796875 1.4375q-1.34375 1.421875 -1.34375 4.109375l0 3.109375l6.3125 0l0 3.921875l-6.3125 0l0 25.671875l-5.0625 0zm45.117188 -25.046875q-1.140625 -0.1875 -2.484375 -0.1875q-4.96875 0 -6.75 4.234375l0 21.0l-5.0625 0l0 -29.59375l4.921875 0l0.078125 3.421875q2.5 -3.96875 7.0625 -3.96875q1.46875 0 2.234375 0.390625l0 4.703125zm2.7617188 9.984375q0 -4.359375 1.703125 -7.828125q1.71875 -3.46875 4.765625 -5.359375q3.046875 -1.890625 6.96875 -1.890625q6.03125 0 9.765625 4.1875q3.734375 4.1875 3.734375 11.125l0 0.359375q0 4.328125 -1.65625 7.765625q-1.65625 3.421875 -4.734375 5.34375q-3.0625 1.90625 -7.0625 1.90625q-6.015625 0 -9.75 -4.1875q-3.734375 -4.1875 -3.734375 -11.078125l0 -0.34375zm5.09375 0.59375q0 4.921875 2.28125 7.90625q2.28125 2.984375 6.109375 2.984375q3.859375 0 6.125 -3.015625q2.265625 -3.03125 2.265625 -8.46875q0 -4.875 -2.3125 -7.890625q-2.296875 -3.03125 -6.125 -3.03125q-3.75 0 -6.046875 2.984375q-2.296875 2.984375 -2.296875 8.53125zm53.234375 0q0 6.78125 -3.125 10.90625q-3.109375 4.109375 -8.359375 4.109375q-5.609375 0 -8.671875 -3.96875l-0.234375 3.421875l-4.65625 0l0 -42.0l5.0625 0l0 15.671875q3.0625 -3.8125 8.4375 -3.8125q5.390625 0 8.46875 4.078125q3.078125 4.078125 3.078125 11.15625l0 0.4375zm-5.0625 -0.578125q0 -5.15625 -2.0 -7.96875q-1.984375 -2.828125 -5.734375 -2.828125q-5.0 0 -7.1875 4.65625l0 12.796875q2.328125 4.640625 7.25 4.640625q3.625 0 5.640625 -2.8125q2.03125 -2.8125 2.03125 -8.484375zm10.089844 -0.015625q0 -4.359375 1.703125 -7.828125q1.71875 -3.46875 4.765625 -5.359375q3.046875 -1.890625 6.96875 -1.890625q6.03125 0 9.765625 4.1875q3.734375 4.1875 3.734375 11.125l0 0.359375q0 4.328125 -1.65625 7.765625q-1.65625 3.421875 -4.734375 5.34375q-3.0625 1.90625 -7.0625 1.90625q-6.015625 0 -9.75 -4.1875q-3.734375 -4.1875 -3.734375 -11.078125l0 -0.34375zm5.09375 0.59375q0 4.921875 2.28125 7.90625q2.28125 2.984375 6.109375 2.984375q3.859375 0 6.125 -3.015625q2.265625 -3.03125 2.265625 -8.46875q0 -4.875 -2.3125 -7.890625q-2.296875 -3.03125 -6.125 -3.03125q-3.75 0 -6.046875 2.984375q-2.296875 2.984375 -2.296875 8.53125zm35.046875 -22.28125l0 7.15625l5.53125 0l0 3.921875l-5.53125 0l0 18.34375q0 1.78125 0.734375 2.671875q0.75 0.875 2.53125 0.875q0.875 0 2.40625 -0.328125l0 4.109375q-2.0 0.546875 -3.890625 0.546875q-3.390625 0 -5.109375 -2.046875q-1.71875 -2.0625 -1.71875 -5.828125l0 -18.34375l-5.390625 0l0 -3.921875l5.390625 0l0 -7.15625l5.046875 0z" fill-rule="nonzero"/><path fill="#000000" fill-opacity="0.0" d="m563.6609 874.7758l575.8425 0l0 193.66925l-575.8425 0z" fill-rule="evenodd"/><path fill="#000000" d="m640.8849 956.5358l-5.28125 0l-20.03125 -30.6875l0 30.6875l-5.28125 0l0 -39.8125l5.28125 0l20.09375 30.8125l0 -30.8125l5.21875 0l0 39.8125zm7.1875 -15.0625q0 -4.359375 1.703125 -7.828125q1.71875 -3.46875 4.765625 -5.359375q3.046875 -1.890625 6.96875 -1.890625q6.03125 0 9.765625 4.1875q3.734375 4.1875 3.734375 11.125l0 0.359375q0 4.328125 -1.65625 7.765625q-1.65625 3.421875 -4.734375 5.34375q-3.0625 1.90625 -7.0625 1.90625q-6.015625 0 -9.75 -4.1875q-3.734375 -4.1875 -3.734375 -11.078125l0 -0.34375zm5.09375 0.59375q0 4.921875 2.28125 7.90625q2.28125 2.984375 6.109375 2.984375q3.859375 0 6.125 -3.015625q2.265625 -3.03125 2.265625 -8.46875q0 -4.875 -2.3125 -7.890625q-2.296875 -3.03125 -6.125 -3.03125q-3.75 0 -6.046875 2.984375q-2.296875 2.984375 -2.296875 8.53125zm56.347656 -10.578125q-1.140625 -0.1875 -2.484375 -0.1875q-4.96875 0 -6.75 4.234375l0 21.0l-5.0625 0l0 -29.59375l4.921875 0l0.078125 3.421875q2.5 -3.96875 7.0625 -3.96875q1.46875 0 2.234375 0.390625l0 4.703125zm16.414062 25.59375q-6.015625 0 -9.796875 -3.953125q-3.765625 -3.953125 -3.765625 -10.5625l0 -0.9375q0 -4.40625 1.671875 -7.859375q1.6875 -3.453125 4.703125 -5.40625q3.03125 -1.96875 6.5625 -1.96875q5.765625 0 8.953125 3.8125q3.203125 3.796875 3.203125 10.875l0 2.109375l-20.03125 0q0.109375 4.375 2.546875 7.078125q2.453125 2.6875 6.21875 2.6875q2.6875 0 4.546875 -1.09375q1.859375 -1.09375 3.25 -2.90625l3.09375 2.40625q-3.71875 5.71875 -11.15625 5.71875zm-0.625 -26.53125q-3.0625 0 -5.140625 2.234375q-2.078125 2.234375 -2.578125 6.25l14.828125 0l0 -0.390625q-0.21875 -3.84375 -2.078125 -5.96875q-1.859375 -2.125 -5.03125 -2.125zm36.277344 25.984375q-0.4375 -0.875 -0.703125 -3.125q-3.53125 3.671875 -8.421875 3.671875q-4.375 0 -7.1875 -2.46875q-2.796875 -2.484375 -2.796875 -6.28125q0 -4.625 3.515625 -7.171875q3.515625 -2.5625 9.875 -2.5625l4.921875 0l0 -2.328125q0 -2.65625 -1.59375 -4.21875q-1.578125 -1.578125 -4.65625 -1.578125q-2.71875 0 -4.546875 1.375q-1.828125 1.359375 -1.828125 3.296875l-5.09375 0q0 -2.203125 1.578125 -4.265625q1.578125 -2.078125 4.265625 -3.28125q2.6875 -1.203125 5.921875 -1.203125q5.109375 0 8.0 2.5625q2.90625 2.5625 3.015625 7.046875l0 13.609375q0 4.078125 1.046875 6.484375l0 0.4375l-5.3125 0zm-8.390625 -3.859375q2.375 0 4.5 -1.21875q2.140625 -1.234375 3.09375 -3.203125l0 -6.078125l-3.953125 0q-9.296875 0 -9.296875 5.4375q0 2.390625 1.578125 3.734375q1.59375 1.328125 4.078125 1.328125zm19.351562 -11.1875q0 -6.796875 3.21875 -10.9375q3.234375 -4.15625 8.46875 -4.15625q5.1875 0 8.21875 3.5625l0 -15.421875l5.0625 0l0 42.0l-4.640625 0l-0.25 -3.171875q-3.03125 3.71875 -8.453125 3.71875q-5.140625 0 -8.390625 -4.203125q-3.234375 -4.21875 -3.234375 -11.0l0 -0.390625zm5.0625 0.578125q0 5.03125 2.078125 7.875q2.078125 2.84375 5.75 2.84375q4.8125 0 7.015625 -4.3125l0 -13.59375q-2.265625 -4.1875 -6.96875 -4.1875q-3.71875 0 -5.796875 2.875q-2.078125 2.875 -2.078125 8.5zm33.253906 14.46875l-5.0625 0l0 -29.59375l5.0625 0l0 29.59375zm-5.46875 -37.4375q0 -1.234375 0.75 -2.078125q0.75 -0.84375 2.21875 -0.84375q1.484375 0 2.25 0.84375q0.765625 0.84375 0.765625 2.078125q0 1.234375 -0.765625 2.0625q-0.765625 0.8125 -2.25 0.8125q-1.46875 0 -2.21875 -0.8125q-0.75 -0.828125 -0.75 -2.0625zm18.339844 7.84375l0.171875 3.71875q3.390625 -4.265625 8.859375 -4.265625q9.375 0 9.453125 10.59375l0 19.546875l-5.046875 0l0 -19.578125q-0.03125 -3.203125 -1.46875 -4.734375q-1.4375 -1.53125 -4.46875 -1.53125q-2.46875 0 -4.328125 1.3125q-1.859375 1.3125 -2.890625 3.453125l0 21.078125l-5.0625 0l0 -29.59375l4.78125 0zm24.914062 14.546875q0 -6.90625 3.203125 -11.0q3.203125 -4.09375 8.46875 -4.09375q5.421875 0 8.453125 3.828125l0.25 -3.28125l4.625 0l0 28.875q0 5.75 -3.40625 9.0625q-3.40625 3.3125 -9.15625 3.3125q-3.1875 0 -6.25 -1.375q-3.0625 -1.359375 -4.6875 -3.75l2.625 -3.03125q3.265625 4.015625 7.96875 4.015625q3.6875 0 5.75 -2.078125q2.0625 -2.078125 2.0625 -5.84375l0 -2.546875q-3.03125 3.5 -8.28125 3.5q-5.203125 0 -8.421875 -4.1875q-3.203125 -4.1875 -3.203125 -11.40625zm5.09375 0.578125q0 5.0 2.046875 7.859375q2.046875 2.859375 5.734375 2.859375q4.796875 0 7.03125 -4.34375l0 -13.515625q-2.328125 -4.234375 -6.96875 -4.234375q-3.6875 0 -5.765625 2.875q-2.078125 2.875 -2.078125 8.5zm44.76172 6.625q0 -2.0625 -1.546875 -3.1875q-1.546875 -1.140625 -5.390625 -1.953125q-3.84375 -0.828125 -6.109375 -1.96875q-2.25 -1.15625 -3.328125 -2.734375q-1.078125 -1.59375 -1.078125 -3.78125q0 -3.640625 3.078125 -6.15625q3.078125 -2.515625 7.859375 -2.515625q5.03125 0 8.15625 2.609375q3.140625 2.59375 3.140625 6.640625l-5.09375 0q0 -2.078125 -1.765625 -3.578125q-1.75 -1.515625 -4.4375 -1.515625q-2.765625 0 -4.328125 1.203125q-1.546875 1.203125 -1.546875 3.15625q0 1.828125 1.4375 2.765625q1.453125 0.921875 5.234375 1.765625q3.796875 0.84375 6.140625 2.03125q2.359375 1.171875 3.484375 2.828125q1.140625 1.65625 1.140625 4.03125q0 3.96875 -3.171875 6.359375q-3.171875 2.390625 -8.21875 2.390625q-3.5625 0 -6.296875 -1.25q-2.734375 -1.265625 -4.28125 -3.515625q-1.546875 -2.265625 -1.546875 -4.890625l5.0625 0q0.140625 2.546875 2.03125 4.046875q1.90625 1.484375 5.03125 1.484375q2.859375 0 4.59375 -1.15625q1.75 -1.171875 1.75 -3.109375zm31.003906 7.84375l-5.0625 0l0 -29.59375l5.0625 0l0 29.59375zm-5.46875 -37.4375q0 -1.234375 0.75 -2.078125q0.75 -0.84375 2.21875 -0.84375q1.484375 0 2.25 0.84375q0.765625 0.84375 0.765625 2.078125q0 1.234375 -0.765625 2.0625q-0.765625 0.8125 -2.25 0.8125q-1.46875 0 -2.21875 -0.8125q-0.75 -0.828125 -0.75 -2.0625zm18.339844 7.84375l0.171875 3.71875q3.390625 -4.265625 8.859375 -4.265625q9.375 0 9.453125 10.59375l0 19.546875l-5.046875 0l0 -19.578125q-0.03125 -3.203125 -1.46875 -4.734375q-1.4375 -1.53125 -4.46875 -1.53125q-2.46875 0 -4.328125 1.3125q-1.859375 1.3125 -2.890625 3.453125l0 21.078125l-5.0625 0l0 -29.59375l4.78125 0zm42.464844 29.59375l0 -25.671875l-4.671875 0l0 -3.921875l4.671875 0l0 -3.03125q0 -4.75 2.546875 -7.34375q2.546875 -2.609375 7.1875 -2.609375q1.75 0 3.484375 0.46875l-0.28125 4.09375q-1.28125 -0.234375 -2.734375 -0.234375q-2.453125 0 -3.796875 1.4375q-1.34375 1.421875 -1.34375 4.109375l0 3.109375l6.3125 0l0 3.921875l-6.3125 0l0 25.671875l-5.0625 0zm31.253906 -25.046875q-1.140625 -0.1875 -2.484375 -0.1875q-4.96875 0 -6.75 4.234375l0 21.0l-5.0625 0l0 -29.59375l4.921875 0l0.078125 3.421875q2.5 -3.96875 7.0625 -3.96875q1.46875 0 2.234375 0.390625l0 4.703125zm2.7617188 9.984375q0 -4.359375 1.703125 -7.828125q1.71875 -3.46875 4.765625 -5.359375q3.046875 -1.890625 6.96875 -1.890625q6.03125 0 9.765625 4.1875q3.734375 4.1875 3.734375 11.125l0 0.359375q0 4.328125 -1.65625 7.765625q-1.65625 3.421875 -4.734375 5.34375q-3.0625 1.90625 -7.0625 1.90625q-6.015625 0 -9.75 -4.1875q-3.734375 -4.1875 -3.734375 -11.078125l0 -0.34375zm5.09375 0.59375q0 4.921875 2.28125 7.90625q2.28125 2.984375 6.109375 2.984375q3.859375 0 6.125 -3.015625q2.265625 -3.03125 2.265625 -8.46875q0 -4.875 -2.3125 -7.890625q-2.296875 -3.03125 -6.125 -3.03125q-3.75 0 -6.046875 2.984375q-2.296875 2.984375 -2.296875 8.53125zm32.96875 -15.125l0.171875 3.71875q3.390625 -4.265625 8.859375 -4.265625q9.375 0 9.453125 10.59375l0 19.546875l-5.046875 0l0 -19.578125q-0.03125 -3.203125 -1.46875 -4.734375q-1.4375 -1.53125 -4.46875 -1.53125q-2.46875 0 -4.328125 1.3125q-1.859375 1.3125 -2.890625 3.453125l0 21.078125l-5.0625 0l0 -29.59375l4.78125 0zm32.976562 -7.15625l0 7.15625l5.53125 0l0 3.921875l-5.53125 0l0 18.34375q0 1.78125 0.734375 2.671875q0.75 0.875 2.53125 0.875q0.875 0 2.40625 -0.328125l0 4.109375q-2.0 0.546875 -3.890625 0.546875q-3.390625 0 -5.109375 -2.046875q-1.71875 -2.0625 -1.71875 -5.828125l0 -18.34375l-5.390625 0l0 -3.921875l5.390625 0l0 -7.15625l5.046875 0z" fill-rule="nonzero"/><path fill="#000000" d="m755.4513 1008.6733q0 -4.359375 1.703125 -7.828125q1.71875 -3.46875 4.765625 -5.359375q3.046875 -1.890625 6.96875 -1.890625q6.03125 0 9.765625 4.1875q3.734375 4.1875 3.734375 11.125l0 0.359375q0 4.328125 -1.65625 7.765625q-1.65625 3.421875 -4.734375 5.34375q-3.0625 1.906311 -7.0625 1.906311q-6.015625 0 -9.75 -4.187561q-3.734375 -4.1875 -3.734375 -11.078125l0 -0.34375zm5.09375 0.59375q0 4.921875 2.28125 7.90625q2.28125 2.984375 6.109375 2.984375q3.859375 0 6.125 -3.015625q2.265625 -3.03125 2.265625 -8.46875q0 -4.875 -2.3125 -7.890625q-2.296875 -3.03125 -6.125 -3.03125q-3.75 0 -6.046875 2.984375q-2.296875 2.984375 -2.296875 8.53125zm30.671875 14.46875l0 -25.671875l-4.671875 0l0 -3.921875l4.671875 0l0 -3.03125q0 -4.75 2.546875 -7.34375q2.546875 -2.609375 7.1875 -2.609375q1.75 0 3.484375 0.46875l-0.28125 4.09375q-1.28125 -0.234375 -2.734375 -0.234375q-2.453125 0 -3.796875 1.4375q-1.34375 1.421875 -1.34375 4.109375l0 3.109375l6.3125 0l0 3.921875l-6.3125 0l0 25.671875l-5.0625 0zm45.117188 -25.046875q-1.140625 -0.1875 -2.484375 -0.1875q-4.96875 0 -6.75 4.234375l0 21.0l-5.0625 0l0 -29.59375l4.921875 0l0.078125 3.421875q2.5 -3.96875 7.0625 -3.96875q1.46875 0 2.234375 0.390625l0 4.703125zm2.7617188 9.984375q0 -4.359375 1.703125 -7.828125q1.71875 -3.46875 4.765625 -5.359375q3.046875 -1.890625 6.96875 -1.890625q6.03125 0 9.765625 4.1875q3.734375 4.1875 3.734375 11.125l0 0.359375q0 4.328125 -1.65625 7.765625q-1.65625 3.421875 -4.734375 5.34375q-3.0625 1.906311 -7.0625 1.906311q-6.015625 0 -9.75 -4.187561q-3.734375 -4.1875 -3.734375 -11.078125l0 -0.34375zm5.09375 0.59375q0 4.921875 2.28125 7.90625q2.28125 2.984375 6.109375 2.984375q3.859375 0 6.125 -3.015625q2.265625 -3.03125 2.265625 -8.46875q0 -4.875 -2.3125 -7.890625q-2.296875 -3.03125 -6.125 -3.03125q-3.75 0 -6.046875 2.984375q-2.296875 2.984375 -2.296875 8.53125zm53.234375 0q0 6.78125 -3.125 10.90625q-3.109375 4.109436 -8.359375 4.109436q-5.609375 0 -8.671875 -3.968811l-0.234375 3.421875l-4.65625 0l0 -42.0l5.0625 0l0 15.671875q3.0625 -3.8125 8.4375 -3.8125q5.390625 0 8.46875 4.078125q3.078125 4.078125 3.078125 11.15625l0 0.4375zm-5.0625 -0.578125q0 -5.15625 -2.0 -7.96875q-1.984375 -2.828125 -5.734375 -2.828125q-5.0 0 -7.1875 4.65625l0 12.796875q2.328125 4.640625 7.25 4.640625q3.625 0 5.640625 -2.8125q2.03125 -2.8125 2.03125 -8.484375zm10.089844 -0.015625q0 -4.359375 1.703125 -7.828125q1.71875 -3.46875 4.765625 -5.359375q3.046875 -1.890625 6.96875 -1.890625q6.03125 0 9.765625 4.1875q3.734375 4.1875 3.734375 11.125l0 0.359375q0 4.328125 -1.65625 7.765625q-1.65625 3.421875 -4.734375 5.34375q-3.0625 1.906311 -7.0625 1.906311q-6.015625 0 -9.75 -4.187561q-3.734375 -4.1875 -3.734375 -11.078125l0 -0.34375zm5.09375 0.59375q0 4.921875 2.28125 7.90625q2.28125 2.984375 6.109375 2.984375q3.859375 0 6.125 -3.015625q2.265625 -3.03125 2.265625 -8.46875q0 -4.875 -2.3125 -7.890625q-2.296875 -3.03125 -6.125 -3.03125q-3.75 0 -6.046875 2.984375q-2.296875 2.984375 -2.296875 8.53125zm35.046875 -22.28125l0 7.15625l5.53125 0l0 3.921875l-5.53125 0l0 18.34375q0 1.78125 0.734375 2.671875q0.75 0.875 2.53125 0.875q0.875 0 2.40625 -0.328125l0 4.109375q-2.0 0.54693604 -3.890625 0.54693604q-3.390625 0 -5.109375 -2.046936q-1.71875 -2.0625 -1.71875 -5.828125l0 -18.34375l-5.390625 0l0 -3.921875l5.390625 0l0 -7.15625l5.046875 0z" fill-rule="nonzero"/></g></svg>