<svg version="1.1" viewBox="0.0 0.0 523.3333333333334 507.4671916010499" fill="none" stroke="none" stroke-linecap="square" stroke-miterlimit="10" xmlns:xlink="http://www.w3.org/1999/xlink" xmlns="http://www.w3.org/2000/svg"><clipPath id="p.0"><path d="m0 0l523.3333 0l0 507.4672l-523.3333 0l0 -507.4672z" clip-rule="nonzero"/></clipPath><g clip-path="url(#p.0)"><path fill="#000000" fill-opacity="0.0" d="m0 0l523.3333 0l0 507.4672l-523.3333 0z" fill-rule="evenodd"/><path fill="#ffffff" d="m0.0131233595 0.002624672l523.30707 0l0 507.46457l-523.30707 0z" fill-rule="evenodd"/><path fill="#000000" fill-opacity="0.0" d="m63.61042 268.3357l0 0c0 -119.53702 96.91096 -216.44093 216.4567 -216.44093l0 0c57.407898 0 112.46451 22.803535 153.05801 63.39408c40.593475 40.590553 63.39868 95.64315 63.39868 153.04684l0 0c0 119.53705 -96.91095 216.44095 -216.4567 216.44095l0 0c-119.54573 0 -216.4567 -96.9039 -216.4567 -216.44095z" fill-rule="evenodd"/><path stroke="#000000" stroke-width="1.0" stroke-linejoin="round" stroke-linecap="butt" stroke-dasharray="1.0,3.0" d="m63.61042 268.3357l0 0c0 -119.53702 96.91096 -216.44093 216.4567 -216.44093l0 0c57.407898 0 112.46451 22.803535 153.05801 63.39408c40.593475 40.590553 63.39868 95.64315 63.39868 153.04684l0 0c0 119.53705 -96.91095 216.44095 -216.4567 216.44095l0 0c-119.54573 0 -216.4567 -96.9039 -216.4567 -216.44095z" fill-rule="evenodd"/><path fill="#fff8e2" d="m211.34674 64.441l0 0c22.473007 -8.237476 46.16983 -12.484455 70.056244 -12.55558l0.61013794 212.18806z" fill-rule="evenodd"/><path fill="#fff8e2" d="m281.39505 51.88543l0 0c24.456879 -0.0722847 48.73578 4.1461563 71.726746 12.462448l-71.10867 195.45792z" fill-rule="evenodd"/><path fill="#000000" fill-opacity="0.0" d="m232.38797 131.11534l0 0c16.111053 -5.59964 33.082275 -8.31868 50.13629 -8.0325775l-2.4370728 145.2709z" fill-rule="evenodd"/><path fill="#000000" fill-opacity="0.0" d="m232.38797 131.11534l0 0c16.111053 -5.59964 33.082275 -8.31868 50.13629 -8.0325775" fill-rule="evenodd"/><path stroke="#000000" stroke-width="1.0" stroke-linejoin="round" stroke-linecap="butt" d="m234.7308 130.32352l0.6878662 -0.22433472c1.0134735 -0.32743835 2.0301056 -0.64360046 3.0497284 -0.94844055c2.0392456 -0.60969543 4.0904083 -1.1741409 6.151993 -1.6930771c4.123123 -1.0378876 8.287888 -1.8937912 12.482086 -2.5657654c8.388458 -1.343956 16.894775 -1.9521866 25.421814 -1.8091278" fill-rule="evenodd"/><path fill="#000000" stroke="#000000" stroke-width="1.0" stroke-linecap="butt" d="m234.73082 130.32352l0.36289978 -0.73342896l-1.320816 1.0571747l1.6913452 0.039154053z" fill-rule="evenodd"/><path fill="#d9d9d9" d="m196.95926 195.69089l0 72.64566l0 0c0 40.121094 37.22029 72.64566 83.13385 72.64566c45.913574 0 83.13388 -32.524567 83.13388 -72.64566l0 -72.64566z" fill-rule="evenodd"/><path stroke="#000000" stroke-width="3.0" stroke-linejoin="round" stroke-linecap="butt" d="m196.95926 195.69089l0 72.64566l0 0c0 40.121094 37.22029 72.64566 83.13385 72.64566c45.913574 0 83.13388 -32.524567 83.13388 -72.64566l0 -72.64566z" fill-rule="evenodd"/><path fill="#000000" fill-opacity="0.0" d="m282.53543 269.6168l-73.60629 -207.18109" fill-rule="evenodd"/><path stroke="#000000" stroke-width="2.0" stroke-linejoin="round" stroke-linecap="butt" d="m282.53543 269.6168l-73.60629 -207.18109" fill-rule="evenodd"/><path fill="#000000" fill-opacity="0.0" d="m291.72964 42.183727l-52.34645 0l0 50.110233l52.34645 0z" fill-rule="evenodd"/><path fill="#000000" d="m266.14868 67.57372q0 2.75 -0.9375 4.09375q-0.9375 1.328125 -2.9375 1.328125q-1.96875 0 -2.921875 -1.296875q-0.953125 -1.3125 -0.984375 -3.921875l0 -2.078125q0 -2.7187462 0.9375 -4.031246q0.9375 -1.328125 2.953125 -1.328125q1.984375 0 2.921875 1.28125q0.9375 1.265625 0.96875 3.9218712l0 2.03125zm-1.5625 -2.140625q0 -1.9999962 -0.5625 -2.9062462q-0.5625 -0.90625 -1.765625 -0.90625q-1.203125 0 -1.75 0.90625q-0.546875 0.90625 -0.578125 2.7812462l0 2.5q0 2.0 0.578125 2.953125q0.59375 0.953125 1.765625 0.953125q1.15625 0 1.71875 -0.890625q0.5625 -0.90625 0.59375 -2.828125l0 -2.5625z" fill-rule="nonzero"/><path fill="#000000" d="m267.64447 63.21435q0 -0.890625 0.34375 -1.609375q0.359375 -0.71875 0.984375 -1.109375q0.625 -0.390625 1.4375 -0.390625q1.25 0 2.015625 0.875q0.765625 0.859375 0.765625 2.28125l0 0.078125q0 0.8906212 -0.34375 1.6093712q-0.328125 0.703125 -0.96875 1.09375q-0.640625 0.390625 -1.453125 0.390625q-1.25 0 -2.015625 -0.859375q-0.765625 -0.859375 -0.765625 -2.2812462l0 -0.078125zm1.046875 0.125q0 1.0156212 0.46875 1.6406212q0.46875 0.609375 1.265625 0.609375q0.796875 0 1.265625 -0.625q0.46875 -0.625 0.46875 -1.7499962q0 -1.0 -0.484375 -1.625q-0.46875 -0.625 -1.265625 -0.625q-0.765625 0 -1.25 0.625q-0.46875 0.609375 -0.46875 1.75z" fill-rule="nonzero"/><path fill="#000000" fill-opacity="0.0" d="m353.7349 65.6168l-73.60629 204.0" fill-rule="evenodd"/><path stroke="#000000" stroke-width="2.0" stroke-linejoin="round" stroke-linecap="butt" d="m353.7349 65.6168l-73.60629 204.0" fill-rule="evenodd"/><path fill="#000000" fill-opacity="0.0" d="m272.2966 47.03281l73.95273 0l0 40.40945l-73.95273 0z" fill-rule="evenodd"/><path fill="#000000" d="m293.69583 72.672806l-1.578125 0l0 -10.437496l-3.15625 1.171875l0 -1.421875l4.484375 -1.6875l0.25 0l0 12.374996zm4.7770386 -0.828125q0 -0.40625 0.234375 -0.671875q0.25 -0.265625 0.734375 -0.265625q0.484375 0 0.734375 0.265625q0.25 0.265625 0.25 0.671875q0 0.390625 -0.25 0.65625q-0.25 0.265625 -0.734375 0.265625q-0.484375 0 -0.734375 -0.265625q-0.234375 -0.265625 -0.234375 -0.65625zm5.091736 -5.34375l0.625 -6.140621l6.3125 0l0 1.4375l-4.984375 0l-0.375 3.3593712q0.90625 -0.53125 2.046875 -0.53125q1.6875 0 2.671875 1.109375q1.0 1.109375 1.0 3.015625q0 1.90625 -1.03125 3.0q-1.03125 1.09375 -2.875 1.09375q-1.625 0 -2.65625 -0.90625q-1.03125 -0.90625 -1.1875 -2.5l1.484375 0q0.140625 1.046875 0.75 1.59375q0.609375 0.53125 1.609375 0.53125q1.09375 0 1.71875 -0.734375q0.625 -0.75 0.625 -2.0625q0 -1.234375 -0.671875 -1.984375q-0.671875 -0.75 -1.796875 -0.75q-1.015625 0 -1.609375 0.453125l-0.40625 0.328125l-1.25 -0.3125zm14.926117 -2.9843712l0.046875 1.0156212q1.0 -1.1874962 2.71875 -1.1874962q1.90625 0 2.609375 1.4687462q0.453125 -0.65625 1.1875 -1.0624962q0.734375 -0.40625 1.734375 -0.40625q3.0 0 3.0625 3.1874962l0 6.140625l-1.5625 0l0 -6.046875q0 -0.96875 -0.453125 -1.453125q-0.453125 -0.5 -1.515625 -0.5q-0.859375 0 -1.4375 0.53125q-0.578125 0.515625 -0.671875 1.390625l0 6.078125l-1.578125 0l0 -6.0q0 -2.0 -1.953125 -2.0q-1.53125 0 -2.109375 1.3125l0 6.6875l-1.5625 0l0 -9.156246l1.484375 0z" fill-rule="nonzero"/><path fill="#000000" fill-opacity="0.0" d="m225.4147 86.1601l56.59842 0l0 42.015755l-56.59842 0z" fill-rule="evenodd"/><path fill="#000000" d="m249.4883 113.0801l-8.6875 0l0 -1.21875l4.578125 -5.09375q1.03125 -1.15625 1.40625 -1.875q0.390625 -0.734375 0.390625 -1.5q0 -1.046875 -0.625 -1.703125q-0.625 -0.671875 -1.671875 -0.671875q-1.265625 0 -1.96875 0.71875q-0.6875 0.71875 -0.6875 1.984375l-1.6875 0q0 -1.828125 1.171875 -2.953125q1.1875 -1.140625 3.171875 -1.140625q1.84375 0 2.921875 0.984375q1.078125 0.96875 1.078125 2.578125q0 1.953125 -2.5 4.65625l-3.546875 3.859375l6.65625 0l0 1.375zm10.100906 -5.65625q0 2.953125 -1.015625 4.40625q-1.015625 1.4375 -3.1562347 1.4375q-2.125 0 -3.15625 -1.40625q-1.015625 -1.40625 -1.046875 -4.203125l0 -2.25q0 -2.9375 1.0 -4.359375q1.015625 -1.421875 3.1875 -1.421875q2.1406097 0 3.1406097 1.375q1.015625 1.375 1.046875 4.234375l0 2.1875zm-1.6875 -2.3125q0 -2.140625 -0.609375 -3.109375q-0.59375 -0.984375 -1.8906097 -0.984375q-1.296875 0 -1.890625 0.984375q-0.59375 0.96875 -0.609375 2.984375l0 2.703125q0 2.140625 0.625 3.171875q0.625 1.03125 1.890625 1.03125q1.2499847 0 1.8437347 -0.96875q0.609375 -0.96875 0.640625 -3.046875l0 -2.765625z" fill-rule="nonzero"/><path fill="#000000" d="m261.19012 102.73635q0 -0.96875 0.375 -1.734375q0.390625 -0.78125 1.0625 -1.1875q0.6875 -0.421875 1.546875 -0.421875q1.34375 0 2.171875 0.9375q0.828125 0.921875 0.828125 2.453125l0 0.078125q0 0.96875 -0.375 1.734375q-0.359375 0.75 -1.046875 1.1875q-0.671875 0.421875 -1.5625 0.421875q-1.34375 0 -2.171875 -0.921875q-0.828125 -0.9375 -0.828125 -2.46875l0 -0.078125zm1.140625 0.125q0 1.09375 0.5 1.765625q0.515625 0.65625 1.359375 0.65625q0.859375 0 1.359375 -0.671875q0.5 -0.671875 0.5 -1.875q0 -1.078125 -0.515625 -1.75q-0.5 -0.671875 -1.359375 -0.671875q-0.828125 0 -1.34375 0.65625q-0.5 0.65625 -0.5 1.890625z" fill-rule="nonzero"/><path fill="#000000" fill-opacity="0.0" d="m342.55643 123.78609l73.95276 0l0 42.015747l-73.95276 0z" fill-rule="evenodd"/><path fill="#000000" d="m363.81924 143.25296l1.265625 0q1.203125 -0.015625 1.875 -0.625q0.6875 -0.609375 0.6875 -1.65625q0 -2.328125 -2.3125 -2.328125q-1.09375 0 -1.75 0.625q-0.65625 0.625 -0.65625 1.65625l-1.6875 0q0 -1.578125 1.15625 -2.625q1.15625 -1.046875 2.9375 -1.046875q1.875 0 2.9375 1.0q1.0625 1.0 1.0625 2.765625q0 0.859375 -0.5625 1.671875q-0.5625 0.8125 -1.515625 1.203125q1.09375 0.359375 1.6875 1.15625q0.59375 0.796875 0.59375 1.953125q0 1.796875 -1.171875 2.84375q-1.15625 1.046875 -3.03125 1.046875q-1.859375 0 -3.03125 -1.015625q-1.171875 -1.015625 -1.171875 -2.671875l1.6875 0q0 1.046875 0.6875 1.6875q0.6875 0.625 1.828125 0.625q1.21875 0 1.859375 -0.640625q0.65625 -0.640625 0.65625 -1.828125q0 -1.15625 -0.71875 -1.78125q-0.703125 -0.625 -2.046875 -0.640625l-1.265625 0l0 -1.375zm15.147797 3.0l1.84375 0l0 1.375l-1.84375 0l0 3.078125l-1.703125 0l0 -3.078125l-6.03125 0l0 -1.0l5.9375 -9.1875l1.796875 0l0 8.8125zm-5.828125 0l4.125 0l0 -6.5l-0.1875 0.359375l-3.9375 6.140625zm17.507172 -1.203125q0 2.953125 -1.015625 4.40625q-1.015625 1.4375 -3.15625 1.4375q-2.125 0 -3.15625 -1.40625q-1.015625 -1.40625 -1.046875 -4.203125l0 -2.25q0 -2.9375 1.0 -4.359375q1.015625 -1.421875 3.1875 -1.421875q2.140625 0 3.140625 1.375q1.015625 1.375 1.046875 4.234375l0 2.1875zm-1.6875 -2.3125q0 -2.140625 -0.609375 -3.109375q-0.59375 -0.984375 -1.890625 -0.984375q-1.296875 0 -1.890625 0.984375q-0.59375 0.96875 -0.609375 2.984375l0 2.703125q0 2.140625 0.625 3.171875q0.625 1.03125 1.890625 1.03125q1.25 0 1.84375 -0.96875q0.609375 -0.96875 0.640625 -3.046875l0 -2.765625z" fill-rule="nonzero"/><path fill="#000000" d="m392.247 140.36234q0 -0.96875 0.375 -1.734375q0.390625 -0.78125 1.0625 -1.1875q0.6875 -0.421875 1.546875 -0.421875q1.34375 0 2.171875 0.9375q0.828125 0.921875 0.828125 2.453125l0 0.078125q0 0.96875 -0.375 1.734375q-0.359375 0.75 -1.046875 1.1875q-0.671875 0.421875 -1.5625 0.421875q-1.34375 0 -2.171875 -0.921875q-0.828125 -0.9375 -0.828125 -2.46875l0 -0.078125zm1.140625 0.125q0 1.09375 0.5 1.765625q0.515625 0.65625 1.359375 0.65625q0.859375 0 1.359375 -0.671875q0.5 -0.671875 0.5 -1.875q0 -1.078125 -0.515625 -1.75q-0.5 -0.671875 -1.359375 -0.671875q-0.828125 0 -1.34375 0.65625q-0.5 0.65625 -0.5 1.890625z" fill-rule="nonzero"/><path fill="#000000" fill-opacity="0.0" d="m328.68472 140.86879l0 0c66.12045 25.214966 101.989044 96.796555 82.607025 164.85567c-19.382019 68.05911 -87.58096 110.00412 -157.06528 96.60129c-69.484314 -13.402832 -117.189285 -77.70459 -109.866745 -148.08986c7.3225555 -70.38527 67.241974 -123.490295 137.99715 -122.30328l-2.2886353 136.42174z" fill-rule="evenodd"/><path fill="#000000" fill-opacity="0.0" d="m328.68472 140.86879l0 0c66.12045 25.214966 101.989044 96.796555 82.607025 164.85567c-19.382019 68.05911 -87.58096 110.00412 -157.06528 96.60129c-69.484314 -13.402832 -117.189285 -77.70459 -109.866745 -148.08986c7.3225555 -70.38527 67.241974 -123.490295 137.99715 -122.30328" fill-rule="evenodd"/><path stroke="#000000" stroke-width="1.0" stroke-linejoin="round" stroke-linecap="butt" d="m330.9875 141.77058l0.009307861 0.0036773682c0.25549316 0.10272217 0.51049805 0.20613098 0.7650757 0.31025696c1.01828 0.4164276 2.0290527 0.84399414 3.032257 1.282486c2.0064087 0.87701416 3.9825134 1.79776 5.927582 2.7607574c3.8900757 1.9260101 7.655884 4.020935 11.29129 6.272629c7.270874 4.5033875 14.020233 9.63382 20.199219 15.2938385c12.358032 11.320068 22.434723 24.7585 29.839447 39.535843c14.809418 29.554642 18.931122 64.46481 9.240082 98.494385c-19.382019 68.05914 -87.58096 110.00415 -157.06526 96.60129c-69.484314 -13.402832 -117.1893 -77.70459 -109.866745 -148.08986c7.322525 -70.38527 67.24196 -123.49028 137.99716 -122.30328" fill-rule="evenodd"/><path fill="#000000" stroke="#000000" stroke-width="1.0" stroke-linecap="butt" d="m330.9875 141.77057l0.7497864 -0.3277893l-1.6912842 -0.040908813l1.2692871 1.1184845z" fill-rule="evenodd"/><path fill="#000000" fill-opacity="0.0" d="m282.0118 272.6614l0 -243.49605" fill-rule="evenodd"/><path stroke="#000000" stroke-width="1.0" stroke-linejoin="round" stroke-linecap="butt" stroke-dasharray="8.0,3.0" d="m282.0118 268.8714l0 -233.70604" fill-rule="evenodd"/><path fill="#000000" stroke="#000000" stroke-width="1.0" stroke-linecap="butt" d="m283.6568 268.87143l0 3.289978l-3.289978 0l0 -3.289978l3.289978 0z" fill-rule="nonzero"/><path fill="#000000" stroke="#000000" stroke-width="1.0" stroke-linecap="butt" d="m283.66354 35.165356l-1.6517334 -4.5380993l-1.6517334 4.5380993z" fill-rule="evenodd"/><path fill="#000000" fill-opacity="0.0" d="m236.37401 0l91.27559 0l0 37.165356l-91.27559 0z" fill-rule="evenodd"/><path fill="#000000" d="m279.02255 17.48625l2.90625 0l0 1.25l-2.90625 0l0 3.296875l-1.328125 0l0 -3.296875l-2.90625 0l0 -1.25l2.90625 0l0 -3.03125l1.328125 0l0 3.03125zm7.1054077 0.671875l1.71875 -2.828125l1.546875 0l-2.53125 3.828125l2.609375 3.921875l-1.53125 0l-1.78125 -2.890625l-1.796875 2.890625l-1.53125 0l2.609375 -3.921875l-2.53125 -3.828125l1.53125 0l1.6875 2.828125z" fill-rule="nonzero"/><path fill="#000000" fill-opacity="0.0" d="m-17.783464 252.4252l91.27559 0l0 37.165344l-91.27559 0z" fill-rule="evenodd"/><path fill="#000000" d="m25.029669 269.91144l2.90625 0l0 1.25l-2.90625 0l0 3.296875l-1.328125 0l0 -3.296875l-2.90625 0l0 -1.25l2.90625 0l0 -3.03125l1.328125 0l0 3.03125zm7.042921 3.65625l1.8125 -5.8125l1.40625 0l-3.109375 8.9375q-0.7187481 1.9375 -2.296873 1.9375l-0.25 -0.015625l-0.5 -0.09375l0 -1.078125l0.359375 0.03125q0.671875 0 1.046875 -0.28125q0.390625 -0.265625 0.625 -0.984375l0.296875 -0.78125l-2.765625 -7.671875l1.453125 0l1.9218731 5.8125z" fill-rule="nonzero"/><path fill="#000000" fill-opacity="0.0" d="m280.1286 271.0079l-240.62991 0" fill-rule="evenodd"/><path stroke="#000000" stroke-width="1.0" stroke-linejoin="round" stroke-linecap="butt" stroke-dasharray="8.0,3.0" d="m276.3386 271.0079l-230.8399 0" fill-rule="evenodd"/><path fill="#000000" stroke="#000000" stroke-width="1.0" stroke-linecap="butt" d="m276.33862 269.36288l3.289978 0l0 3.2900085l-3.289978 0l0 -3.2900085z" fill-rule="nonzero"/><path fill="#000000" stroke="#000000" stroke-width="1.0" stroke-linecap="butt" d="m45.498688 269.35617l-4.5380974 1.6517334l4.5380974 1.6517334z" fill-rule="evenodd"/><path fill="#ffffff" d="m304.67584 264.07364l0 0c0 -12.454666 -10.1458435 -22.551178 -22.661407 -22.551178l0 0c-6.010193 0 -11.7742 2.3759308 -16.024048 6.6050873c-4.2498474 4.2291718 -6.6373596 9.965164 -6.6373596 15.946091l0 0c0 12.454681 10.1458435 22.551178 22.661407 22.551178l0 0c12.515564 0 22.661407 -10.096497 22.661407 -22.551178z" fill-rule="evenodd"/><path stroke="#000000" stroke-width="4.0" stroke-linejoin="round" stroke-linecap="butt" d="m304.67584 264.07364l0 0c0 -12.454666 -10.1458435 -22.551178 -22.661407 -22.551178l0 0c-6.010193 0 -11.7742 2.3759308 -16.024048 6.6050873c-4.2498474 4.2291718 -6.6373596 9.965164 -6.6373596 15.946091l0 0c0 12.454681 10.1458435 22.551178 22.661407 22.551178l0 0c12.515564 0 22.661407 -10.096497 22.661407 -22.551178z" fill-rule="evenodd"/><path fill="#ff40cc" d="m291.72968 154.28142l0 0c0 -5.34021 -4.3502502 -9.669296 -9.716553 -9.669296l0 0c-2.5769653 0 -5.048401 1.0187225 -6.8706055 2.832077c-1.8222046 1.8133392 -2.8459167 4.272766 -2.8459167 6.837219l0 0c0 5.3401947 4.3502502 9.669281 9.716522 9.669281l0 0c5.3663025 0 9.716553 -4.3290863 9.716553 -9.669281z" fill-rule="evenodd"/><path stroke="#000000" stroke-width="2.0" stroke-linejoin="round" stroke-linecap="butt" d="m291.72968 154.28142l0 0c0 -5.34021 -4.3502502 -9.669296 -9.716553 -9.669296l0 0c-2.5769653 0 -5.048401 1.0187225 -6.8706055 2.832077c-1.8222046 1.8133392 -2.8459167 4.272766 -2.8459167 6.837219l0 0c0 5.3401947 4.3502502 9.669281 9.716522 9.669281l0 0c5.3663025 0 9.716553 -4.3290863 9.716553 -9.669281z" fill-rule="evenodd"/></g></svg>