<svg version="1.1" viewBox="0.0 0.0 483.3097112860892 463.95800524934384" fill="none" stroke="none" stroke-linecap="square" stroke-miterlimit="10" xmlns:xlink="http://www.w3.org/1999/xlink" xmlns="http://www.w3.org/2000/svg"><clipPath id="p.0"><path d="m0 0l483.30972 0l0 463.958l-483.30972 0l0 -463.958z" clip-rule="nonzero"/></clipPath><g clip-path="url(#p.0)"><path fill="#000000" fill-opacity="0.0" d="m0 0l483.30972 0l0 463.958l-483.30972 0z" fill-rule="evenodd"/><path fill="#ffffff" d="m0.0131233595 0.002624672l483.3071 0l0 463.9685l-483.3071 0z" fill-rule="evenodd"/><path fill="#fff8e2" d="m115.06274 109.726944l0 0c36.75138 -36.73201 86.54244 -57.432365 138.50284 -57.58177l0.5656738 196.72359z" fill-rule="evenodd"/><path fill="#e6efff" d="m253.55957 52.145226l0 0c52.2446 -0.15530014 102.40524 20.477661 139.41959 57.34854l-138.8348 139.375z" fill-rule="evenodd"/><path fill="#000000" fill-opacity="0.0" d="m57.406715 248.86874l0 0c0 -108.63919 88.076515 -196.70866 196.7244 -196.70866l0 0c52.174576 0 102.21217 20.724602 139.10518 57.61463c36.892975 36.890038 57.619232 86.92365 57.619232 139.09402l0 0c0 108.63919 -88.07651 196.70865 -196.72441 196.70865l0 0c-108.64789 0 -196.7244 -88.06946 -196.7244 -196.70865z" fill-rule="evenodd"/><path stroke="#000000" stroke-width="1.0" stroke-linejoin="round" stroke-linecap="butt" stroke-dasharray="1.0,3.0" d="m57.406715 248.86874l0 0c0 -108.63919 88.076515 -196.70866 196.7244 -196.70866l0 0c52.174576 0 102.21217 20.724602 139.10518 57.61463c36.892975 36.890038 57.619232 86.92365 57.619232 139.09402l0 0c0 108.63919 -88.07651 196.70865 -196.72441 196.70865l0 0c-108.64789 0 -196.7244 -88.06946 -196.7244 -196.70865z" fill-rule="evenodd"/><path fill="#000000" fill-opacity="0.0" d="m152.61118 144.93764l0 0c26.596832 -25.982132 62.14258 -40.778854 99.31976 -41.344086l2.208725 145.27455z" fill-rule="evenodd"/><path fill="#000000" fill-opacity="0.0" d="m152.61118 144.93764l0 0c26.596832 -25.982132 62.14258 -40.778854 99.31976 -41.344086" fill-rule="evenodd"/><path stroke="#000000" stroke-width="1.0" stroke-linejoin="round" stroke-linecap="butt" d="m154.39508 143.22485l0.10084534 -0.09561157c0.21102905 -0.1988678 0.42259216 -0.3970642 0.6347046 -0.5945587c0.84840393 -0.79000854 1.7053223 -1.568985 2.5705414 -2.3368683c1.730423 -1.5357513 3.4940338 -3.027069 5.2890015 -4.4732056c3.5899658 -2.8922882 7.3054657 -5.603836 11.132217 -8.128708c7.653488 -5.0497665 15.751938 -9.352844 24.18103 -12.861649c16.8582 -7.0175934 35.03894 -10.858086 53.627518 -11.140709" fill-rule="evenodd"/><path fill="#000000" stroke="#000000" stroke-width="1.0" stroke-linecap="butt" d="m154.39508 143.22485l0.01663208 -0.8181305l-0.7460022 1.5184326l1.5475006 -0.68367004z" fill-rule="evenodd"/><path fill="#d9d9d9" d="m171.01175 176.20532l0 72.64566l0 0c0 40.121094 37.220306 72.64566 83.133865 72.64566c45.91356 0 83.133865 -32.524567 83.133865 -72.64566l0 -72.64566z" fill-rule="evenodd"/><path stroke="#000000" stroke-width="3.0" stroke-linejoin="round" stroke-linecap="butt" d="m171.01175 176.20532l0 72.64566l0 0c0 40.121094 37.220306 72.64566 83.133865 72.64566c45.91356 0 83.133865 -32.524567 83.133865 -72.64566l0 -72.64566z" fill-rule="evenodd"/><path fill="#000000" fill-opacity="0.0" d="m254.23856 248.98732l-139.21259 -139.21262" fill-rule="evenodd"/><path stroke="#000000" stroke-width="2.0" stroke-linejoin="round" stroke-linecap="butt" d="m254.23856 248.98732l-139.21259 -139.21262" fill-rule="evenodd"/><path fill="#000000" fill-opacity="0.0" d="m291.12097 40.608074l-73.95274 0l0 50.11024l73.95274 0z" fill-rule="evenodd"/><path fill="#000000" d="m239.91823 65.99808q0 2.75 -0.9375 4.09375q-0.9375 1.328125 -2.9375 1.328125q-1.96875 0 -2.921875 -1.296875q-0.953125 -1.3125 -0.984375 -3.921875l0 -2.078125q0 -2.7187538 0.9375 -4.031254q0.9375 -1.328125 2.953125 -1.328125q1.984375 0 2.921875 1.28125q0.9375 1.265625 0.96875 3.921875l0 2.0312538zm-1.5625 -2.1406288q0 -2.0 -0.5625 -2.90625q-0.5625 -0.90625 -1.765625 -0.90625q-1.203125 0 -1.75 0.90625q-0.546875 0.90625 -0.578125 2.78125l0 2.5000038q0 2.0 0.578125 2.953125q0.59375 0.953125 1.765625 0.953125q1.15625 0 1.71875 -0.890625q0.5625 -0.90625 0.59375 -2.828125l0 -2.5625038z" fill-rule="nonzero"/><path fill="#000000" d="m241.414 61.6387q0 -0.890625 0.34375 -1.609375q0.359375 -0.71875 0.984375 -1.109375q0.625 -0.390625 1.4375 -0.390625q1.25 0 2.015625 0.875q0.765625 0.859375 0.765625 2.28125l0 0.078125q0 0.890625 -0.34375 1.609375q-0.328125 0.7031288 -0.96875 1.0937538q-0.640625 0.390625 -1.453125 0.390625q-1.25 0 -2.015625 -0.8593788q-0.765625 -0.859375 -0.765625 -2.28125l0 -0.078125zm1.046875 0.125q0 1.015625 0.46875 1.640625q0.46875 0.6093788 1.265625 0.6093788q0.796875 0 1.265625 -0.6250038q0.46875 -0.625 0.46875 -1.75q0 -1.0 -0.484375 -1.625q-0.46875 -0.625 -1.265625 -0.625q-0.765625 0 -1.25 0.625q-0.46875 0.609375 -0.46875 1.75z" fill-rule="nonzero"/><path fill="#000000" fill-opacity="0.0" d="m393.2363 109.77471l-138.58269 139.08661" fill-rule="evenodd"/><path stroke="#000000" stroke-width="2.0" stroke-linejoin="round" stroke-linecap="butt" d="m393.2363 109.77471l-138.58269 139.08661" fill-rule="evenodd"/><path fill="#000000" fill-opacity="0.0" d="m244.4147 45.458004l73.95276 0l0 40.40945l-73.95276 0z" fill-rule="evenodd"/><path fill="#000000" d="m265.81393 71.09801l-1.578125 0l0 -10.437504l-3.15625 1.171875l0 -1.421875l4.484375 -1.6875l0.25 0l0 12.375004zm4.7770386 -0.828125q0 -0.40625 0.234375 -0.671875q0.25 -0.265625 0.734375 -0.265625q0.484375 0 0.734375 0.265625q0.25 0.265625 0.25 0.671875q0 0.390625 -0.25 0.65625q-0.25 0.265625 -0.734375 0.265625q-0.484375 0 -0.734375 -0.265625q-0.234375 -0.265625 -0.234375 -0.65625zm12.091736 -4.421875q0 2.75 -0.9375 4.09375q-0.9375 1.328125 -2.9375 1.328125q-1.96875 0 -2.921875 -1.296875q-0.953125 -1.3125 -0.984375 -3.921875l0 -2.0781288q0 -2.71875 0.9375 -4.03125q0.9375 -1.328125 2.953125 -1.328125q1.984375 0 2.921875 1.28125q0.9375 1.265625 0.96875 3.921875l0 2.0312538zm-1.5625 -2.1406288q0 -2.0 -0.5625 -2.90625q-0.5625 -0.90625 -1.765625 -0.90625q-1.203125 0 -1.75 0.90625q-0.546875 0.90625 -0.578125 2.78125l0 2.5000038q0 2.0 0.578125 2.953125q0.59375 0.953125 1.765625 0.953125q1.15625 0 1.71875 -0.890625q0.5625 -0.90625 0.59375 -2.828125l0 -2.5625038zm9.488617 -1.765625l0.046875 1.015625q1.0 -1.1875 2.71875 -1.1875q1.90625 0 2.609375 1.46875q0.453125 -0.65625 1.1875 -1.0625q0.734375 -0.40625 1.734375 -0.40625q3.0 0 3.0625 3.1875038l0 6.140625l-1.5625 0l0 -6.046875q0 -0.96875 -0.453125 -1.4531288q-0.453125 -0.5 -1.515625 -0.5q-0.859375 0 -1.4375 0.53125q-0.578125 0.5156288 -0.671875 1.3906288l0 6.078125l-1.578125 0l0 -6.0q0 -2.0000038 -1.953125 -2.0000038q-1.53125 0 -2.109375 1.3125038l0 6.6875l-1.5625 0l0 -9.156254l1.484375 0z" fill-rule="nonzero"/><path fill="#000000" fill-opacity="0.0" d="m126.78215 94.1601l73.95276 0l0 42.015755l-73.95276 0z" fill-rule="evenodd"/><path fill="#000000" d="m157.95479 116.626976l1.84375 0l0 1.375l-1.84375 0l0 3.078125l-1.703125 0l0 -3.078125l-6.03125 0l0 -1.0l5.9375 -9.1875l1.796875 0l0 8.8125zm-5.828125 0l4.125 0l0 -6.5l-0.1875 0.359375l-3.9375 6.140625zm9.960297 -2.203125l0.671875 -6.609375l6.796875 0l0 1.5625l-5.359375 0l-0.40625 3.609375q0.984375 -0.5625 2.21875 -0.5625q1.8125 0 2.875 1.203125q1.0625 1.1875 1.0625 3.21875q0 2.0625 -1.109375 3.25q-1.09375 1.171875 -3.09375 1.171875q-1.75 0 -2.859375 -0.96875q-1.109375 -0.984375 -1.265625 -2.703125l1.59375 0q0.15625 1.140625 0.8125 1.71875q0.65625 0.578125 1.71875 0.578125q1.1875 0 1.84375 -0.796875q0.671875 -0.8125 0.671875 -2.21875q0 -1.328125 -0.71875 -2.140625q-0.71875 -0.8125 -1.921875 -0.8125q-1.109375 0 -1.734375 0.484375l-0.453125 0.375l-1.34375 -0.359375z" fill-rule="nonzero"/><path fill="#000000" d="m171.23476 110.73635q0 -0.96875 0.375 -1.734375q0.390625 -0.78125 1.0625 -1.1875q0.6875 -0.421875 1.546875 -0.421875q1.34375 0 2.171875 0.9375q0.828125 0.921875 0.828125 2.453125l0 0.078125q0 0.96875 -0.375 1.734375q-0.359375 0.75 -1.046875 1.1875q-0.671875 0.421875 -1.5625 0.421875q-1.34375 0 -2.171875 -0.921875q-0.828125 -0.9375 -0.828125 -2.46875l0 -0.078125zm1.140625 0.125q0 1.09375 0.5 1.765625q0.515625 0.65625 1.359375 0.65625q0.859375 0 1.359375 -0.671875q0.5 -0.671875 0.5 -1.875q0 -1.078125 -0.515625 -1.75q-0.5 -0.671875 -1.359375 -0.671875q-0.828125 0 -1.34375 0.65625q-0.5 0.65625 -0.5 1.890625z" fill-rule="nonzero"/><path fill="#000000" fill-opacity="0.0" d="m307.52756 94.15879l73.95276 0l0 42.015755l-73.95276 0z" fill-rule="evenodd"/><path fill="#000000" d="m332.68927 116.12566l-4.4375 0l0 -1.375l4.4375 0l0 1.375zm8.584351 0.5l1.84375 0l0 1.375l-1.84375 0l0 3.078125l-1.703125 0l0 -3.078125l-6.03125 0l0 -1.0l5.9375 -9.1875l1.796875 0l0 8.8125zm-5.828125 0l4.125 0l0 -6.5l-0.1875 0.359375l-3.9375 6.140625zm9.960297 -2.203125l0.671875 -6.609375l6.796875 0l0 1.5625l-5.359375 0l-0.40625 3.609375q0.984375 -0.5625 2.21875 -0.5625q1.8125 0 2.875 1.203125q1.0625 1.1875 1.0625 3.21875q0 2.0625 -1.109375 3.25q-1.09375 1.171875 -3.09375 1.171875q-1.75 0 -2.859375 -0.96875q-1.109375 -0.984375 -1.265625 -2.703125l1.59375 0q0.15625 1.140625 0.8125 1.71875q0.65625 0.578125 1.71875 0.578125q1.1875 0 1.84375 -0.796875q0.671875 -0.8125 0.671875 -2.21875q0 -1.328125 -0.71875 -2.140625q-0.71875 -0.8125 -1.921875 -0.8125q-1.109375 0 -1.734375 0.484375l-0.453125 0.375l-1.34375 -0.359375z" fill-rule="nonzero"/><path fill="#000000" d="m354.5536 110.73504q0 -0.96875 0.375 -1.734375q0.390625 -0.78125 1.0625 -1.1875q0.6875 -0.421875 1.546875 -0.421875q1.34375 0 2.171875 0.9375q0.828125 0.921875 0.828125 2.453125l0 0.078125q0 0.96875 -0.375 1.734375q-0.359375 0.75 -1.046875 1.1875q-0.671875 0.421875 -1.5625 0.421875q-1.34375 0 -2.171875 -0.921875q-0.828125 -0.9375 -0.828125 -2.46875l0 -0.078125zm1.140625 0.125q0 1.09375 0.5 1.765625q0.515625 0.65625 1.359375 0.65625q0.859375 0 1.359375 -0.671875q0.5 -0.671875 0.5 -1.875q0 -1.078125 -0.515625 -1.75q-0.5 -0.671875 -1.359375 -0.671875q-0.828125 0 -1.34375 0.65625q-0.5 0.65625 -0.5 1.890625z" fill-rule="nonzero"/><path fill="#000000" fill-opacity="0.0" d="m355.64902 144.91994l0 0c-26.596802 -25.982132 -62.14258 -40.778854 -99.31973 -41.344093l-2.2087402 145.27454z" fill-rule="evenodd"/><path fill="#000000" fill-opacity="0.0" d="m355.64902 144.91994l0 0c-26.596802 -25.982132 -62.14258 -40.778854 -99.31973 -41.344093" fill-rule="evenodd"/><path stroke="#000000" stroke-width="1.0" stroke-linejoin="round" stroke-linecap="butt" d="m353.8651 143.20714l-0.10083008 -0.09559631c-0.21099854 -0.1988678 -0.4225769 -0.3970642 -0.6346741 -0.5945587c-0.8484497 -0.79000854 -1.7053528 -1.5690002 -2.5705566 -2.3368683c-1.7304382 -1.5357513 -3.494049 -3.027069 -5.2890015 -4.4732056c-3.5899658 -2.892273 -7.305481 -5.603836 -11.132233 -8.1287155c-7.653473 -5.0497513 -15.751923 -9.352829 -24.18103 -12.861641c-16.858185 -7.0175934 -35.03894 -10.858078 -53.627502 -11.140701" fill-rule="evenodd"/><path fill="#000000" stroke="#000000" stroke-width="1.0" stroke-linecap="butt" d="m353.86514 143.20715l-0.81814575 0.01663208l1.5475159 0.6836548l-0.7460022 -1.5184326z" fill-rule="evenodd"/><path fill="#000000" fill-opacity="0.0" d="m254.1181 252.68767l0 -224.37796" fill-rule="evenodd"/><path stroke="#000000" stroke-width="1.0" stroke-linejoin="round" stroke-linecap="butt" stroke-dasharray="8.0,3.0" d="m254.1181 248.89766l0 -214.58795" fill-rule="evenodd"/><path fill="#000000" stroke="#000000" stroke-width="1.0" stroke-linecap="butt" d="m255.7631 248.89766l0 3.2900085l-3.2899933 0l0 -3.2900085l3.2899933 0z" fill-rule="nonzero"/><path fill="#000000" stroke="#000000" stroke-width="1.0" stroke-linecap="butt" d="m255.76984 34.30971l-1.6517334 -4.5380974l-1.6517181 4.5380974z" fill-rule="evenodd"/><path fill="#000000" fill-opacity="0.0" d="m208.49213 0.002624672l91.275604 0l0 37.165356l-91.275604 0z" fill-rule="evenodd"/><path fill="#000000" d="m251.14066 17.488874l2.90625 0l0 1.25l-2.90625 0l0 3.296875l-1.328125 0l0 -3.296875l-2.90625 0l0 -1.25l2.90625 0l0 -3.03125l1.328125 0l0 3.03125zm7.105438 0.671875l1.71875 -2.828125l1.546875 0l-2.53125 3.828125l2.609375 3.921875l-1.53125 0l-1.78125 -2.890625l-1.796875 2.890625l-1.5312653 0l2.6093903 -3.921875l-2.5312653 -3.828125l1.5312653 0l1.6875 2.828125z" fill-rule="nonzero"/><path fill="#000000" fill-opacity="0.0" d="m-21.166666 230.26772l91.27559 0l0 37.16536l-91.27559 0z" fill-rule="evenodd"/><path fill="#000000" d="m21.646467 247.75397l2.90625 0l0 1.25l-2.90625 0l0 3.296875l-1.328125 0l0 -3.296875l-2.90625 0l0 -1.25l2.90625 0l0 -3.03125l1.328125 0l0 3.03125zm7.042923 3.65625l1.8125 -5.8125l1.40625 0l-3.109375 8.9375q-0.71875 1.9375 -2.296875 1.9375l-0.25 -0.015625l-0.5 -0.09375l0 -1.078125l0.359375 0.03125q0.671875 0 1.046875 -0.28125q0.390625 -0.265625 0.625 -0.984375l0.296875 -0.78125l-2.765625 -7.671875l1.453125 0l1.921875 5.8125z" fill-rule="nonzero"/><path fill="#000000" fill-opacity="0.0" d="m252.10892 248.86876l-216.6929 0" fill-rule="evenodd"/><path stroke="#000000" stroke-width="1.0" stroke-linejoin="round" stroke-linecap="butt" stroke-dasharray="8.0,3.0" d="m248.31892 248.86876l-206.90291 0" fill-rule="evenodd"/><path fill="#000000" stroke="#000000" stroke-width="1.0" stroke-linecap="butt" d="m248.31892 247.22377l3.2899933 0l0 3.2899933l-3.2899933 0l0 -3.2899933z" fill-rule="nonzero"/><path fill="#000000" stroke="#000000" stroke-width="1.0" stroke-linecap="butt" d="m41.41601 247.21704l-4.5380974 1.6517181l4.5380974 1.6517334z" fill-rule="evenodd"/><path fill="#ff40cc" d="m263.84778 137.4809l0 0c0 -5.34021 -4.3502502 -9.669296 -9.716537 -9.669296l0 0c-2.5769806 0 -5.048416 1.0187225 -6.8706207 2.8320618c-1.8222046 1.8133545 -2.8459167 4.272766 -2.8459167 6.8372345l0 0c0 5.3401947 4.3502502 9.669281 9.716537 9.669281l0 0c5.366287 0 9.716537 -4.3290863 9.716537 -9.669281z" fill-rule="evenodd"/><path stroke="#000000" stroke-width="2.0" stroke-linejoin="round" stroke-linecap="butt" d="m263.84778 137.4809l0 0c0 -5.34021 -4.3502502 -9.669296 -9.716537 -9.669296l0 0c-2.5769806 0 -5.048416 1.0187225 -6.8706207 2.8320618c-1.8222046 1.8133545 -2.8459167 4.272766 -2.8459167 6.8372345l0 0c0 5.3401947 4.3502502 9.669281 9.716537 9.669281l0 0c5.366287 0 9.716537 -4.3290863 9.716537 -9.669281z" fill-rule="evenodd"/><path fill="#ffffff" d="m276.79395 248.86105l0 0c0 -12.454681 -10.1458435 -22.551193 -22.661407 -22.551193l0 0c-6.0101776 0 -11.7742 2.3759308 -16.024033 6.6050873c-4.2498474 4.2291718 -6.637375 9.965149 -6.637375 15.946106l0 0c0 12.454681 10.145859 22.551178 22.661407 22.551178l0 0c12.515564 0 22.661407 -10.096497 22.661407 -22.551178z" fill-rule="evenodd"/><path stroke="#000000" stroke-width="4.0" stroke-linejoin="round" stroke-linecap="butt" d="m276.79395 248.86105l0 0c0 -12.454681 -10.1458435 -22.551193 -22.661407 -22.551193l0 0c-6.0101776 0 -11.7742 2.3759308 -16.024033 6.6050873c-4.2498474 4.2291718 -6.637375 9.965149 -6.637375 15.946106l0 0c0 12.454681 10.145859 22.551178 22.661407 22.551178l0 0c12.515564 0 22.661407 -10.096497 22.661407 -22.551178z" fill-rule="evenodd"/></g></svg>