<svg version="1.1" viewBox="0.0 0.0 544.7375328083989 522.1469816272966" fill="none" stroke="none" stroke-linecap="square" stroke-miterlimit="10" xmlns:xlink="http://www.w3.org/1999/xlink" xmlns="http://www.w3.org/2000/svg"><clipPath id="p.0"><path d="m0 0l544.73755 0l0 522.147l-544.73755 0l0 -522.147z" clip-rule="nonzero"/></clipPath><g clip-path="url(#p.0)"><path fill="#000000" fill-opacity="0.0" d="m0 0l544.73755 0l0 522.147l-544.73755 0z" fill-rule="evenodd"/><path fill="#ffffff" d="m-0.0065616798 0.87664044l544.7244 0l0 522.1417l-544.7244 0z" fill-rule="evenodd"/><path fill="#fff8e2" d="m71.92782 276.71768l0 0c-0.0013504028 -76.74785 41.170242 -147.66643 108.005684 -186.04114c66.83545 -38.374702 149.18073 -38.37542 216.01685 -0.0018844604c66.83612 38.373543 108.00897 109.291405 108.00897 186.03925z" fill-rule="evenodd"/><path fill="#000000" fill-opacity="0.0" d="m71.49887 278.026l0 0c0 -119.53703 96.910965 -216.44095 216.4567 -216.44095l0 0c57.407867 0 112.46448 22.803532 153.05798 63.394085c40.593506 40.590553 63.398712 95.64315 63.398712 153.04688l0 0c0 119.53702 -96.91098 216.44095 -216.4567 216.44095l0 0c-119.54573 0 -216.4567 -96.90393 -216.4567 -216.44095z" fill-rule="evenodd"/><path stroke="#000000" stroke-width="1.0" stroke-linejoin="round" stroke-linecap="butt" stroke-dasharray="1.0,3.0" d="m71.49887 278.026l0 0c0 -119.53703 96.910965 -216.44095 216.4567 -216.44095l0 0c57.407867 0 112.46448 22.803532 153.05798 63.394085c40.593506 40.590553 63.398712 95.64315 63.398712 153.04688l0 0c0 119.53702 -96.91098 216.44095 -216.4567 216.44095l0 0c-119.54573 0 -216.4567 -96.90393 -216.4567 -216.44095z" fill-rule="evenodd"/><path fill="#000000" fill-opacity="0.0" d="m71.49887 278.026l0 0c0 -119.53703 96.910965 -216.44095 216.4567 -216.44095l0 0c57.407867 0 112.46448 22.803532 153.05798 63.394085c40.593506 40.590553 63.398712 95.64315 63.398712 153.04688l0 0c0 119.53702 -96.91098 216.44095 -216.4567 216.44095l0 0c-119.54573 0 -216.4567 -96.90393 -216.4567 -216.44095z" fill-rule="evenodd"/><path stroke="#000000" stroke-width="1.0" stroke-linejoin="round" stroke-linecap="butt" stroke-dasharray="1.0,3.0" d="m71.49887 278.026l0 0c0 -119.53703 96.910965 -216.44095 216.4567 -216.44095l0 0c57.407867 0 112.46448 22.803532 153.05798 63.394085c40.593506 40.590553 63.398712 95.64315 63.398712 153.04688l0 0c0 119.53702 -96.91098 216.44095 -216.4567 216.44095l0 0c-119.54573 0 -216.4567 -96.90393 -216.4567 -216.44095z" fill-rule="evenodd"/><path fill="#000000" fill-opacity="0.0" d="m142.70052 274.62286l0 0c1.8281403 -78.03787 64.99248 -140.68517 143.04274 -141.87183l2.2087402 145.27454z" fill-rule="evenodd"/><path fill="#000000" fill-opacity="0.0" d="m142.70052 274.62286l0 0c1.8281403 -78.03787 64.99248 -140.68517 143.04274 -141.87183" fill-rule="evenodd"/><path stroke="#000000" stroke-width="1.0" stroke-linejoin="round" stroke-linecap="butt" d="m142.77968 272.1511l0.010299683 -0.26531982c0.012741089 -0.30340576 0.026397705 -0.6065674 0.040985107 -0.90948486c0.05833435 -1.2116394 0.13146973 -2.4193726 0.21922302 -3.6229858c0.17550659 -2.407196 0.40950012 -4.798004 0.70054626 -7.170929c0.5821228 -4.74588 1.3924713 -9.420395 2.419754 -14.012299c2.0545502 -9.183792 4.9767456 -18.03714 8.675888 -26.470032c7.3982697 -16.865814 17.904282 -32.049835 30.792221 -44.832306c25.775879 -25.56488 61.079544 -41.523376 100.10469 -42.116714" fill-rule="evenodd"/><path fill="#000000" stroke="#000000" stroke-width="1.0" stroke-linecap="butt" d="m142.77968 272.1511l-0.55981445 -0.5968628l0.52745056 1.6074829l0.6292114 -1.5704346z" fill-rule="evenodd"/><path fill="#000000" fill-opacity="0.0" d="m415.97397 280.65393l0 0c-1.4387512 70.10907 -59.00171 126.019196 -129.12296 125.41531c-70.12125 -0.6038513 -126.71278 -57.49704 -126.94388 -127.620514c-0.23109436 -70.12346 55.984222 -127.3884 126.099976 -128.45442l1.9465637 128.03246z" fill-rule="evenodd"/><path fill="#000000" fill-opacity="0.0" d="m415.97397 280.65393l0 0c-1.4387512 70.10907 -59.00171 126.019196 -129.12296 125.41531c-70.12125 -0.6038513 -126.71278 -57.49704 -126.94388 -127.620514c-0.23109436 -70.12346 55.984222 -127.3884 126.099976 -128.45442" fill-rule="evenodd"/><path stroke="#000000" stroke-width="1.0" stroke-linejoin="round" stroke-linecap="butt" d="m415.89978 283.12585l-0.034210205 0.8038635c-0.049713135 1.0883789 -0.11294556 2.1731262 -0.18960571 3.2540588c-0.15325928 2.1618652 -0.35998535 4.3085938 -0.61883545 6.4388733c-0.51776123 4.260559 -1.2441101 8.455322 -2.1684265 12.573944c-1.8486328 8.237274 -4.4891357 16.170044 -7.8363647 23.715668c-6.6944885 15.091217 -16.216064 28.63382 -27.883911 39.966675c-23.335754 22.66568 -55.256775 36.49225 -90.31741 36.19034c-70.12125 -0.60388184 -126.71278 -57.49707 -126.94388 -127.620544c-0.23109436 -70.12346 55.984207 -127.3884 126.099945 -128.45444" fill-rule="evenodd"/><path fill="#000000" stroke="#000000" stroke-width="1.0" stroke-linecap="butt" d="m415.89978 283.12585l0.56100464 0.59573364l-0.53067017 -1.6064148l-0.6260681 1.5716858z" fill-rule="evenodd"/><path fill="#d9d9d9" d="m204.82408 205.3628l0 72.64566l0 0c0 40.121094 37.220306 72.64569 83.133865 72.64569c45.913574 0 83.13385 -32.524597 83.13385 -72.64569l0 -72.64566z" fill-rule="evenodd"/><path stroke="#000000" stroke-width="3.0" stroke-linejoin="round" stroke-linecap="butt" d="m204.82408 205.3628l0 72.64566l0 0c0 40.121094 37.220306 72.64569 83.133865 72.64569c45.913574 0 83.13385 -32.524597 83.13385 -72.64569l0 -72.64566z" fill-rule="evenodd"/><path fill="#000000" fill-opacity="0.0" d="m287.94522 247.42053l-30.740173 0l0 30.614166l30.740173 0z" fill-rule="evenodd"/><path stroke="#000000" stroke-width="1.0" stroke-linejoin="round" stroke-linecap="butt" stroke-dasharray="4.0,3.0" d="m287.94522 247.42053l-30.740173 0l0 30.614166l30.740173 0z" fill-rule="evenodd"/><path fill="#000000" fill-opacity="0.0" d="m265.28345 278.01852l-193.79526 0" fill-rule="evenodd"/><path stroke="#000000" stroke-width="2.0" stroke-linejoin="round" stroke-linecap="butt" d="m265.28345 278.01852l-193.79526 0" fill-rule="evenodd"/><path fill="#000000" fill-opacity="0.0" d="m324.93332 49.837734l-73.95276 0l0 50.110233l73.95276 0z" fill-rule="evenodd"/><path fill="#000000" d="m273.73056 75.22774q0 2.75 -0.9375 4.09375q-0.9375 1.328125 -2.9375 1.328125q-1.96875 0 -2.921875 -1.296875q-0.953125 -1.3125 -0.984375 -3.921875l0 -2.078125q0 -2.71875 0.9375 -4.03125q0.9375 -1.328125 2.953125 -1.328125q1.984375 0 2.921875 1.28125q0.9375 1.265625 0.96875 3.921875l0 2.03125zm-1.5625 -2.140625q0 -2.0 -0.5625 -2.90625q-0.5625 -0.90625 -1.765625 -0.90625q-1.203125 0 -1.75 0.90625q-0.546875 0.90625 -0.578125 2.78125l0 2.5q0 2.0 0.578125 2.953125q0.59375 0.953125 1.765625 0.953125q1.15625 0 1.71875 -0.890625q0.5625 -0.90625 0.59375 -2.828125l0 -2.5625z" fill-rule="nonzero"/><path fill="#000000" d="m275.22632 70.86836q0 -0.890625 0.34375 -1.609375q0.359375 -0.71875 0.984375 -1.109375q0.625 -0.390625 1.4375 -0.390625q1.25 0 2.015625 0.875q0.765625 0.859375 0.765625 2.28125l0 0.078125q0 0.890625 -0.34375 1.609375q-0.328125 0.703125 -0.96875 1.09375q-0.640625 0.390625 -1.453125 0.390625q-1.25 0 -2.015625 -0.859375q-0.765625 -0.859375 -0.765625 -2.28125l0 -0.078125zm1.046875 0.125q0 1.015625 0.46875 1.640625q0.46875 0.609375 1.265625 0.609375q0.796875 0 1.265625 -0.625q0.46875 -0.625 0.46875 -1.75q0 -1.0 -0.484375 -1.625q-0.46875 -0.625 -1.265625 -0.625q-0.765625 0 -1.25 0.625q-0.46875 0.609375 -0.46875 1.75z" fill-rule="nonzero"/><path fill="#000000" fill-opacity="0.0" d="m504.40472 278.0135l-193.79529 0" fill-rule="evenodd"/><path stroke="#000000" stroke-width="2.0" stroke-linejoin="round" stroke-linecap="butt" d="m504.40472 278.0135l-193.79529 0" fill-rule="evenodd"/><path fill="#000000" fill-opacity="0.0" d="m319.7344 247.42053l-30.740173 0l0 30.614166l30.740173 0z" fill-rule="evenodd"/><path stroke="#000000" stroke-width="1.0" stroke-linejoin="round" stroke-linecap="butt" stroke-dasharray="4.0,3.0" d="m319.7344 247.42053l-30.740173 0l0 30.614166l30.740173 0z" fill-rule="evenodd"/><path fill="#000000" fill-opacity="0.0" d="m287.94357 278.81628l0 -243.49608" fill-rule="evenodd"/><path stroke="#000000" stroke-width="1.0" stroke-linejoin="round" stroke-linecap="butt" stroke-dasharray="8.0,3.0" d="m287.94357 275.02628l0 -233.70607" fill-rule="evenodd"/><path fill="#000000" stroke="#000000" stroke-width="1.0" stroke-linecap="butt" d="m289.58856 275.02628l0 3.2900085l-3.289978 0l0 -3.2900085l3.289978 0z" fill-rule="nonzero"/><path fill="#000000" stroke="#000000" stroke-width="1.0" stroke-linecap="butt" d="m289.5953 41.32021l-1.6517334 -4.5380974l-1.6517334 4.5380974z" fill-rule="evenodd"/><path fill="#ff40cc" d="m297.66013 115.27091l0 0c0 -5.3402023 -4.3502502 -9.669289 -9.716553 -9.669289l0 0c-2.5769653 0 -5.0484314 1.0187302 -6.870636 2.8320694c-1.8221741 1.8133469 -2.8458862 4.272766 -2.8458862 6.837219l0 0c0 5.3402023 4.3502197 9.669296 9.716522 9.669296l0 0c5.3663025 0 9.716553 -4.329094 9.716553 -9.669296z" fill-rule="evenodd"/><path stroke="#000000" stroke-width="2.0" stroke-linejoin="round" stroke-linecap="butt" d="m297.66013 115.27091l0 0c0 -5.3402023 -4.3502502 -9.669289 -9.716553 -9.669289l0 0c-2.5769653 0 -5.0484314 1.0187302 -6.870636 2.8320694c-1.8221741 1.8133469 -2.8458862 4.272766 -2.8458862 6.837219l0 0c0 5.3402023 4.3502197 9.669296 9.716522 9.669296l0 0c5.3663025 0 9.716553 -4.329094 9.716553 -9.669296z" fill-rule="evenodd"/><path fill="#000000" fill-opacity="0.0" d="m278.22702 54.687664l73.95276 0l0 40.40945l-73.95276 0z" fill-rule="evenodd"/><path fill="#000000" d="m299.62628 80.32767l-1.578125 0l0 -10.4375l-3.15625 1.171875l0 -1.421875l4.484375 -1.6875l0.25 0l0 12.375zm4.777008 -0.828125q0 -0.40625 0.234375 -0.671875q0.25 -0.265625 0.734375 -0.265625q0.484375 0 0.734375 0.265625q0.25 0.265625 0.25 0.671875q0 0.390625 -0.25 0.65625q-0.25 0.265625 -0.734375 0.265625q-0.484375 0 -0.734375 -0.265625q-0.234375 -0.265625 -0.234375 -0.65625zm5.091736 -5.34375l0.625 -6.140625l6.3125 0l0 1.4375l-4.984375 0l-0.375 3.359375q0.90625 -0.53125 2.046875 -0.53125q1.6875 0 2.671875 1.109375q1.0 1.109375 1.0 3.015625q0 1.90625 -1.03125 3.0q-1.03125 1.09375 -2.875 1.09375q-1.625 0 -2.65625 -0.90625q-1.03125 -0.90625 -1.1875 -2.5l1.484375 0q0.140625 1.046875 0.75 1.59375q0.609375 0.53125 1.609375 0.53125q1.09375 0 1.71875 -0.734375q0.625 -0.75 0.625 -2.0625q0 -1.234375 -0.671875 -1.984375q-0.671875 -0.75 -1.796875 -0.75q-1.015625 0 -1.609375 0.453125l-0.40625 0.328125l-1.25 -0.3125zm14.926147 -2.984375l0.046875 1.015625q1.0 -1.1875 2.71875 -1.1875q1.90625 0 2.609375 1.46875q0.453125 -0.65625 1.1875 -1.0625q0.734375 -0.40625 1.734375 -0.40625q3.0 0 3.0625 3.1875l0 6.140625l-1.5625 0l0 -6.046875q0 -0.96875 -0.453125 -1.453125q-0.453125 -0.5 -1.515625 -0.5q-0.859375 0 -1.4375 0.53125q-0.578125 0.515625 -0.671875 1.390625l0 6.078125l-1.578125 0l0 -6.0q0 -2.0 -1.953125 -2.0q-1.53125 0 -2.109375 1.3125l0 6.6875l-1.5625 0l0 -9.15625l1.484375 0z" fill-rule="nonzero"/><path fill="#000000" fill-opacity="0.0" d="m142.66011 139.39633l73.95274 0l0 42.015747l-73.95274 0z" fill-rule="evenodd"/><path fill="#000000" d="m173.1765 160.4882q-0.53125 0.625 -1.265625 1.015625q-0.734375 0.375 -1.609375 0.375q-1.140625 0 -2.0 -0.5625q-0.84375 -0.5625 -1.3125 -1.578125q-0.46875 -1.03125 -0.46875 -2.28125q0 -1.328125 0.5 -2.390625q0.515625 -1.0625 1.4375 -1.625q0.9375 -0.578125 2.171875 -0.578125q1.96875 0 3.09375 1.484375q1.140625 1.46875 1.140625 4.0l0 0.5q0 3.875 -1.53125 5.65625q-1.53125 1.78125 -4.609375 1.828125l-0.328125 0l0 -1.421875l0.359375 0q2.078125 -0.046875 3.1875 -1.09375q1.125 -1.046875 1.234375 -3.328125zm-2.59375 0q0.84375 0 1.546875 -0.515625q0.71875 -0.53125 1.046875 -1.296875l0 -0.671875q0 -1.65625 -0.71875 -2.6875q-0.71875 -1.046875 -1.8125 -1.046875q-1.109375 0 -1.796875 0.859375q-0.671875 0.84375 -0.671875 2.234375q0 1.359375 0.65625 2.25q0.65625 0.875 1.75 0.875zm14.929047 0.171875q0 2.953125 -1.015625 4.40625q-1.015625 1.4375 -3.15625 1.4375q-2.125 0 -3.15625 -1.40625q-1.015625 -1.40625 -1.046875 -4.203125l0 -2.25q0 -2.9375 1.0 -4.359375q1.015625 -1.421875 3.1875 -1.421875q2.140625 0 3.140625 1.375q1.015625 1.375 1.046875 4.234375l0 2.1875zm-1.6875 -2.3125q0 -2.140625 -0.609375 -3.109375q-0.59375 -0.984375 -1.890625 -0.984375q-1.296875 0 -1.890625 0.984375q-0.59375 0.96875 -0.609375 2.984375l0 2.703125q0 2.140625 0.625 3.171875q0.625 1.03125 1.890625 1.03125q1.25 0 1.84375 -0.96875q0.609375 -0.96875 0.640625 -3.046875l0 -2.765625z" fill-rule="nonzero"/><path fill="#000000" d="m187.11272 155.97258q0 -0.96875 0.375 -1.734375q0.390625 -0.78125 1.0625 -1.1875q0.6875 -0.421875 1.546875 -0.421875q1.34375 0 2.171875 0.9375q0.828125 0.921875 0.828125 2.453125l0 0.078125q0 0.96875 -0.375 1.734375q-0.359375 0.75 -1.046875 1.1875q-0.671875 0.421875 -1.5625 0.421875q-1.34375 0 -2.171875 -0.921875q-0.828125 -0.9375 -0.828125 -2.46875l0 -0.078125zm1.140625 0.125q0 1.09375 0.5 1.765625q0.515625 0.65625 1.359375 0.65625q0.859375 0 1.359375 -0.671875q0.5 -0.671875 0.5 -1.875q0 -1.078125 -0.515625 -1.75q-0.5 -0.671875 -1.359375 -0.671875q-0.828125 0 -1.34375 0.65625q-0.5 0.65625 -0.5 1.890625z" fill-rule="nonzero"/><path fill="#000000" fill-opacity="0.0" d="m370.5315 350.65353l73.95276 0l0 42.015747l-73.95276 0z" fill-rule="evenodd"/><path fill="#000000" d="m398.0443 377.57355l-8.6875 0l0 -1.21875l4.578125 -5.09375q1.03125 -1.15625 1.40625 -1.875q0.390625 -0.734375 0.390625 -1.5q0 -1.046875 -0.625 -1.703125q-0.625 -0.671875 -1.671875 -0.671875q-1.265625 0 -1.96875 0.71875q-0.6875 0.71875 -0.6875 1.984375l-1.6875 0q0 -1.828125 1.171875 -2.953125q1.1875 -1.140625 3.171875 -1.140625q1.84375 0 2.921875 0.984375q1.078125 0.96875 1.078125 2.578125q0 1.953125 -2.5 4.65625l-3.546875 3.859375l6.65625 0l0 1.375zm10.350922 -12.3125l-5.5 12.3125l-1.765625 0l5.46875 -11.875l-7.171875 0l0 -1.390625l8.96875 0l0 0.953125zm10.225922 6.65625q0 2.953125 -1.015625 4.40625q-1.015625 1.4375 -3.15625 1.4375q-2.125 0 -3.15625 -1.40625q-1.015625 -1.40625 -1.046875 -4.203125l0 -2.25q0 -2.9375 1.0 -4.359375q1.015625 -1.421875 3.1875 -1.421875q2.140625 0 3.140625 1.375q1.015625 1.375 1.046875 4.234375l0 2.1875zm-1.6875 -2.3125q0 -2.140625 -0.609375 -3.109375q-0.59375 -0.984375 -1.890625 -0.984375q-1.296875 0 -1.890625 0.984375q-0.59375 0.96875 -0.609375 2.984375l0 2.703125q0 2.140625 0.625 3.171875q0.625 1.03125 1.890625 1.03125q1.25 0 1.84375 -0.96875q0.609375 -0.96875 0.640625 -3.046875l0 -2.765625z" fill-rule="nonzero"/><path fill="#000000" d="m420.22208 367.2298q0 -0.96875 0.375 -1.734375q0.390625 -0.78125 1.0625 -1.1875q0.6875 -0.421875 1.546875 -0.421875q1.34375 0 2.171875 0.9375q0.828125 0.921875 0.828125 2.453125l0 0.078125q0 0.96875 -0.375 1.734375q-0.359375 0.75 -1.046875 1.1875q-0.671875 0.421875 -1.5625 0.421875q-1.34375 0 -2.171875 -0.921875q-0.828125 -0.9375 -0.828125 -2.46875l0 -0.078125zm1.140625 0.125q0 1.09375 0.5 1.765625q0.515625 0.65625 1.359375 0.65625q0.859375 0 1.359375 -0.671875q0.5 -0.671875 0.5 -1.875q0 -1.078125 -0.515625 -1.75q-0.5 -0.671875 -1.359375 -0.671875q-0.828125 0 -1.34375 0.65625q-0.5 0.65625 -0.5 1.890625z" fill-rule="nonzero"/><path fill="#000000" fill-opacity="0.0" d="m293.01443 278.00787l-254.70866 0" fill-rule="evenodd"/><path stroke="#000000" stroke-width="1.0" stroke-linejoin="round" stroke-linecap="butt" stroke-dasharray="8.0,3.0" d="m289.22443 278.00787l-244.91866 0" fill-rule="evenodd"/><path fill="#000000" stroke="#000000" stroke-width="1.0" stroke-linecap="butt" d="m289.22443 276.36288l3.2900085 0l0 3.289978l-3.2900085 0l0 -3.289978z" fill-rule="nonzero"/><path fill="#000000" stroke="#000000" stroke-width="1.0" stroke-linecap="butt" d="m44.305775 276.35614l-4.5380974 1.6517334l4.5380974 1.6517334z" fill-rule="evenodd"/><path fill="#ffffff" d="m310.6063 278.01852l0 0c0 -12.454681 -10.145874 -22.551178 -22.661407 -22.551178l0 0c-6.010193 0 -11.7742 2.3759155 -16.024048 6.6051025c-4.2498474 4.2291565 -6.63739 9.965118 -6.63739 15.946075l0 0c0 12.454681 10.145874 22.551178 22.661438 22.551178l0 0c12.515533 0 22.661407 -10.096497 22.661407 -22.551178z" fill-rule="evenodd"/><path stroke="#000000" stroke-width="4.0" stroke-linejoin="round" stroke-linecap="butt" d="m310.6063 278.01852l0 0c0 -12.454681 -10.145874 -22.551178 -22.661407 -22.551178l0 0c-6.010193 0 -11.7742 2.3759155 -16.024048 6.6051025c-4.2498474 4.2291565 -6.63739 9.965118 -6.63739 15.946075l0 0c0 12.454681 10.145874 22.551178 22.661438 22.551178l0 0c12.515533 0 22.661407 -10.096497 22.661407 -22.551178z" fill-rule="evenodd"/><path fill="#000000" fill-opacity="0.0" d="m242.3189 7.0183725l91.27559 0l0 37.165356l-91.27559 0z" fill-rule="evenodd"/><path fill="#000000" d="m284.96744 24.504623l2.90625 0l0 1.25l-2.90625 0l0 3.296875l-1.328125 0l0 -3.296875l-2.90625 0l0 -1.25l2.90625 0l0 -3.03125l1.328125 0l0 3.03125zm7.1054077 0.671875l1.71875 -2.828125l1.546875 0l-2.53125 3.828125l2.609375 3.921875l-1.53125 0l-1.78125 -2.890625l-1.796875 2.890625l-1.53125 0l2.609375 -3.921875l-2.53125 -3.828125l1.53125 0l1.6875 2.828125z" fill-rule="nonzero"/><path fill="#000000" fill-opacity="0.0" d="m-19.788713 259.44357l91.27559 0l0 37.165344l-91.27559 0z" fill-rule="evenodd"/><path fill="#000000" d="m23.02442 276.9298l2.90625 0l0 1.25l-2.90625 0l0 3.296875l-1.328125 0l0 -3.296875l-2.90625 0l0 -1.25l2.90625 0l0 -3.03125l1.328125 0l0 3.03125zm7.042923 3.65625l1.8125 -5.8125l1.4062481 0l-3.109373 8.9375q-0.71875 1.9375 -2.296875 1.9375l-0.25 -0.015625l-0.5 -0.09375l0 -1.078125l0.359375 0.03125q0.671875 0 1.046875 -0.28125q0.390625 -0.265625 0.625 -0.984375l0.296875 -0.78125l-2.765625 -7.671875l1.453125 0l1.921875 5.8125z" fill-rule="nonzero"/></g></svg>