<svg version="1.1" viewBox="0.0 0.0 2831.9291338582675 1207.5931758530185" fill="none" stroke="none" stroke-linecap="square" stroke-miterlimit="10" xmlns:xlink="http://www.w3.org/1999/xlink" xmlns="http://www.w3.org/2000/svg"><clipPath id="p.0"><path d="m0 0l2831.9292 0l0 1207.5931l-2831.9292 0l0 -1207.5931z" clip-rule="nonzero"/></clipPath><g clip-path="url(#p.0)"><path fill="#000000" fill-opacity="0.0" d="m0 0l2831.9292 0l0 1207.5931l-2831.9292 0z" fill-rule="evenodd"/><path fill="#ffffff" d="m0.010498688 0l2831.937 0l0 1207.5906l-2831.937 0z" fill-rule="evenodd"/><path fill="#000000" fill-opacity="0.0" d="m1594.6241 263.62042l0 0c-78.478516 -12.976288 -158.69006 8.301971 -220.05542 58.37564l175.44214 211.81863z" fill-rule="evenodd"/><path fill="#000000" fill-opacity="0.0" d="m1594.6241 263.62042l0 0c-78.478516 -12.976288 -158.69006 8.301971 -220.05542 58.37564" fill-rule="evenodd"/><path stroke="#000000" stroke-width="3.0" stroke-linejoin="round" stroke-linecap="butt" d="m1594.6241 263.62042l0 0c-39.239258 -6.4881287 -78.911865 -4.4126587 -116.44519 5.544098c-18.766724 4.978363 -36.998535 11.927032 -54.374146 20.760712c-8.687744 4.41687 -17.161377 9.304962 -25.380981 14.653656c-4.109497 2.6743164 -8.155762 5.4638367 -12.133301 8.367157c-0.99438477 0.72579956 -1.984375 1.4587402 -2.9700928 2.1987915c-0.493042 0.36999512 -0.9848633 0.7417908 -1.4754639 1.1153564l-1.46521 1.123352" fill-rule="evenodd"/><path fill="#000000" stroke="#000000" stroke-width="3.0" stroke-linecap="butt" d="m1380.3798 317.38354l0.2803955 -2.4388428l-2.656372 4.3247375l4.8148193 -1.6054688z" fill-rule="evenodd"/><path fill="#000000" fill-opacity="0.0" d="m1594.8457 298.04752l0 0c-115.37268 -14.84729 -227.20789 46.00876 -276.90356 150.6795c-49.6958 104.670746 -25.921143 229.29044 58.865967 308.5582l183.6471 -194.52863z" fill-rule="evenodd"/><path fill="#000000" fill-opacity="0.0" d="m1594.8457 298.04752l0 0c-115.37268 -14.84729 -227.20789 46.00876 -276.90356 150.6795c-49.6958 104.670746 -25.921143 229.29044 58.865967 308.5582" fill-rule="evenodd"/><path stroke="#000000" stroke-width="3.0" stroke-linejoin="round" stroke-linecap="butt" d="m1594.8456 298.04752l0 0c-115.37268 -14.84729 -227.20776 46.00876 -276.90344 150.67947c-24.8479 52.33539 -31.328125 109.65802 -20.998047 163.80524c5.165039 27.073608 14.532593 53.353394 27.908203 77.81897c6.687744 12.232788 14.377563 24.012085 23.044922 35.210266c4.333618 5.59906 8.911865 11.052856 13.731323 16.34552c2.40979 2.6462402 4.879883 5.2523193 7.40979 7.815979c0.63256836 0.6409912 1.2687988 1.2791748 1.9088135 1.914856l0.51220703 0.50598145" fill-rule="evenodd"/><path fill="#000000" stroke="#000000" stroke-width="3.0" stroke-linecap="butt" d="m1371.4592 752.1438l-2.4543457 0.04852295l4.6413574 2.0535889l-2.2354736 -4.5565186z" fill-rule="evenodd"/><path fill="#000000" fill-opacity="0.0" d="m2504.4546 287.52725l0 0c-115.3728 -14.8472595 -227.20801 46.00879 -276.90356 150.6795c-49.6958 104.670746 -25.921143 229.29044 58.865967 308.5582l183.64697 -194.52863z" fill-rule="evenodd"/><path fill="#000000" fill-opacity="0.0" d="m2504.4546 287.52725l0 0c-115.3728 -14.8472595 -227.20801 46.00879 -276.90356 150.6795c-49.6958 104.670746 -25.921143 229.29044 58.865967 308.5582" fill-rule="evenodd"/><path stroke="#000000" stroke-width="3.0" stroke-linejoin="round" stroke-linecap="butt" d="m2504.4546 287.52725l0 0c-115.3728 -14.84729 -227.20776 46.00879 -276.9038 150.67953c-24.847656 52.335358 -31.328125 109.65796 -20.998047 163.80518c5.165039 27.073608 14.532715 53.353394 27.908203 77.81897c6.687744 12.232788 14.377686 24.012085 23.044922 35.210266c4.3339844 5.59906 8.911865 11.052856 13.731445 16.34552c2.409668 2.6462402 4.879883 5.2523193 7.409912 7.815979c0.63256836 0.6409912 1.2687988 1.2791748 1.9086914 1.914856l0.51220703 0.50598145" fill-rule="evenodd"/><path fill="#000000" stroke="#000000" stroke-width="3.0" stroke-linecap="butt" d="m2281.068 741.62354l-2.4545898 0.04852295l4.6413574 2.0535889l-2.2353516 -4.5565186z" fill-rule="evenodd"/><path fill="#000000" fill-opacity="0.0" d="m2504.233 253.10019l0 0c-78.478516 -12.976303 -158.68994 8.301941 -220.05542 58.37564l175.44214 211.8186z" fill-rule="evenodd"/><path fill="#000000" fill-opacity="0.0" d="m2504.233 253.10019l0 0c-78.478516 -12.976303 -158.68994 8.301941 -220.05542 58.37564" fill-rule="evenodd"/><path stroke="#000000" stroke-width="3.0" stroke-linejoin="round" stroke-linecap="butt" d="m2504.233 253.10019l0 0c-39.239258 -6.488144 -78.91162 -4.412674 -116.44507 5.5440674c-18.766602 4.978363 -36.998535 11.927032 -54.374023 20.760742c-8.687988 4.4168396 -17.161621 9.304962 -25.381104 14.653656c-4.109619 2.6743164 -8.155762 5.463806 -12.133545 8.367126c-0.9941406 0.7258301 -1.984375 1.4587708 -2.9699707 2.198822c-0.49291992 0.36999512 -0.98461914 0.7417908 -1.4753418 1.1153564l-1.465332 1.123352" fill-rule="evenodd"/><path fill="#000000" stroke="#000000" stroke-width="3.0" stroke-linecap="butt" d="m2289.9885 306.8633l0.28051758 -2.4388428l-2.6564941 4.3247375l4.8149414 -1.6054688z" fill-rule="evenodd"/><path fill="#000000" fill-opacity="0.0" d="m1417.0508 231.83862l-167.11816 -166.29922l-79.02356 78.64567l167.11804 166.29921z" fill-rule="evenodd"/><path fill="#000000" d="m1229.8173 127.94932q3.798706 -3.7805939 7.8966064 -4.2877426q4.0979004 -0.50714874 7.0108643 2.3914719q2.890747 2.8765793 2.6138916 6.524788l8.583252 -8.542168l2.8132324 2.7994308l-23.390747 23.278793l-2.5916748 -2.5789948l1.6391602 -1.8957977q-3.7767334 0.38589478 -6.7893066 -2.6119232q-2.857544 -2.843521 -2.3149414 -6.9767q0.54260254 -4.1331787 4.319214 -7.891739l0.21044922 -0.20941925zm2.4920654 3.119072q-2.802002 2.7886047 -3.2338867 5.5110016q-0.42089844 2.7334137 1.6170654 4.7613373q2.6802979 2.6671753 6.335205 1.4987488l7.564331 -7.528137q1.0631104 -3.5710907 -1.5618896 -6.1831512q-2.071045 -2.0610046 -4.8288574 -1.6310577q-2.746704 0.44097137 -5.891968 3.5712585zm10.468262 26.44223l-2.8132324 -2.7994385l16.479736 -16.40097l2.8132324 2.7994385l-16.479736 16.40097zm17.797485 -23.774582q0.6866455 -0.6833801 1.5838623 -0.73851013q0.8970947 -0.055145264 1.7166748 0.760437q0.8195801 0.8155823 0.76416016 1.7083435q-0.044189453 0.90379333 -0.73083496 1.5871582q-0.6756592 0.6723633 -1.5727539 0.7054596q-0.8748779 0.033096313 -1.6945801 -0.78248596q-0.8195801 -0.8155823 -0.78637695 -1.6863098q0.044311523 -0.8817444 0.71984863 -1.5540924zm0.680542 33.45517q1.1407471 -1.1352844 0.9082031 -2.6232147q-0.23266602 -1.4879303 -1.9161377 -4.066971q-1.6835938 -2.5790253 -2.303833 -4.4747467q-0.60913086 -1.8847046 -0.3322754 -3.3506012q0.2878418 -1.4769287 1.5061035 -2.6893768q2.0267334 -2.017044 5.1279297 -1.7085419q3.123169 0.30848694 5.7924805 2.9646454q2.802124 2.7884064 3.09021 5.9626617q0.29907227 3.1632385 -1.9492188 5.4007416l-2.8242188 -2.8104553q1.1517334 -1.1463013 0.9967041 -2.9538727q-0.14404297 -1.8185883 -1.6281738 -3.2954407q-1.5395508 -1.5319824 -3.090088 -1.7303162q-1.5284424 -0.19833374 -2.6026611 0.8708191q-1.0189209 1.0140381 -0.73095703 2.3366394q0.28796387 1.3226013 1.9161377 3.8906097q1.6502686 2.5680084 2.303833 4.5188446q0.6534424 1.9508362 0.3544922 3.5049133q-0.28796387 1.5430603 -1.605957 2.8546906q-2.2149658 2.2044373 -5.3271484 1.7746887q-3.090088 -0.42973328 -5.9033203 -3.2291718q-1.982544 -1.9728241 -2.8132324 -4.1881714q-0.80859375 -2.2153473 -0.42089844 -4.320511q0.40966797 -2.1051788 1.871582 -3.5601044l2.8132324 2.7994385q-1.3400879 1.4879913 -1.1185303 3.361679q0.23266602 1.8847046 1.9715576 3.6150665q1.5948486 1.5870819 3.2008057 1.9066467q1.6280518 0.31958008 2.713379 -0.7605896zm26.403687 -5.754303l-3.9870605 3.967987l3.067871 3.0529175l-2.1817627 2.1713562l-3.0679932 -3.0529175l-10.211182 10.16243q-0.9968262 0.9920044 -1.0853271 1.8957825q-0.07751465 0.89276123 0.9082031 1.8736725q0.4873047 0.48493958 1.517334 1.1572266l-2.2814941 2.2705688q-1.4177246 -0.79351807 -2.4698486 -1.8405457q-1.8828125 -1.873642 -1.7056885 -3.9677734q0.18823242 -2.1051636 2.2924805 -4.1993713l10.211304 -10.16243l-3.001587 -2.9868011l2.1818848 -2.1713562l3.0014648 2.986786l3.9870605 -3.9679718l2.8243408 2.81044zm-4.5302734 40.812393l-13.944336 -13.875916l2.303711 -2.2926178l13.944214 13.875916l-2.3035889 2.2926178zm23.540771 4.0276184l3.0791016 3.0639343l-2.2926025 2.2815857l-3.0789795 -3.0639343l-5.1500244 5.125305l-2.8242188 -2.8104553l5.1499023 -5.125305l-10.100952 -10.051483l1.6612549 -1.6533356l25.284912 -5.412567l3.001587 2.986786l-14.72998 14.65947zm-9.724365 -9.676773l6.9001465 6.8663177l10.875732 -10.823761l-0.95251465 0.26455688l-16.823364 3.6928864zm20.315308 12.897507l12.182739 -9.875931l11.363525 11.307922l-2.6026611 2.59021l-8.971191 -8.927307l-6.7226562 5.3457947q2.6026611 0.67222595 4.673828 2.7332306q3.0236816 3.0088348 2.802246 6.77829q-0.22143555 3.769455 -3.6325684 7.164276q-3.4222412 3.405838 -7.2542725 3.5382385q-3.821045 0.12136841 -7.1436768 -3.1850433q-2.9350586 -2.9206543 -3.1677246 -6.392502q-0.22155762 -3.4828796 2.4031982 -6.602127l2.6582031 2.6451263q-1.6391602 2.160324 -1.517334 4.22139q0.13305664 2.0500488 1.9272461 3.8355103q1.9604492 1.9507904 4.4191895 1.7302551q2.4697266 -0.20948792 4.8287354 -2.5572205q2.2260742 -2.215454 2.3479004 -4.7614746q0.1439209 -2.5460358 -1.8718262 -4.5519257q-1.838623 -1.8295441 -3.6882324 -2.0829926l-1.3511963 -0.13220215l-1.6834717 -2.821518z" fill-rule="nonzero"/><path fill="#d9d9d9" d="m1428.0103 396.00052l0 145.29135l0 0c0 80.24219 74.42651 145.29132 166.2362 145.29132c91.809814 0 166.2362 -65.04913 166.2362 -145.29132l0 -145.29135z" fill-rule="evenodd"/><path stroke="#000000" stroke-width="8.0" stroke-linejoin="round" stroke-linecap="butt" d="m1428.0103 396.00052l0 145.29135l0 0c0 80.24219 74.42651 145.29132 166.2362 145.29132c91.809814 0 166.2362 -65.04913 166.2362 -145.29132l0 -145.29135z" fill-rule="evenodd"/><path fill="#000000" fill-opacity="0.0" d="m1594.2368 470.3731l-71.275635 0l0 70.92914l71.275635 0z" fill-rule="evenodd"/><path stroke="#000000" stroke-width="3.0" stroke-linejoin="round" stroke-linecap="butt" stroke-dasharray="12.0,9.0" d="m1594.2368 470.3731l-71.275635 0l0 70.92914l71.275635 0z" fill-rule="evenodd"/><path fill="#000000" fill-opacity="0.0" d="m1594.2312 496.20282l0 -386.86615" fill-rule="evenodd"/><path stroke="#000000" stroke-width="3.0" stroke-linejoin="round" stroke-linecap="butt" stroke-dasharray="3.0,9.0" d="m1594.2312 496.20282l0 -386.86615" fill-rule="evenodd"/><path fill="#000000" fill-opacity="0.0" d="m1548.9083 541.3052l-370.8346 0" fill-rule="evenodd"/><path stroke="#000000" stroke-width="3.0" stroke-linejoin="round" stroke-linecap="butt" stroke-dasharray="3.0,9.0" d="m1548.9083 541.3052l-370.8346 0" fill-rule="evenodd"/><path fill="#000000" fill-opacity="0.0" d="m1178.1484 45.308247l0 1011.18115" fill-rule="evenodd"/><path stroke="#000000" stroke-width="8.0" stroke-linejoin="round" stroke-linecap="butt" d="m1178.1484 45.308247l0 1011.18115" fill-rule="evenodd"/><path fill="#00a2ff" d="m1197.5566 541.30817l0 0c0 -10.671753 -8.693481 -19.322876 -19.417358 -19.322876l0 0c-5.1497803 0 -10.088623 2.0358276 -13.730103 5.659546c-3.6414795 3.6237183 -5.687256 8.538574 -5.687256 13.66333l0 0c0 10.671692 8.693481 19.322815 19.417358 19.322815l0 0c10.723877 0 19.417358 -8.651123 19.417358 -19.322815z" fill-rule="evenodd"/><path stroke="#000000" stroke-width="3.0" stroke-linejoin="round" stroke-linecap="butt" d="m1197.5566 541.30817l0 0c0 -10.671753 -8.693481 -19.322876 -19.417358 -19.322876l0 0c-5.1497803 0 -10.088623 2.0358276 -13.730103 5.659546c-3.6414795 3.6237183 -5.687256 8.538574 -5.687256 13.66333l0 0c0 10.671692 8.693481 19.322815 19.417358 19.322815l0 0c10.723877 0 19.417358 -8.651123 19.417358 -19.322815z" fill-rule="evenodd"/><path fill="#ffffff" d="m1639.5541 541.3052l0 0c0 -24.909363 -20.291748 -45.102356 -45.322876 -45.102356l0 0c-12.020386 0 -23.54834 4.751831 -32.048096 13.210175c-8.499634 8.4583435 -13.27478 19.930267 -13.27478 31.892181l0 0c0 24.909363 20.291748 45.102356 45.322876 45.102356l0 0c25.031128 0 45.322876 -20.192993 45.322876 -45.102356z" fill-rule="evenodd"/><path stroke="#000000" stroke-width="8.0" stroke-linejoin="round" stroke-linecap="butt" d="m1639.5541 541.3052l0 0c0 -24.909363 -20.291748 -45.102356 -45.322876 -45.102356l0 0c-12.020386 0 -23.54834 4.751831 -32.048096 13.210175c-8.499634 8.4583435 -13.27478 19.930267 -13.27478 31.892181l0 0c0 24.909363 20.291748 45.102356 45.322876 45.102356l0 0c25.031128 0 45.322876 -20.192993 45.322876 -45.102356z" fill-rule="evenodd"/><path fill="#000000" fill-opacity="0.0" d="m1562.1831 509.413l-381.54333 -379.65356" fill-rule="evenodd"/><path stroke="#7e2366" stroke-width="4.0" stroke-linejoin="round" stroke-linecap="butt" d="m1562.1831 509.413l-381.54333 -379.65356" fill-rule="evenodd"/><path fill="#000000" fill-opacity="0.0" d="m1562.1831 573.1974l-380.09448 378.2362" fill-rule="evenodd"/><path stroke="#2a6c10" stroke-width="4.0" stroke-linejoin="round" stroke-linecap="butt" d="m1562.1831 573.1974l-380.09448 378.2362" fill-rule="evenodd"/><path fill="#ff40cc" d="m1197.5566 135.52507l0 0c0 -10.671707 -8.693481 -19.322838 -19.417358 -19.322838l0 0c-5.1497803 0 -10.088623 2.0357895 -13.730103 5.6595306c-3.6414795 3.6237335 -5.687256 8.538567 -5.687256 13.663307l0 0c0 10.671707 8.693481 19.32283 19.417358 19.32283l0 0c10.723877 0 19.417358 -8.651123 19.417358 -19.32283z" fill-rule="evenodd"/><path stroke="#000000" stroke-width="3.0" stroke-linejoin="round" stroke-linecap="butt" d="m1197.5566 135.52507l0 0c0 -10.671707 -8.693481 -19.322838 -19.417358 -19.322838l0 0c-5.1497803 0 -10.088623 2.0357895 -13.730103 5.6595306c-3.6414795 3.6237335 -5.687256 8.538567 -5.687256 13.663307l0 0c0 10.671707 8.693481 19.32283 19.417358 19.32283l0 0c10.723877 0 19.417358 -8.651123 19.417358 -19.32283z" fill-rule="evenodd"/><path fill="#55e31c" d="m1197.5566 947.09125l0 0c0 -10.671753 -8.693481 -19.322876 -19.417358 -19.322876l0 0c-5.1497803 0 -10.088623 2.0358276 -13.730103 5.659546c-3.6414795 3.6237183 -5.687256 8.538574 -5.687256 13.66333l0 0c0 10.671692 8.693481 19.322815 19.417358 19.322815l0 0c10.723877 0 19.417358 -8.651123 19.417358 -19.322815z" fill-rule="evenodd"/><path stroke="#000000" stroke-width="3.0" stroke-linejoin="round" stroke-linecap="butt" d="m1197.5566 947.09125l0 0c0 -10.671753 -8.693481 -19.322876 -19.417358 -19.322876l0 0c-5.1497803 0 -10.088623 2.0358276 -13.730103 5.659546c-3.6414795 3.6237183 -5.687256 8.538574 -5.687256 13.66333l0 0c0 10.671692 8.693481 19.322815 19.417358 19.322815l0 0c10.723877 0 19.417358 -8.651123 19.417358 -19.322815z" fill-rule="evenodd"/><path fill="#000000" fill-opacity="0.0" d="m1579.2357 164.42943l-147.18103 0l0 116.34645l147.18103 0z" fill-rule="evenodd"/><path fill="#000000" d="m1481.1953 227.04068l4.734375 0l0 3.546875l-4.734375 0l0 7.921875l-4.359375 0l0 -7.921875l-15.53125 0l0 -2.5625l15.28125 -23.640625l4.609375 0l0 22.65625zm-14.96875 0l10.609375 0l0 -16.734375l-0.515625 0.9375l-10.09375 15.796875zm25.609375 -5.640625l1.734375 -17.015625l17.484375 0l0 4.0l-13.796875 0l-1.03125 9.3125q2.5 -1.484375 5.6875 -1.484375q4.671875 0 7.40625 3.09375q2.75 3.078125 2.75 8.328125q0 5.265625 -2.859375 8.3125q-2.84375 3.03125 -7.953125 3.03125q-4.515625 0 -7.375 -2.5q-2.859375 -2.515625 -3.265625 -6.953125l4.109375 0q0.390625 2.9375 2.078125 4.421875q1.6875 1.484375 4.453125 1.484375q3.03125 0 4.75 -2.0625q1.71875 -2.0625 1.71875 -5.6875q0 -3.421875 -1.859375 -5.5q-1.859375 -2.078125 -4.953125 -2.078125q-2.84375 0 -4.453125 1.25l-1.15625 0.9375l-3.46875 -0.890625z" fill-rule="nonzero"/><path fill="#000000" d="m1515.3828 211.90005q0 -2.484375 0.96875 -4.46875q0.984375 -1.984375 2.71875 -3.0625q1.75 -1.078125 3.984375 -1.078125q3.453125 0 5.578125 2.390625q2.140625 2.390625 2.140625 6.359375l0 0.203125q0 2.46875 -0.953125 4.4375q-0.9375 1.953125 -2.703125 3.046875q-1.75 1.09375 -4.03125 1.09375q-3.4375 0 -5.578125 -2.390625q-2.125 -2.390625 -2.125 -6.328125l0 -0.203125zm2.90625 0.34375q0 2.8125 1.296875 4.515625q1.3125 1.703125 3.5 1.703125q2.203125 0 3.5 -1.71875q1.296875 -1.734375 1.296875 -4.84375q0 -2.78125 -1.328125 -4.5q-1.3125 -1.734375 -3.5 -1.734375q-2.140625 0 -3.453125 1.703125q-1.3125 1.703125 -1.3125 4.875z" fill-rule="nonzero"/><path fill="#000000" fill-opacity="0.0" d="m1412.156 639.6976l-236.44092 0l0 116.346436l236.44092 0z" fill-rule="evenodd"/><path fill="#000000" d="m1220.8088 713.7775l-4.359375 0l0 -28.90625l-8.75 3.21875l0 -3.9375l12.421875 -4.671875l0.6875 0l0 34.296875zm19.0 -19.171875l3.265625 0q3.0625 -0.046875 4.8125 -1.609375q1.765625 -1.578125 1.765625 -4.25q0 -6.0 -5.96875 -6.0q-2.8125 0 -4.5 1.609375q-1.671875 1.59375 -1.671875 4.25l-4.328125 0q0 -4.0625 2.953125 -6.734375q2.96875 -2.6875 7.546875 -2.6875q4.828125 0 7.5625 2.5625q2.75 2.546875 2.75 7.09375q0 2.21875 -1.453125 4.3125q-1.4375 2.078125 -3.921875 3.109375q2.8125 0.890625 4.34375 2.953125q1.546875 2.0625 1.546875 5.046875q0 4.59375 -3.0 7.296875q-3.0 2.6875 -7.8125 2.6875q-4.796875 0 -7.8125 -2.59375q-3.015625 -2.609375 -3.015625 -6.875l4.359375 0q0 2.6875 1.75 4.3125q1.765625 1.609375 4.71875 1.609375q3.140625 0 4.796875 -1.640625q1.671875 -1.640625 1.671875 -4.703125q0 -2.984375 -1.828125 -4.578125q-1.828125 -1.59375 -5.265625 -1.640625l-3.265625 0l0 -3.53125zm22.640625 2.0625l1.734375 -17.015625l17.484375 0l0 4.0l-13.796875 0l-1.03125 9.3125q2.5 -1.484375 5.6875 -1.484375q4.671875 0 7.40625 3.09375q2.75 3.078125 2.75 8.328125q0 5.265625 -2.859375 8.3125q-2.84375 3.03125 -7.953125 3.03125q-4.515625 0 -7.375 -2.5q-2.859375 -2.515625 -3.265625 -6.953125l4.109375 0q0.390625 2.9375 2.078125 4.421875q1.6875 1.484375 4.453125 1.484375q3.03125 0 4.75 -2.0625q1.71875 -2.0625 1.71875 -5.6875q0 -3.421875 -1.859375 -5.5q-1.859375 -2.078125 -4.953125 -2.078125q-2.84375 0 -4.453125 1.25l-1.15625 0.9375l-3.46875 -0.890625z" fill-rule="nonzero"/><path fill="#000000" d="m1285.9963 687.16815q0 -2.484375 0.96875 -4.46875q0.984375 -1.984375 2.71875 -3.0625q1.75 -1.078125 3.984375 -1.078125q3.453125 0 5.578125 2.390625q2.140625 2.390625 2.140625 6.359375l0 0.203125q0 2.46875 -0.953125 4.4375q-0.9375 1.953125 -2.703125 3.046875q-1.75 1.09375 -4.03125 1.09375q-3.4375 0 -5.578125 -2.390625q-2.125 -2.390625 -2.125 -6.328125l0 -0.203125zm2.90625 0.34375q0 2.8125 1.296875 4.515625q1.3125 1.703125 3.5 1.703125q2.203125 0 3.5 -1.71875q1.296875 -1.734375 1.296875 -4.84375q0 -2.78125 -1.328125 -4.5q-1.3125 -1.734375 -3.5 -1.734375q-2.140625 0 -3.453125 1.703125q-1.3125 1.703125 -1.3125 4.875z" fill-rule="nonzero"/><path fill="#000000" fill-opacity="0.0" d="m1348.8611 757.36786l-167.21252 166.2362l79.02356 78.64569l167.21265 -166.23627z" fill-rule="evenodd"/><path fill="#000000" d="m1244.371 943.6359q-3.798706 -3.7805786 -4.307251 -7.857849q-0.5085449 -4.0772095 2.4056396 -6.9744873q2.8920898 -2.875183 6.558838 -2.5986938l-8.583252 -8.542236l2.8145752 -2.7980957l23.390747 23.27887l-2.5928955 2.5777588l-1.9050293 -1.6313477q0.38671875 3.7576294 -2.6271973 6.7540283q-2.8588867 2.842163 -7.0129395 2.3010864q-4.154175 -0.54107666 -7.930786 -4.2996216l-0.21044922 -0.20941162zm3.1357422 -2.4784546q2.802002 2.7886353 5.538208 3.2191162q2.7471924 0.4194336 4.7860107 -1.6074829q2.6816406 -2.6659546 1.5083008 -6.3025513l-7.564331 -7.5281982q-3.5889893 -1.0587769 -6.21521 1.552002q-2.0721436 2.0600586 -1.6407471 4.803955q0.4423828 2.7328491 3.5877686 5.863159zm26.5802 -10.407227l-2.8145752 2.7980957l-16.479858 -16.401001l2.8145752 -2.7980957l16.479858 16.401001zm-23.890747 -17.714355q-0.6866455 -0.6833496 -0.7418213 -1.5759277q-0.05505371 -0.8925781 0.7648926 -1.7077637q0.8199463 -0.81518555 1.7172852 -0.75982666q0.9083252 0.044311523 1.5950928 0.72766113q0.6755371 0.6723633 0.7084961 1.5649414q0.033081055 0.87054443 -0.7869873 1.68573q-0.8199463 0.81518555 -1.6950684 0.78186035q-0.88623047 -0.044311523 -1.5618896 -0.7166748zm33.6261 -0.66711426q-1.1407471 -1.1352539 -2.6363525 -0.9042969q-1.4956055 0.23101807 -4.088257 1.9052124q-2.5926514 1.6741943 -4.498291 2.2907715q-1.8944092 0.6055298 -3.3677979 0.32965088q-1.484375 -0.28692627 -2.7026367 -1.4993286q-2.0267334 -2.0170898 -1.7156982 -5.102356q0.3109131 -3.1072998 2.9814453 -5.762207q2.8034668 -2.7871094 5.9940186 -3.0726929q3.1794434 -0.2966919 5.4277344 1.9407959l-2.8256836 2.809143q-1.1517334 -1.1463013 -2.968628 -0.9925537q-1.8278809 0.14276123 -3.3127441 1.6189575q-1.5402832 1.53125 -1.7399902 3.0738525q-0.1998291 1.5205688 0.87438965 2.5897217q1.0189209 1.0140381 2.3483887 0.7279053q1.3294678 -0.2861328 3.9110107 -1.9052124q2.581665 -1.6411743 4.5426025 -2.2907715q1.9609375 -0.64959717 3.5229492 -0.35162354q1.5507812 0.28692627 2.8687744 1.5985107q2.2149658 2.2044678 1.7821045 5.30072q-0.43273926 3.0742188 -3.2473145 5.8723145q-1.9835205 1.9719238 -4.210327 2.7977295q-2.2269287 0.803833 -4.3427734 0.4175415q-2.1157227 -0.40826416 -3.5776367 -1.8632202l2.8144531 -2.7980957q1.4952393 1.3337402 3.37854 1.1138916q1.8944092 -0.230896 3.6341553 -1.9604492q1.595581 -1.5863037 1.9172363 -3.184021q0.32165527 -1.61969 -0.7636719 -2.6998901zm-5.775879 -26.27124l3.9870605 3.9679565l3.069336 -3.0514526l2.1818848 2.1713867l-3.069458 3.0514526l10.211304 10.162476q0.9967041 0.99194336 1.9051514 1.0803833q0.8972168 0.07739258 1.8834229 -0.9030762q0.48754883 -0.48468018 1.1635742 -1.5092773l2.2814941 2.2705688q-0.79797363 1.4102173 -1.8505859 2.456726q-1.8837891 1.8727417 -3.9885254 1.6958618q-2.1158447 -0.18786621 -4.220093 -2.2821045l-10.211304 -10.162476l-3.0029297 2.9854126l-2.1818848 -2.1713867l3.0029297 -2.9853516l-3.9870605 -3.9680176l2.8256836 -2.809082zm41.019287 4.519348l-13.950806 13.869385l-2.3035889 -2.2926636l13.950684 -13.869324l2.303711 2.2926025zm8.8602295 -13.391357l-2.8255615 2.809143l-18.772339 -18.682617l-3.602417 7.7234497l-2.5583496 -2.5461426l5.043335 -11.050842l0.4321289 -0.42962646l22.283203 22.176636zm-0.1015625 -24.68573l2.116455 -2.104065q1.9724121 -2.0269775 2.0948486 -4.175659q0.12231445 -2.1487427 -1.6164551 -3.8792114q-3.8984375 -3.8798218 -7.787842 -0.013122559q-1.8283691 1.817627 -1.8620605 3.944336q-0.044921875 2.1156616 1.6717529 3.8240967l-2.8255615 2.809143q-2.6359863 -2.623291 -2.4466553 -6.270569q0.17822266 -3.6583252 3.1478271 -6.6106567q3.1358643 -3.1175537 6.5811768 -3.237854q3.4453125 -0.12023926 6.4023438 2.8226318q1.4509277 1.4439087 1.8601074 3.7250366q0.42041016 2.2700195 -0.5217285 4.55072q2.4041748 -1.2445068 4.741577 -0.9022827q2.3374023 0.34228516 4.2755127 2.2711182q2.979248 2.9649658 2.789917 6.656372q-0.20031738 3.680359 -3.3251953 6.786865q-3.1136475 3.095581 -6.7695312 3.3590088q-3.6557617 0.26348877 -6.4245605 -2.4920654l2.83667 -2.8201294q1.7498779 1.7415161 3.9433594 1.6539307q2.1934814 -0.087524414 4.121582 -2.0043335q2.0388184 -2.0269775 2.050537 -4.1536865q0.01159668 -2.1487427 -1.9819336 -4.1327515q-1.927124 -1.9178467 -4.1427 -1.7641602q-2.2266846 0.14263916 -4.5093994 2.3458252l-2.116455 2.104126l-2.3035889 -2.2926636zm16.058228 -13.298462l-9.9227295 -12.123779l11.3688965 -11.302612l2.6026611 2.59021l-8.975464 8.923096l5.3710938 6.6901245q0.6763916 -2.5893555 2.7485352 -4.649353q3.0250244 -3.0074463 6.8137207 -2.7860107q3.7885742 0.22143555 7.199707 3.616272q3.4222412 3.4058228 3.5541992 7.218506q0.12084961 3.8016357 -3.2033691 7.1065063q-2.9364014 2.9192505 -6.4260254 3.1497192q-3.5007324 0.21942139 -6.635132 -2.3929443l2.6594238 -2.643921q2.1708984 1.6314697 4.2424316 1.5108032q2.0605469 -0.13165283 3.855713 -1.9162598q1.9613037 -1.9498901 1.7403564 -4.396179q-0.20983887 -2.4573364 -2.5688477 -4.8050537q-2.2260742 -2.215454 -4.7851562 -2.3374023q-2.55896 -0.1439209 -4.5756836 1.861023q-1.8393555 1.8286743 -2.0946045 3.6687622l-0.13330078 1.3443604l-2.8364258 1.6741333z" fill-rule="nonzero"/><path fill="#d9d9d9" d="m2339.4753 389.58408l0 145.29135l0 0c0 80.24219 74.42651 145.29132 166.23633 145.29132c91.80957 0 166.23608 -65.04913 166.23608 -145.29132l0 -145.29135z" fill-rule="evenodd"/><path stroke="#000000" stroke-width="8.0" stroke-linejoin="round" stroke-linecap="butt" d="m2339.4753 389.58408l0 145.29135l0 0c0 80.24219 74.42651 145.29132 166.23633 145.29132c91.80957 0 166.23608 -65.04913 166.23608 -145.29132l0 -145.29135z" fill-rule="evenodd"/><path fill="#000000" fill-opacity="0.0" d="m2505.7012 463.95663l-71.275635 0l0 70.92917l71.275635 0z" fill-rule="evenodd"/><path stroke="#000000" stroke-width="3.0" stroke-linejoin="round" stroke-linecap="butt" stroke-dasharray="12.0,9.0" d="m2505.7012 463.95663l-71.275635 0l0 70.92917l71.275635 0z" fill-rule="evenodd"/><path fill="#000000" fill-opacity="0.0" d="m2505.6953 489.78635l0 -392.50394" fill-rule="evenodd"/><path stroke="#000000" stroke-width="3.0" stroke-linejoin="round" stroke-linecap="butt" stroke-dasharray="3.0,9.0" d="m2505.6953 489.78635l0 -392.50394" fill-rule="evenodd"/><path fill="#000000" fill-opacity="0.0" d="m2460.3726 534.88873l-312.78735 0" fill-rule="evenodd"/><path stroke="#000000" stroke-width="3.0" stroke-linejoin="round" stroke-linecap="butt" stroke-dasharray="3.0,9.0" d="m2460.3726 534.88873l-312.78735 0" fill-rule="evenodd"/><path fill="#000000" fill-opacity="0.0" d="m2297.891 35.436806l-272.15735 1017.60626" fill-rule="evenodd"/><path stroke="#000000" stroke-width="8.0" stroke-linejoin="round" stroke-linecap="butt" d="m2297.891 35.436806l-272.15735 1017.60626" fill-rule="evenodd"/><path fill="#00a2ff" d="m2180.7866 534.89166l0 0c0 -10.671692 -8.6936035 -19.322815 -19.41748 -19.322815l0 0c-5.149658 0 -10.088623 2.0357666 -13.72998 5.659546c-3.6416016 3.6237183 -5.687256 8.538574 -5.687256 13.663269l0 0c0 10.671753 8.693359 19.322876 19.417236 19.322876l0 0c10.723877 0 19.41748 -8.651123 19.41748 -19.322876z" fill-rule="evenodd"/><path stroke="#000000" stroke-width="3.0" stroke-linejoin="round" stroke-linecap="butt" d="m2180.7866 534.89166l0 0c0 -10.671692 -8.6936035 -19.322815 -19.41748 -19.322815l0 0c-5.149658 0 -10.088623 2.0357666 -13.72998 5.659546c-3.6416016 3.6237183 -5.687256 8.538574 -5.687256 13.663269l0 0c0 10.671753 8.693359 19.322876 19.417236 19.322876l0 0c10.723877 0 19.41748 -8.651123 19.41748 -19.322876z" fill-rule="evenodd"/><path fill="#ffffff" d="m2551.0183 534.88873l0 0c0 -24.909363 -20.291748 -45.102386 -45.322998 -45.102386l0 0c-12.020264 0 -23.54834 4.7518616 -32.048096 13.210175c-8.499512 8.4583435 -13.274658 19.930298 -13.274658 31.892212l0 0c0 24.909363 20.291748 45.102356 45.322754 45.102356l0 0c25.03125 0 45.322998 -20.192993 45.322998 -45.102356z" fill-rule="evenodd"/><path stroke="#000000" stroke-width="8.0" stroke-linejoin="round" stroke-linecap="butt" d="m2551.0183 534.88873l0 0c0 -24.909363 -20.291748 -45.102386 -45.322998 -45.102386l0 0c-12.020264 0 -23.54834 4.7518616 -32.048096 13.210175c-8.499512 8.4583435 -13.274658 19.930298 -13.274658 31.892212l0 0c0 24.909363 20.291748 45.102356 45.322754 45.102356l0 0c25.03125 0 45.322998 -20.192993 45.322998 -45.102356z" fill-rule="evenodd"/><path fill="#000000" fill-opacity="0.0" d="m2473.6472 502.99652l-243.68481 -242.51968" fill-rule="evenodd"/><path stroke="#7e2366" stroke-width="4.0" stroke-linejoin="round" stroke-linecap="butt" d="m2473.6472 502.99652l-243.68481 -242.51968" fill-rule="evenodd"/><path fill="#000000" fill-opacity="0.0" d="m2473.6472 566.7809l-434.0786 431.9685" fill-rule="evenodd"/><path stroke="#2a6c10" stroke-width="4.0" stroke-linejoin="round" stroke-linecap="butt" d="m2473.6472 566.7809l-434.0786 431.9685" fill-rule="evenodd"/><path fill="#ff40cc" d="m2255.4766 271.44748l0 0c0 -10.671692 -8.693359 -19.32283 -19.417236 -19.32283l0 0c-5.1499023 0 -10.088623 2.035797 -13.730225 5.6595306c-3.6413574 3.6237488 -5.6870117 8.538574 -5.6870117 13.6633l0 0c0 10.671722 8.693359 19.322845 19.417236 19.322845l0 0c10.723877 0 19.417236 -8.651123 19.417236 -19.322845z" fill-rule="evenodd"/><path stroke="#000000" stroke-width="3.0" stroke-linejoin="round" stroke-linecap="butt" d="m2255.4766 271.44748l0 0c0 -10.671692 -8.693359 -19.32283 -19.417236 -19.32283l0 0c-5.1499023 0 -10.088623 2.035797 -13.730225 5.6595306c-3.6413574 3.6237488 -5.6870117 8.538574 -5.6870117 13.6633l0 0c0 10.671722 8.693359 19.322845 19.417236 19.322845l0 0c10.723877 0 19.417236 -8.651123 19.417236 -19.322845z" fill-rule="evenodd"/><path fill="#55e31c" d="m2064.52 993.3337l0 0c0 -10.671692 -8.693359 -19.322815 -19.417236 -19.322815l0 0c-5.1497803 0 -10.088623 2.0357666 -13.730103 5.659546c-3.6414795 3.6237183 -5.687134 8.538574 -5.687134 13.663269l0 0c0 10.671692 8.693359 19.322876 19.417236 19.322876l0 0c10.723877 0 19.417236 -8.651184 19.417236 -19.322876z" fill-rule="evenodd"/><path stroke="#000000" stroke-width="3.0" stroke-linejoin="round" stroke-linecap="butt" d="m2064.52 993.3337l0 0c0 -10.671692 -8.693359 -19.322815 -19.417236 -19.322815l0 0c-5.1497803 0 -10.088623 2.0357666 -13.730103 5.659546c-3.6414795 3.6237183 -5.687134 8.538574 -5.687134 13.663269l0 0c0 10.671692 8.693359 19.322876 19.417236 19.322876l0 0c10.723877 0 19.417236 -8.651184 19.417236 -19.322876z" fill-rule="evenodd"/><path fill="#000000" fill-opacity="0.0" d="m2515.075 156.24693l-147.18115 0l0 116.34645l147.18115 0z" fill-rule="evenodd"/><path fill="#000000" d="m2417.0344 218.85818l4.734375 0l0 3.546875l-4.734375 0l0 7.921875l-4.359375 0l0 -7.921875l-15.53125 0l0 -2.5625l15.28125 -23.640625l4.609375 0l0 22.65625zm-14.96875 0l10.609375 0l0 -16.734375l-0.515625 0.9375l-10.09375 15.796875zm25.609375 -5.640625l1.734375 -17.015625l17.484375 0l0 4.0l-13.796875 0l-1.03125 9.3125q2.5 -1.484375 5.6875 -1.484375q4.671875 0 7.40625 3.09375q2.75 3.078125 2.75 8.328125q0 5.265625 -2.859375 8.3125q-2.84375 3.03125 -7.953125 3.03125q-4.515625 0 -7.375 -2.5q-2.859375 -2.515625 -3.265625 -6.953125l4.109375 0q0.390625 2.9375 2.078125 4.421875q1.6875 1.484375 4.453125 1.484375q3.03125 0 4.75 -2.0625q1.71875 -2.0625 1.71875 -5.6875q0 -3.421875 -1.859375 -5.5q-1.859375 -2.078125 -4.953125 -2.078125q-2.84375 0 -4.453125 1.25l-1.15625 0.9375l-3.46875 -0.890625z" fill-rule="nonzero"/><path fill="#000000" d="m2451.222 203.71756q0 -2.484375 0.96875 -4.46875q0.984375 -1.984375 2.71875 -3.0625q1.75 -1.078125 3.984375 -1.078125q3.453125 0 5.578125 2.390625q2.140625 2.390625 2.140625 6.359375l0 0.203125q0 2.46875 -0.953125 4.4375q-0.9375 1.953125 -2.703125 3.046875q-1.75 1.09375 -4.03125 1.09375q-3.4375 0 -5.578125 -2.390625q-2.125 -2.390625 -2.125 -6.328125l0 -0.203125zm2.90625 0.34375q0 2.8125 1.296875 4.515625q1.3125 1.703125 3.5 1.703125q2.203125 0 3.5 -1.71875q1.296875 -1.734375 1.296875 -4.84375q0 -2.78125 -1.328125 -4.5q-1.3125 -1.734375 -3.5 -1.734375q-2.140625 0 -3.453125 1.703125q-1.3125 1.703125 -1.3125 4.875z" fill-rule="nonzero"/><path fill="#000000" fill-opacity="0.0" d="m2343.581 655.6967l-236.44092 0l0 116.3465l236.44092 0z" fill-rule="evenodd"/><path fill="#000000" d="m2152.234 729.77673l-4.359375 0l0 -28.90625l-8.75 3.21875l0 -3.9375l12.421875 -4.671875l0.6875 0l0 34.296875zm19.0 -19.171875l3.265625 0q3.0625 -0.046875 4.8125 -1.609375q1.765625 -1.578125 1.765625 -4.25q0 -6.0 -5.96875 -6.0q-2.8125 0 -4.5 1.609375q-1.671875 1.59375 -1.671875 4.25l-4.328125 0q0 -4.0625 2.953125 -6.734375q2.96875 -2.6875 7.546875 -2.6875q4.828125 0 7.5625 2.5625q2.75 2.546875 2.75 7.09375q0 2.21875 -1.453125 4.3125q-1.4375 2.078125 -3.921875 3.109375q2.8125 0.890625 4.34375 2.953125q1.546875 2.0625 1.546875 5.046875q0 4.59375 -3.0 7.296875q-3.0 2.6875 -7.8125 2.6875q-4.796875 0 -7.8125 -2.59375q-3.015625 -2.609375 -3.015625 -6.875l4.359375 0q0 2.6875 1.75 4.3125q1.765625 1.609375 4.71875 1.609375q3.140625 0 4.796875 -1.640625q1.671875 -1.640625 1.671875 -4.703125q0 -2.984375 -1.828125 -4.578125q-1.828125 -1.59375 -5.265625 -1.640625l-3.265625 0l0 -3.53125zm22.640625 2.0625l1.734375 -17.015625l17.484375 0l0 4.0l-13.796875 0l-1.03125 9.3125q2.5 -1.484375 5.6875 -1.484375q4.671875 0 7.40625 3.09375q2.75 3.078125 2.75 8.328125q0 5.265625 -2.859375 8.3125q-2.84375 3.03125 -7.953125 3.03125q-4.515625 0 -7.375 -2.5q-2.859375 -2.515625 -3.265625 -6.953125l4.109375 0q0.390625 2.9375 2.078125 4.421875q1.6875 1.484375 4.453125 1.484375q3.03125 0 4.75 -2.0625q1.71875 -2.0625 1.71875 -5.6875q0 -3.421875 -1.859375 -5.5q-1.859375 -2.078125 -4.953125 -2.078125q-2.84375 0 -4.453125 1.25l-1.15625 0.9375l-3.46875 -0.890625z" fill-rule="nonzero"/><path fill="#000000" d="m2217.4214 703.16736q0 -2.484375 0.96875 -4.46875q0.984375 -1.984375 2.71875 -3.0625q1.75 -1.078125 3.984375 -1.078125q3.453125 0 5.578125 2.390625q2.140625 2.390625 2.140625 6.359375l0 0.203125q0 2.46875 -0.953125 4.4375q-0.9375 1.953125 -2.703125 3.046875q-1.75 1.09375 -4.03125 1.09375q-3.4375 0 -5.578125 -2.390625q-2.125 -2.390625 -2.125 -6.328125l0 -0.203125zm2.90625 0.34375q0 2.8125 1.296875 4.515625q1.3125 1.703125 3.5 1.703125q2.203125 0 3.5 -1.71875q1.296875 -1.734375 1.296875 -4.84375q0 -2.78125 -1.328125 -4.5q-1.3125 -1.734375 -3.5 -1.734375q-2.140625 0 -3.453125 1.703125q-1.3125 1.703125 -1.3125 4.875z" fill-rule="nonzero"/><path fill="#000000" fill-opacity="0.0" d="m2279.5798 181.29721l-236.44104 0l0 111.49606l236.44104 0z" fill-rule="evenodd"/><path fill="#000000" d="m2073.1855 239.72472q0 -5.359375 2.53125 -8.609375q2.53125 -3.25 6.640625 -3.25q4.078125 0 6.46875 2.78125l0 -12.109375l3.96875 0l0 33.0l-3.65625 0l-0.1875 -2.5q-2.390625 2.9375 -6.640625 2.9375q-4.03125 0 -6.578125 -3.3125q-2.546875 -3.3125 -2.546875 -8.640625l0 -0.296875zm3.96875 0.453125q0 3.953125 1.625 6.1875q1.640625 2.234375 4.515625 2.234375q3.78125 0 5.53125 -3.40625l0 -10.671875q-1.78125 -3.28125 -5.484375 -3.28125q-2.921875 0 -4.5625 2.25q-1.625 2.25 -1.625 6.6875zm26.126953 11.359375l-3.96875 0l0 -23.25l3.96875 0l0 23.25zm-4.296875 -29.40625q0 -0.96875 0.59375 -1.640625q0.59375 -0.671875 1.75 -0.671875q1.15625 0 1.75 0.671875q0.609375 0.671875 0.609375 1.640625q0 0.953125 -0.609375 1.609375q-0.59375 0.640625 -1.75 0.640625q-1.15625 0 -1.75 -0.640625q-0.59375 -0.65625 -0.59375 -1.609375zm24.19336 23.234375q0 -1.609375 -1.21875 -2.5q-1.21875 -0.890625 -4.234375 -1.53125q-3.015625 -0.640625 -4.796875 -1.546875q-1.765625 -0.90625 -2.609375 -2.140625q-0.84375 -1.25 -0.84375 -2.96875q0 -2.859375 2.40625 -4.828125q2.421875 -1.984375 6.1875 -1.984375q3.953125 0 6.40625 2.046875q2.453125 2.03125 2.453125 5.203125l-3.984375 0q0 -1.625 -1.390625 -2.796875q-1.390625 -1.1875 -3.484375 -1.1875q-2.171875 0 -3.40625 0.953125q-1.21875 0.9375 -1.21875 2.453125q0 1.4375 1.140625 2.171875q1.140625 0.734375 4.109375 1.40625q2.984375 0.65625 4.828125 1.578125q1.84375 0.921875 2.734375 2.234375q0.890625 1.296875 0.890625 3.15625q0 3.125 -2.5 5.015625q-2.484375 1.875 -6.453125 1.875q-2.796875 0 -4.953125 -0.984375q-2.140625 -1.0 -3.359375 -2.765625q-1.203125 -1.78125 -1.203125 -3.84375l3.96875 0q0.109375 2.0 1.59375 3.171875q1.5 1.171875 3.953125 1.171875q2.25 0 3.609375 -0.90625q1.375 -0.921875 1.375 -2.453125zm14.546875 -22.703125l0 5.625l4.328125 0l0 3.078125l-4.328125 0l0 14.40625q0 1.40625 0.578125 2.109375q0.578125 0.6875 1.96875 0.6875q0.6875 0 1.890625 -0.25l0 3.21875q-1.5625 0.4375 -3.046875 0.4375q-2.65625 0 -4.015625 -1.609375q-1.359375 -1.625 -1.359375 -4.59375l0 -14.40625l-4.234375 0l0 -3.078125l4.234375 0l0 -5.625l3.984375 0zm25.732422 32.125l-19.671875 0l0 -3.25l19.671875 0l0 3.25zm19.460938 -13.75l4.34375 0l0 3.234375l-4.34375 0l0 7.265625l-3.984375 0l0 -7.265625l-14.25 0l0 -2.34375l14.0 -21.671875l4.234375 0l0 20.78125zm-13.71875 0l9.734375 0l0 -15.34375l-0.484375 0.859375l-9.25 14.484375zm23.472656 -5.1875l1.59375 -15.59375l16.03125 0l0 3.671875l-12.65625 0l-0.953125 8.53125q2.3125 -1.359375 5.234375 -1.359375q4.265625 0 6.78125 2.828125q2.515625 2.828125 2.515625 7.640625q0 4.828125 -2.609375 7.625q-2.609375 2.78125 -7.296875 2.78125q-4.140625 0 -6.765625 -2.296875q-2.625 -2.3125 -2.984375 -6.375l3.75 0q0.375 2.6875 1.921875 4.0625q1.546875 1.359375 4.078125 1.359375q2.765625 0 4.34375 -1.890625q1.59375 -1.890625 1.59375 -5.21875q0 -3.140625 -1.71875 -5.03125q-1.703125 -1.90625 -4.546875 -1.90625q-2.59375 0 -4.078125 1.125l-1.046875 0.859375l-3.1875 -0.8125z" fill-rule="nonzero"/><path fill="#000000" fill-opacity="0.0" d="m2219.8892 799.4785l-167.21265 166.2362l79.02368 78.64563l167.21265 -166.2362z" fill-rule="evenodd"/><path fill="#000000" d="m2115.399 985.7466q-3.7988281 -3.7805786 -4.307129 -7.857849q-0.5085449 -4.0772095 2.4055176 -6.9744873q2.8920898 -2.875183 6.558838 -2.5986938l-8.583252 -8.542175l2.8146973 -2.7981567l23.390625 23.27887l-2.5927734 2.5777588l-1.9050293 -1.6313477q0.38671875 3.7576904 -2.6271973 6.7540283q-2.8588867 2.842163 -7.0131836 2.3011475q-4.1540527 -0.54107666 -7.930664 -4.2996826l-0.21044922 -0.20941162zm3.1357422 -2.4784546q2.802002 2.7886353 5.538086 3.2191162q2.7473145 0.41949463 4.786133 -1.6074829q2.6816406 -2.6658936 1.5083008 -6.3025513l-7.564209 -7.5281982q-3.5891113 -1.0587769 -6.215332 1.552063q-2.0720215 2.0599976 -1.640625 4.803894q0.4423828 2.7328491 3.5876465 5.863159zm26.580322 -10.407227l-2.8146973 2.7980957l-16.479736 -16.401001l2.8144531 -2.7980957l16.47998 16.401001zm-23.89087 -17.714294q-0.68652344 -0.68341064 -0.7416992 -1.5759888q-0.05517578 -0.8925781 0.7648926 -1.7077637q0.8198242 -0.81518555 1.7172852 -0.75982666q0.9082031 0.044311523 1.5949707 0.72772217q0.6755371 0.67230225 0.7084961 1.5648804q0.033203125 0.87054443 -0.78686523 1.68573q-0.82006836 0.81518555 -1.6950684 0.78186035q-0.88623047 -0.044311523 -1.5620117 -0.71661377zm33.62622 -0.6671753q-1.1408691 -1.1352539 -2.6364746 -0.9042969q-1.4956055 0.23101807 -4.088135 1.9052124q-2.5927734 1.6741943 -4.498291 2.2907715q-1.8945312 0.6055298 -3.36792 0.32965088q-1.484375 -0.28692627 -2.7026367 -1.4993286q-2.0266113 -2.0170898 -1.7155762 -5.102356q0.31079102 -3.1072998 2.9814453 -5.762207q2.8034668 -2.7871094 5.9938965 -3.0726929q3.1794434 -0.2966919 5.4277344 1.9408569l-2.8256836 2.809082q-1.1518555 -1.1463013 -2.9685059 -0.9925537q-1.8278809 0.14276123 -3.3127441 1.6189575q-1.5402832 1.53125 -1.7399902 3.0738525q-0.19995117 1.5205688 0.8742676 2.5897217q1.019043 1.0140381 2.3483887 0.7279053q1.3295898 -0.2861328 3.9111328 -1.9052124q2.581543 -1.6411743 4.5424805 -2.2907715q1.9609375 -0.64959717 3.5229492 -0.35162354q1.5507812 0.28692627 2.8688965 1.5985718q2.2148438 2.2044067 1.7819824 5.300659q-0.4326172 3.0742188 -3.2473145 5.8723755q-1.9833984 1.9718628 -4.210205 2.7976685q-2.2270508 0.803833 -4.3427734 0.4175415q-2.1157227 -0.40826416 -3.5776367 -1.8631592l2.8144531 -2.7981567q1.4951172 1.3337402 3.378418 1.1138916q1.8945312 -0.230896 3.6342773 -1.9604492q1.595459 -1.5863037 1.9172363 -3.184021q0.3215332 -1.61969 -0.7636719 -2.6998901zm-5.775879 -26.27124l3.9870605 3.9679565l3.069336 -3.0514526l2.1816406 2.1713867l-3.069336 3.0514526l10.211426 10.162476q0.99658203 0.9920044 1.9050293 1.0803833q0.8972168 0.07739258 1.8835449 -0.9030762q0.48754883 -0.48468018 1.1635742 -1.5092773l2.2814941 2.2705688q-0.7980957 1.4102173 -1.8505859 2.456726q-1.8837891 1.8727417 -3.9885254 1.6958618q-2.1159668 -0.18786621 -4.220215 -2.2821045l-10.211182 -10.162415l-3.0029297 2.9853516l-2.1818848 -2.1713867l3.0029297 -2.9853516l-3.9870605 -3.9680176l2.8256836 -2.809082zm41.019287 4.519409l-13.950928 13.869324l-2.303711 -2.2926636l13.950928 -13.869324l2.303711 2.2926636zm8.860107 -13.391418l-2.8254395 2.809143l-18.77246 -18.682617l-3.602295 7.7234497l-2.5583496 -2.5461426l5.043213 -11.050842l0.4321289 -0.42962646l22.283203 22.176636zm-0.1015625 -24.685669l2.116455 -2.104126q1.9724121 -2.0269775 2.0949707 -4.175659q0.12231445 -2.1487427 -1.6164551 -3.8792114q-3.8984375 -3.8798218 -7.787842 -0.013122559q-1.8283691 1.817627 -1.8620605 3.944336q-0.044921875 2.1156616 1.6716309 3.8240967l-2.8254395 2.809143q-2.6359863 -2.623291 -2.4467773 -6.270569q0.17822266 -3.6583252 3.1479492 -6.6106567q3.1357422 -3.1175537 6.5810547 -3.237854q3.4453125 -0.12023926 6.4023438 2.8226929q1.4509277 1.4438477 1.8601074 3.7249756q0.42041016 2.2700195 -0.5217285 4.5507812q2.4042969 -1.2445679 4.741699 -0.9022827q2.3374023 0.34222412 4.2753906 2.2711182q2.979248 2.9649658 2.790039 6.656311q-0.20043945 3.680359 -3.3251953 6.786865q-3.1137695 3.095581 -6.7695312 3.3590088q-3.6557617 0.26348877 -6.4245605 -2.4920654l2.83667 -2.8201294q1.7497559 1.7415161 3.9433594 1.6539307q2.1933594 -0.087524414 4.121582 -2.0043335q2.0388184 -2.0269775 2.050537 -4.1536865q0.011474609 -2.1487427 -1.9819336 -4.1326904q-1.9272461 -1.9179077 -4.1428223 -1.7642212q-2.2268066 0.14263916 -4.5092773 2.3458252l-2.116455 2.104126l-2.303711 -2.2926025zm16.05835 -13.298523l-9.922852 -12.123779l11.3688965 -11.302612l2.6027832 2.59021l-8.975586 8.923096l5.3710938 6.6901245q0.6765137 -2.5893555 2.7485352 -4.649353q3.0251465 -3.0073853 6.8137207 -2.7860107q3.7885742 0.22143555 7.199707 3.616272q3.4223633 3.4058228 3.5541992 7.218506q0.12084961 3.8016357 -3.2033691 7.1065063q-2.9362793 2.9192505 -6.4260254 3.1497192q-3.5007324 0.21942139 -6.63501 -2.3929443l2.6594238 -2.643921q2.1708984 1.6314697 4.2424316 1.5108032q2.0605469 -0.13165283 3.855713 -1.9162598q1.9611816 -1.9498901 1.7402344 -4.396179q-0.2097168 -2.4573364 -2.5688477 -4.8050537q-2.2260742 -2.215454 -4.7851562 -2.3374023q-2.558838 -0.1439209 -4.5756836 1.861023q-1.8393555 1.8286743 -2.0944824 3.6688232l-0.13330078 1.3442993l-2.8364258 1.6741333z" fill-rule="nonzero"/><path fill="#000000" fill-opacity="0.0" d="m144.55728 1085.2572l561.3544 0l0 81.95276l-561.3544 0z" fill-rule="evenodd"/><path fill="#000000" d="m239.31134 1143.8972l0 -3.3125q-2.484375 3.90625 -7.34375 3.90625q-3.140625 0 -5.78125 -1.734375q-2.625 -1.734375 -4.078125 -4.828125q-1.4375 -3.109375 -1.4375 -7.140625q0 -3.9375 1.3125 -7.140625q1.3125 -3.203125 3.921875 -4.90625q2.625 -1.703125 5.875 -1.703125q2.375 0 4.21875 1.0q1.859375 1.0 3.015625 2.609375l0 -13.015625l4.4375 0l0 36.265625l-4.140625 0zm-14.0625 -13.109375q0 5.046875 2.125 7.546875q2.125 2.5 5.015625 2.5q2.921875 0 4.953125 -2.390625q2.046875 -2.390625 2.046875 -7.28125q0 -5.390625 -2.078125 -7.90625q-2.078125 -2.53125 -5.125 -2.53125q-2.953125 0 -4.953125 2.421875q-1.984375 2.421875 -1.984375 7.640625zm25.219467 -18.03125l0 -5.125l4.453125 0l0 5.125l-4.453125 0zm0 31.140625l0 -26.265625l4.453125 0l0 26.265625l-4.453125 0zm9.457321 -7.84375l4.40625 -0.6875q0.359375 2.640625 2.046875 4.0625q1.703125 1.40625 4.75 1.40625q3.0625 0 4.546875 -1.25q1.484375 -1.25 1.484375 -2.9375q0 -1.5 -1.3125 -2.375q-0.90625 -0.59375 -4.546875 -1.5q-4.90625 -1.25 -6.796875 -2.140625q-1.890625 -0.90625 -2.875 -2.5q-0.96875 -1.59375 -0.96875 -3.53125q0 -1.75 0.796875 -3.25q0.8125 -1.5 2.203125 -2.484375q1.03125 -0.765625 2.828125 -1.296875q1.796875 -0.53125 3.84375 -0.53125q3.09375 0 5.421875 0.890625q2.34375 0.890625 3.453125 2.421875q1.125 1.515625 1.546875 4.0625l-4.359375 0.59375q-0.296875 -2.03125 -1.71875 -3.171875q-1.421875 -1.140625 -4.015625 -1.140625q-3.078125 0 -4.390625 1.015625q-1.296875 1.015625 -1.296875 2.375q0 0.859375 0.53125 1.5625q0.546875 0.71875 1.71875 1.1875q0.65625 0.25 3.921875 1.140625q4.734375 1.25 6.59375 2.0625q1.875 0.796875 2.9375 2.328125q1.0625 1.53125 1.0625 3.8125q0 2.234375 -1.296875 4.203125q-1.296875 1.953125 -3.75 3.03125q-2.453125 1.078125 -5.546875 1.078125q-5.109375 0 -7.796875 -2.125q-2.6875 -2.125 -3.421875 -6.3125zm36.828125 3.859375l0.640625 3.9375q-1.875 0.390625 -3.359375 0.390625q-2.421875 0 -3.765625 -0.765625q-1.328125 -0.765625 -1.875 -2.015625q-0.546875 -1.25 -0.546875 -5.25l0 -15.125l-3.265625 0l0 -3.453125l3.265625 0l0 -6.5l4.421875 -2.671875l0 9.171875l4.484375 0l0 3.453125l-4.484375 0l0 15.375q0 1.890625 0.234375 2.4375q0.234375 0.546875 0.765625 0.875q0.53125 0.3125 1.53125 0.3125q0.734375 0 1.953125 -0.171875zm0.24578857 14.046875l0 -3.21875l29.5 0l0 3.21875l-29.5 0zm45.313232 -10.0625l0 -8.6875l-15.734375 0l0 -4.078125l16.546875 -23.5l3.640625 0l0 23.5l4.890625 0l0 4.078125l-4.890625 0l0 8.6875l-4.453125 0zm0 -12.765625l0 -16.34375l-11.359375 16.34375l11.359375 0zm13.906952 3.265625l4.671875 -0.390625q0.515625 3.40625 2.40625 5.125q1.890625 1.71875 4.5625 1.71875q3.21875 0 5.4375 -2.421875q2.234375 -2.421875 2.234375 -6.421875q0 -3.8125 -2.140625 -6.015625q-2.140625 -2.203125 -5.609375 -2.203125q-2.140625 0 -3.875 0.984375q-1.734375 0.96875 -2.71875 2.53125l-4.1875 -0.546875l3.515625 -18.625l18.03125 0l0 4.25l-14.46875 0l-1.953125 9.75q3.265625 -2.28125 6.84375 -2.28125q4.75 0 8.015625 3.296875q3.265625 3.28125 3.265625 8.453125q0 4.921875 -2.859375 8.515625q-3.5 4.40625 -9.53125 4.40625q-4.9375 0 -8.078125 -2.765625q-3.125 -2.78125 -3.5625 -7.359375zm66.91843 -6.359375l-24.015656 10.265625l0 -4.421875l19.03128 -7.890625l-19.03128 -7.8125l0 -4.4375l24.015656 10.140625l0 4.15625zm37.250122 15.859375l0 -3.3125q-2.484375 3.90625 -7.34375 3.90625q-3.140625 0 -5.78125 -1.734375q-2.625 -1.734375 -4.078125 -4.828125q-1.4375 -3.109375 -1.4375 -7.140625q0 -3.9375 1.3125 -7.140625q1.3125 -3.203125 3.921875 -4.90625q2.625 -1.703125 5.875 -1.703125q2.375 0 4.21875 1.0q1.859375 1.0 3.015625 2.609375l0 -13.015625l4.4375 0l0 36.265625l-4.140625 0zm-14.0625 -13.109375q0 5.046875 2.125 7.546875q2.125 2.5 5.015625 2.5q2.921875 0 4.953125 -2.390625q2.046875 -2.390625 2.046875 -7.28125q0 -5.390625 -2.078125 -7.90625q-2.078125 -2.53125 -5.125 -2.53125q-2.953125 0 -4.953125 2.421875q-1.984375 2.421875 -1.984375 7.640625zm25.219482 -18.03125l0 -5.125l4.453125 0l0 5.125l-4.453125 0zm0 31.140625l0 -26.265625l4.453125 0l0 26.265625l-4.453125 0zm9.457306 -7.84375l4.40625 -0.6875q0.359375 2.640625 2.046875 4.0625q1.703125 1.40625 4.75 1.40625q3.0625 0 4.546875 -1.25q1.484375 -1.25 1.484375 -2.9375q0 -1.5 -1.3125 -2.375q-0.90625 -0.59375 -4.546875 -1.5q-4.90625 -1.25 -6.796875 -2.140625q-1.890625 -0.90625 -2.875 -2.5q-0.96875 -1.59375 -0.96875 -3.53125q0 -1.75 0.796875 -3.25q0.8125 -1.5 2.203125 -2.484375q1.03125 -0.765625 2.828125 -1.296875q1.796875 -0.53125 3.84375 -0.53125q3.09375 0 5.421875 0.890625q2.34375 0.890625 3.453125 2.421875q1.125 1.515625 1.546875 4.0625l-4.359375 0.59375q-0.296875 -2.03125 -1.71875 -3.171875q-1.421875 -1.140625 -4.015625 -1.140625q-3.078125 0 -4.390625 1.015625q-1.296875 1.015625 -1.296875 2.375q0 0.859375 0.53125 1.5625q0.546875 0.71875 1.71875 1.1875q0.65625 0.25 3.921875 1.140625q4.734375 1.25 6.59375 2.0625q1.875 0.796875 2.9375 2.328125q1.0625 1.53125 1.0625 3.8125q0 2.234375 -1.296875 4.203125q-1.296875 1.953125 -3.75 3.03125q-2.453125 1.078125 -5.546875 1.078125q-5.109375 0 -7.796875 -2.125q-2.6875 -2.125 -3.421875 -6.3125zm36.828125 3.859375l0.640625 3.9375q-1.875 0.390625 -3.359375 0.390625q-2.421875 0 -3.765625 -0.765625q-1.328125 -0.765625 -1.875 -2.015625q-0.546875 -1.25 -0.546875 -5.25l0 -15.125l-3.265625 0l0 -3.453125l3.265625 0l0 -6.5l4.421875 -2.671875l0 9.171875l4.484375 0l0 3.453125l-4.484375 0l0 15.375q0 1.890625 0.234375 2.4375q0.234375 0.546875 0.765625 0.875q0.53125 0.3125 1.53125 0.3125q0.734375 0 1.953125 -0.171875zm0.24578857 14.046875l0 -3.21875l29.5 0l0 3.21875l-29.5 0zm47.813232 -10.0625l-4.453125 0l0 -28.375q-1.609375 1.53125 -4.21875 3.078125q-2.609375 1.53125 -4.6875 2.296875l0 -4.3125q3.734375 -1.75 6.53125 -4.25q2.796875 -2.5 3.953125 -4.84375l2.875 0l0 36.40625zm11.422607 -9.578125l4.453125 -0.59375q0.765625 3.796875 2.609375 5.46875q1.84375 1.65625 4.484375 1.65625q3.140625 0 5.296875 -2.171875q2.171875 -2.171875 2.171875 -5.390625q0 -3.0625 -2.0 -5.046875q-2.0 -2.0 -5.09375 -2.0q-1.265625 0 -3.140625 0.484375l0.5 -3.90625q0.4375 0.046875 0.71875 0.046875q2.84375 0 5.109375 -1.484375q2.28125 -1.484375 2.28125 -4.5625q0 -2.453125 -1.65625 -4.0625q-1.65625 -1.609375 -4.28125 -1.609375q-2.59375 0 -4.328125 1.640625q-1.734375 1.625 -2.21875 4.890625l-4.453125 -0.796875q0.8125 -4.46875 3.703125 -6.921875q2.890625 -2.46875 7.203125 -2.46875q2.96875 0 5.453125 1.28125q2.5 1.265625 3.828125 3.46875q1.328125 2.203125 1.328125 4.671875q0 2.34375 -1.265625 4.28125q-1.265625 1.921875 -3.734375 3.0625q3.21875 0.75 5.0 3.09375q1.78125 2.328125 1.78125 5.84375q0 4.734375 -3.46875 8.046875q-3.453125 3.296875 -8.75 3.296875q-4.78125 0 -7.9375 -2.84375q-3.140625 -2.84375 -3.59375 -7.375zm28.156982 0.078125l4.671875 -0.390625q0.515625 3.40625 2.40625 5.125q1.890625 1.71875 4.5625 1.71875q3.21875 0 5.4375 -2.421875q2.234375 -2.421875 2.234375 -6.421875q0 -3.8125 -2.140625 -6.015625q-2.140625 -2.203125 -5.609375 -2.203125q-2.140625 0 -3.875 0.984375q-1.734375 0.96875 -2.71875 2.53125l-4.1875 -0.546875l3.515625 -18.625l18.03125 0l0 4.25l-14.46875 0l-1.953125 9.75q3.265625 -2.28125 6.84375 -2.28125q4.75 0 8.015625 3.296875q3.265625 3.28125 3.265625 8.453125q0 4.921875 -2.859375 8.515625q-3.5 4.40625 -9.53125 4.40625q-4.9375 0 -8.078125 -2.765625q-3.125 -2.78125 -3.5625 -7.359375z" fill-rule="nonzero"/><path fill="#000000" fill-opacity="0.0" d="m636.57446 307.84784l0 0c-115.37274 -14.84729 -227.20786 46.00879 -276.9036 150.6795c-49.69577 104.670715 -25.921143 229.2904 58.865936 308.55817l183.64722 -194.52863z" fill-rule="evenodd"/><path fill="#000000" fill-opacity="0.0" d="m636.57446 307.84784l0 0c-115.37274 -14.84729 -227.20786 46.00879 -276.9036 150.6795c-49.69577 104.670715 -25.921143 229.2904 58.865936 308.55817" fill-rule="evenodd"/><path stroke="#000000" stroke-width="3.0" stroke-linejoin="round" stroke-linecap="butt" d="m636.57446 307.84784l0 0c-115.37274 -14.84729 -227.20786 46.00879 -276.90363 150.6795c-24.84787 52.335358 -31.328125 109.65796 -20.998047 163.80524c5.1650085 27.073608 14.532623 53.353333 27.908203 77.81897c6.687744 12.232788 14.377533 24.012085 23.044952 35.210266c4.3337097 5.59906 8.911835 11.052856 13.731293 16.34552c2.409729 2.6462402 4.8798523 5.2523193 7.409912 7.815979c0.6325073 0.64086914 1.2687378 1.2791748 1.9087524 1.914856l0.51208496 0.50598145" fill-rule="evenodd"/><path fill="#000000" stroke="#000000" stroke-width="3.0" stroke-linecap="butt" d="m413.188 761.94415l-2.4544373 0.04852295l4.641388 2.0535889l-2.2354736 -4.5565186z" fill-rule="evenodd"/><path fill="#000000" fill-opacity="0.0" d="m636.3529 273.42078l0 0c-78.47858 -12.976318 -158.69003 8.301941 -220.05542 58.37564l175.44214 211.81863z" fill-rule="evenodd"/><path fill="#000000" fill-opacity="0.0" d="m636.3529 273.42078l0 0c-78.47858 -12.976318 -158.69003 8.301941 -220.05542 58.37564" fill-rule="evenodd"/><path stroke="#000000" stroke-width="3.0" stroke-linejoin="round" stroke-linecap="butt" d="m636.3529 273.42078l0 0c-39.23932 -6.488159 -78.911804 -4.4126587 -116.44519 5.5440674c-18.766632 4.978363 -36.998505 11.927063 -54.374084 20.760742c-8.687775 4.4168396 -17.161469 9.304932 -25.38092 14.6536255c-4.10968 2.674347 -8.155823 5.4638367 -12.133392 8.367157c-0.99438477 0.7258301 -1.9844666 1.4587708 -2.9702148 2.1987915c-0.4928894 0.37002563 -0.98461914 0.7418213 -1.4753113 1.1153564l-1.465271 1.1233826" fill-rule="evenodd"/><path fill="#000000" stroke="#000000" stroke-width="3.0" stroke-linecap="butt" d="m422.10852 327.1839l0.28042603 -2.4388428l-2.6563416 4.3247375l4.8147583 -1.6054993z" fill-rule="evenodd"/><path fill="#000000" fill-opacity="0.0" d="m439.95187 225.09949l-167.87402 -166.29921l-79.2126 78.48819l167.87401 166.29921z" fill-rule="evenodd"/><path fill="#000000" d="m251.91846 121.07231q3.80719 -3.7723694 7.9141846 -4.278572q4.107025 -0.5062103 7.0264587 2.3858337q2.8972168 2.8700485 2.6198425 6.5101624l8.602234 -8.523567l2.8195496 2.7930756l-23.442505 23.228088l-2.5975037 -2.5731354l1.6427307 -1.8916626q-3.7850952 0.38520813 -6.804428 -2.6058044q-2.8639374 -2.8370514 -2.3201752 -6.961075q0.54374695 -4.124008 4.32872 -7.874382l0.21089172 -0.20896149zm2.497635 3.1120224q-2.8082123 2.7825317 -3.2410126 5.4988785q-0.4216919 2.727356 1.6207886 4.7506866q2.686325 2.6611176 6.349304 1.4951172l7.5810547 -7.511734q1.0654907 -3.563202 -1.5653381 -6.1693344q-2.0757751 -2.0563202 -4.839691 -1.6272049q-2.7528076 0.44010925 -5.9051056 3.563591zm10.491959 26.382927l-2.819519 -2.7930756l16.516296 -16.36525l2.819519 2.7930756l-16.516296 16.36525zm17.836914 -23.722511q0.6881714 -0.68188477 1.5872803 -0.7369461q0.8991089 -0.05506134 1.7205505 0.7586746q0.82144165 0.81372833 0.7659607 1.7045059q-0.04437256 0.9017792 -0.73254395 1.583664q-0.677063 0.6708832 -1.5761719 0.703949q-0.8769226 0.033065796 -1.6983337 -0.7806549q-0.82144165 -0.81373596 -0.7881775 -1.6825256q0.04437256 -0.87978363 0.72143555 -1.5506668zm0.68252563 33.38073q1.14328 -1.1328125 0.91012573 -2.6174164q-0.23318481 -1.4846191 -1.9204712 -4.057831q-1.6873169 -2.573227 -2.3089905 -4.4647064q-0.6105652 -1.8804779 -0.33312988 -3.3431396q0.2885437 -1.4736481 1.5095215 -2.6834412q2.0312195 -2.0126648 5.1392517 -1.7049866q3.130249 0.30766296 5.8054504 2.957779q2.8084412 2.7820892 3.0971375 5.9492645q0.2998352 3.156189 -1.9533997 5.388809l-2.8306274 -2.804062q1.1543579 -1.1438141 0.99890137 -2.947342q-0.14437866 -1.8145447 -1.6318359 -3.2880554q-1.5429688 -1.5284882 -3.0969849 -1.7263184q-1.5318298 -0.19781494 -2.60849 0.8690033q-1.0211487 1.0118256 -0.7325134 2.3314667q0.28866577 1.3196564 1.9204712 3.8818817q1.6539917 2.5622253 2.30896 4.5086823q0.6549988 1.9464569 0.35534668 3.4971008q-0.2885437 1.5396423 -1.6094055 2.8484192q-2.2199402 2.1996307 -5.3390503 1.7709961q-3.0969543 -0.4286499 -5.9164734 -3.2217255q-1.9869995 -1.968338 -2.81958 -4.178726q-0.8103943 -2.2103882 -0.42196655 -4.3108826q0.410614 -2.1005096 1.8757935 -3.5522766l2.819519 2.7930756q-1.3430481 1.4847412 -1.1209717 3.3542633q0.2331543 1.8805084 1.9759216 3.6069336q1.5984802 1.5834808 3.2080078 1.9022675q1.6317139 0.31878662 2.7194824 -0.7590332zm26.462372 -5.7427063l-3.9958801 3.9593353l3.074829 3.04599l-2.1866455 2.1666412l-3.074829 -3.04599l-10.233887 10.140289q-0.9989624 0.98983765 -1.087738 1.8916168q-0.07766724 0.8907776 0.9102783 1.869461q0.48843384 0.48384094 1.520752 1.1545868l-2.2865295 2.2656097q-1.4208374 -0.791687 -2.4753723 -1.8363342q-1.887085 -1.8693848 -1.7095642 -3.9588776q0.18862915 -2.1004791 2.2975464 -4.19014l10.233887 -10.140289l-3.0082092 -2.980011l2.186615 -2.1666412l3.0082397 2.980011l3.9958801 -3.9593353l2.8306274 2.8040771zm-4.539795 40.721817l-13.975525 -13.844406l2.3087463 -2.287613l13.975494 13.844406l-2.3087158 2.287613zm23.593353 4.0175934l3.0859375 3.0569763l-2.297638 2.2766266l-3.0859375 -3.0569916l-5.161316 5.1141357l-2.8306274 -2.804062l5.161316 -5.1141357l-10.123627 -10.028687l1.6649475 -1.6497192l25.341248 -5.401703l3.0082397 2.980011l-14.762543 14.627548zm-9.746216 -9.6548l6.9155884 6.8507233l10.899872 -10.800186l-0.95458984 0.26402283l-16.86087 3.68544zm20.360779 12.867889l12.209717 -9.854538l11.389099 11.282272l-2.608429 2.5845642l-8.991394 -8.907059l-6.737549 5.3342133q2.608551 0.6706238 4.6843567 2.726944q3.030426 3.0020142 2.8085632 6.763092q-0.2218628 3.761078 -3.640564 7.1484985q-3.429779 3.3984375 -7.2704163 3.530716q-3.8294983 0.121276855 -7.159668 -3.1776276q-2.9416199 -2.914032 -3.1748352 -6.3781586q-0.22213745 -3.475113 2.4084473 -6.5875397l2.6641235 2.6391144q-1.6427307 2.1555939 -1.5205383 4.212082q0.13327026 2.0454712 1.9315491 3.826889q1.9647827 1.9463501 4.4289856 1.7261963q2.4753113 -0.20913696 4.8395386 -2.5517426q2.231018 -2.2106323 2.3530273 -4.751007q0.14422607 -2.5403748 -1.8760681 -4.5417175q-1.8426819 -1.8253937 -3.6964111 -2.078186l-1.3542175 -0.1318512l-1.6873169 -2.815155z" fill-rule="nonzero"/><path fill="#d9d9d9" d="m469.5454 402.2943l0 145.29132l0 0c0 80.24219 74.736694 145.29132 166.92914 145.29132c92.19238 0 166.92914 -65.04913 166.92914 -145.29132l0 -145.29132z" fill-rule="evenodd"/><path stroke="#000000" stroke-width="8.0" stroke-linejoin="round" stroke-linecap="butt" d="m469.5454 402.2943l0 145.29132l0 0c0 80.24219 74.736694 145.29132 166.92914 145.29132c92.19238 0 166.92914 -65.04913 166.92914 -145.29132l0 -145.29132z" fill-rule="evenodd"/><path fill="#000000" fill-opacity="0.0" d="m636.4914 476.66687l-71.55902 0l0 70.92914l71.55902 0z" fill-rule="evenodd"/><path stroke="#000000" stroke-width="3.0" stroke-linejoin="round" stroke-linecap="butt" stroke-dasharray="12.0,9.0" d="m636.4914 476.66687l-71.55902 0l0 70.92914l71.55902 0z" fill-rule="evenodd"/><path fill="#000000" fill-opacity="0.0" d="m636.493 502.49658l0 -399.30707" fill-rule="evenodd"/><path stroke="#000000" stroke-width="3.0" stroke-linejoin="round" stroke-linecap="butt" stroke-dasharray="3.0,9.0" d="m636.493 502.49658l0 -399.30707" fill-rule="evenodd"/><path fill="#000000" fill-opacity="0.0" d="m590.9812 547.59894l-331.4961 0" fill-rule="evenodd"/><path stroke="#000000" stroke-width="3.0" stroke-linejoin="round" stroke-linecap="butt" stroke-dasharray="3.0,9.0" d="m590.9812 547.59894l-331.4961 0" fill-rule="evenodd"/><path fill="#000000" fill-opacity="0.0" d="m153.82303 40.43433l237.44882 1005.3229" fill-rule="evenodd"/><path stroke="#000000" stroke-width="8.0" stroke-linejoin="round" stroke-linecap="butt" d="m153.82303 40.43433l237.44882 1005.3229" fill-rule="evenodd"/><path fill="#00a2ff" d="m292.03522 546.68896l0 0c0 -10.671692 -8.714569 -19.322815 -19.46457 -19.322815l0 0c-5.162323 0 -10.11322 2.0357666 -13.763519 5.659546c-3.6503143 3.6237183 -5.7010345 8.538574 -5.7010345 13.663269l0 0c0 10.671753 8.714584 19.322876 19.464554 19.322876l0 0c10.75 0 19.46457 -8.651123 19.46457 -19.322876z" fill-rule="evenodd"/><path stroke="#000000" stroke-width="3.0" stroke-linejoin="round" stroke-linecap="butt" d="m292.03522 546.68896l0 0c0 -10.671692 -8.714569 -19.322815 -19.46457 -19.322815l0 0c-5.162323 0 -10.11322 2.0357666 -13.763519 5.659546c-3.6503143 3.6237183 -5.7010345 8.538574 -5.7010345 13.663269l0 0c0 10.671753 8.714584 19.322876 19.464554 19.322876l0 0c10.75 0 19.46457 -8.651123 19.46457 -19.322876z" fill-rule="evenodd"/><path fill="#ffffff" d="m682.0048 547.59894l0 0c0 -24.909302 -20.376343 -45.102356 -45.51184 -45.102356l0 0c-12.070496 0 -23.646606 4.7518616 -32.1817 13.210205c-8.535095 8.458313 -13.330078 19.930298 -13.330078 31.89215l0 0c0 24.909363 20.376282 45.102356 45.51178 45.102356l0 0c25.135498 0 45.51184 -20.192993 45.51184 -45.102356z" fill-rule="evenodd"/><path stroke="#000000" stroke-width="8.0" stroke-linejoin="round" stroke-linecap="butt" d="m682.0048 547.59894l0 0c0 -24.909302 -20.376343 -45.102356 -45.51184 -45.102356l0 0c-12.070496 0 -23.646606 4.7518616 -32.1817 13.210205c-8.535095 8.458313 -13.330078 19.930298 -13.330078 31.89215l0 0c0 24.909363 20.376282 45.102356 45.51178 45.102356l0 0c25.135498 0 45.51184 -20.192993 45.51184 -45.102356z" fill-rule="evenodd"/><path fill="#000000" fill-opacity="0.0" d="m604.3113 515.7068l-444.0 -439.90552" fill-rule="evenodd"/><path stroke="#7e2366" stroke-width="4.0" stroke-linejoin="round" stroke-linecap="butt" d="m604.3113 515.7068l-444.0 -439.90552" fill-rule="evenodd"/><path fill="#000000" fill-opacity="0.0" d="m604.3113 579.49115l-270.3622 267.84253" fill-rule="evenodd"/><path stroke="#2a6c10" stroke-width="4.0" stroke-linejoin="round" stroke-linecap="butt" d="m604.3113 579.49115l-270.3622 267.84253" fill-rule="evenodd"/><path fill="#ff40cc" d="m190.28539 95.117584l0 0c0 -10.671707 -8.714584 -19.32283 -19.46457 -19.32283l0 0c-5.162323 0 -10.11322 2.0357895 -13.763535 5.659523c-3.6503143 3.6237335 -5.7010345 8.538574 -5.7010345 13.663307l0 0c0 10.671707 8.714584 19.322838 19.46457 19.322838l0 0c10.749985 0 19.46457 -8.651131 19.46457 -19.322838z" fill-rule="evenodd"/><path stroke="#000000" stroke-width="3.0" stroke-linejoin="round" stroke-linecap="butt" d="m190.28539 95.117584l0 0c0 -10.671707 -8.714584 -19.32283 -19.46457 -19.32283l0 0c-5.162323 0 -10.11322 2.0357895 -13.763535 5.659523c-3.6503143 3.6237335 -5.7010345 8.538574 -5.7010345 13.663307l0 0c0 10.671707 8.714584 19.322838 19.46457 19.322838l0 0c10.749985 0 19.46457 -8.651131 19.46457 -19.322838z" fill-rule="evenodd"/><path fill="#55e31c" d="m358.42282 848.2324l0 0c0 -10.671753 -8.714569 -19.322876 -19.46457 -19.322876l0 0c-5.162323 0 -10.11322 2.0358276 -13.763519 5.659546c-3.6503296 3.6237183 -5.70105 8.538574 -5.70105 13.66333l0 0c0 10.671692 8.7146 19.322815 19.46457 19.322815l0 0c10.75 0 19.46457 -8.651123 19.46457 -19.322815z" fill-rule="evenodd"/><path stroke="#000000" stroke-width="3.0" stroke-linejoin="round" stroke-linecap="butt" d="m358.42282 848.2324l0 0c0 -10.671753 -8.714569 -19.322876 -19.46457 -19.322876l0 0c-5.162323 0 -10.11322 2.0358276 -13.763519 5.659546c-3.6503296 3.6237183 -5.70105 8.538574 -5.70105 13.66333l0 0c0 10.671692 8.7146 19.322815 19.46457 19.322815l0 0c10.75 0 19.46457 -8.651123 19.46457 -19.322815z" fill-rule="evenodd"/><path fill="#000000" fill-opacity="0.0" d="m636.523 177.56516l-147.874 0l0 116.346466l147.874 0z" fill-rule="evenodd"/><path fill="#000000" d="m537.7897 240.1764l4.734375 0l0 3.546875l-4.734375 0l0 7.921875l-4.359375 0l0 -7.921875l-15.53125 0l0 -2.5625l15.28125 -23.640625l4.609375 0l0 22.65625zm-14.96875 0l10.609375 0l0 -16.734375l-0.515625 0.9375l-10.09375 15.796875zm25.609375 -5.640625l1.734375 -17.015625l17.484375 0l0 4.0l-13.796875 0l-1.03125 9.3125q2.5 -1.484375 5.6875 -1.484375q4.671875 0 7.40625 3.09375q2.75 3.078125 2.75 8.328125q0 5.265625 -2.859375 8.3125q-2.84375 3.03125 -7.953125 3.03125q-4.515625 0 -7.375 -2.5q-2.859375 -2.515625 -3.265625 -6.953125l4.109375 0q0.390625 2.9375 2.078125 4.421875q1.6875 1.484375 4.453125 1.484375q3.03125 0 4.75 -2.0625q1.71875 -2.0625 1.71875 -5.6875q0 -3.421875 -1.859375 -5.5q-1.859375 -2.078125 -4.953125 -2.078125q-2.84375 0 -4.453125 1.25l-1.15625 0.9375l-3.46875 -0.890625z" fill-rule="nonzero"/><path fill="#000000" d="m571.9772 225.03578q0 -2.484375 0.96875 -4.46875q0.984375 -1.984375 2.71875 -3.0625q1.75 -1.078125 3.984375 -1.078125q3.453125 0 5.578125 2.390625q2.140625 2.390625 2.140625 6.359375l0 0.203125q0 2.46875 -0.953125 4.4375q-0.9375 1.953125 -2.703125 3.046875q-1.75 1.09375 -4.03125 1.09375q-3.4375 0 -5.578125 -2.390625q-2.125 -2.390625 -2.125 -6.328125l0 -0.203125zm2.90625 0.34375q0 2.8125 1.296875 4.515625q1.3125 1.703125 3.5 1.703125q2.203125 0 3.5 -1.71875q1.296875 -1.734375 1.296875 -4.84375q0 -2.78125 -1.328125 -4.5q-1.3125 -1.734375 -3.5 -1.734375q-2.140625 0 -3.453125 1.703125q-1.3125 1.703125 -1.3125 4.875z" fill-rule="nonzero"/><path fill="#000000" fill-opacity="0.0" d="m569.2523 592.69995l-237.44882 0l0 116.346436l237.44882 0z" fill-rule="evenodd"/><path fill="#000000" d="m376.89725 666.77997l-4.359375 0l0 -28.90625l-8.75 3.21875l0 -3.9375l12.421875 -4.671875l0.6875 0l0 34.296875zm19.0 -19.171875l3.265625 0q3.0625 -0.046875 4.8125 -1.609375q1.765625 -1.578125 1.765625 -4.25q0 -6.0 -5.96875 -6.0q-2.8125 0 -4.5 1.609375q-1.671875 1.59375 -1.671875 4.25l-4.328125 0q0 -4.0625 2.953125 -6.734375q2.96875 -2.6875 7.546875 -2.6875q4.828125 0 7.5625 2.5625q2.75 2.546875 2.75 7.09375q0 2.21875 -1.453125 4.3125q-1.4375 2.078125 -3.921875 3.109375q2.8125 0.890625 4.34375 2.953125q1.546875 2.0625 1.546875 5.046875q0 4.59375 -3.0 7.296875q-3.0 2.6875 -7.8125 2.6875q-4.796875 0 -7.8125 -2.59375q-3.015625 -2.609375 -3.015625 -6.875l4.359375 0q0 2.6875 1.75 4.3125q1.765625 1.609375 4.71875 1.609375q3.140625 0 4.796875 -1.640625q1.671875 -1.640625 1.671875 -4.703125q0 -2.984375 -1.828125 -4.578125q-1.828125 -1.59375 -5.265625 -1.640625l-3.265625 0l0 -3.53125zm22.640625 2.0625l1.734375 -17.015625l17.484375 0l0 4.0l-13.796875 0l-1.03125 9.3125q2.5 -1.484375 5.6875 -1.484375q4.671875 0 7.40625 3.09375q2.75 3.078125 2.75 8.328125q0 5.265625 -2.859375 8.3125q-2.84375 3.03125 -7.953125 3.03125q-4.515625 0 -7.375 -2.5q-2.859375 -2.515625 -3.265625 -6.953125l4.109375 0q0.390625 2.9375 2.078125 4.421875q1.6875 1.484375 4.453125 1.484375q3.03125 0 4.75 -2.0625q1.71875 -2.0625 1.71875 -5.6875q0 -3.421875 -1.859375 -5.5q-1.859375 -2.078125 -4.953125 -2.078125q-2.84375 0 -4.453125 1.25l-1.15625 0.9375l-3.46875 -0.890625z" fill-rule="nonzero"/><path fill="#000000" d="m442.08475 640.1706q0 -2.484375 0.96875 -4.46875q0.984375 -1.984375 2.71875 -3.0625q1.75 -1.078125 3.984375 -1.078125q3.453125 0 5.578125 2.390625q2.140625 2.390625 2.140625 6.359375l0 0.203125q0 2.46875 -0.953125 4.4375q-0.9375 1.953125 -2.703125 3.046875q-1.75 1.09375 -4.03125 1.09375q-3.4375 0 -5.578125 -2.390625q-2.125 -2.390625 -2.125 -6.328125l0 -0.203125zm2.90625 0.34375q0 2.8125 1.296875 4.515625q1.3125 1.703125 3.5 1.703125q2.203125 0 3.5 -1.71875q1.296875 -1.734375 1.296875 -4.84375q0 -2.78125 -1.328125 -4.5q-1.3125 -1.734375 -3.5 -1.734375q-2.140625 0 -3.453125 1.703125q-1.3125 1.703125 -1.3125 4.875z" fill-rule="nonzero"/><path fill="#000000" fill-opacity="0.0" d="m508.1701 654.4323l-167.9685 166.2362l79.212585 78.48822l167.9685 -166.23627z" fill-rule="evenodd"/><path fill="#000000" d="m403.0636 840.6588q-3.8072205 -3.7724 -4.3168335 -7.840576q-0.50961304 -4.0681763 2.4111633 -6.9588623q2.89859 -2.8686523 6.5734863 -2.5926514l-8.602264 -8.52356l2.8208313 -2.791748l23.442596 23.22815l-2.5987244 2.5719604l-1.9092407 -1.6278076q0.38760376 3.7492676 -2.6331482 6.7388916q-2.865265 2.8356934 -7.0286255 2.2956543q-4.1633606 -0.5401001 -7.9483643 -4.2904663l-0.21087646 -0.20898438zm3.1427307 -2.4727783q2.8082275 2.7825317 5.550476 3.2122192q2.7533264 0.41864014 4.7967834 -1.6036987q2.687561 -2.659851 1.5116577 -6.288513l-7.581085 -7.5117188q-3.5969849 -1.0566406 -6.2290344 1.5482178q-2.0767517 2.055359 -1.6445007 4.793152q0.44335938 2.7268066 3.5957031 5.850342zm26.639526 -10.382874l-2.8208313 2.791748l-16.516357 -16.365295l2.8208313 -2.791748l16.516357 16.365295zm-23.943695 -17.676025q-0.6882019 -0.68188477 -0.74346924 -1.5725098q-0.055267334 -0.89056396 0.7665405 -1.7039185q0.8218384 -0.8133545 1.7211304 -0.75805664q0.9104004 0.04425049 1.5986023 0.72613525q0.677063 0.67089844 0.71014404 1.5614624q0.033081055 0.8685913 -0.7887573 1.6819458q-0.82180786 0.8133545 -1.6989136 0.78009033q-0.8882141 -0.04425049 -1.5652771 -0.7151489zm33.70099 -0.6640625q-1.14328 -1.1328125 -2.6421814 -0.9024048q-1.4989319 0.23040771 -4.097412 1.9007568q-2.5984802 1.6703491 -4.5083313 2.2854614q-1.8987122 0.60406494 -3.3753052 0.32873535q-1.4876709 -0.28631592 -2.7086487 -1.4960938q-2.03125 -2.0126953 -1.7195129 -5.0911255q0.31170654 -3.1004028 2.9881592 -5.7492065q2.809723 -2.7807617 6.0073853 -3.0656128q3.186554 -0.2958374 5.439789 1.9367676l-2.8319397 2.8027344q-1.1543579 -1.1437988 -2.9752502 -0.9904785q-1.8319702 0.14239502 -3.3201294 1.6151733q-1.5437012 1.527771 -1.7439575 3.0669556q-0.20025635 1.5172119 0.8764038 2.5840454q1.0211792 1.0118408 2.3535767 0.7263794q1.3323975 -0.2854004 3.9197693 -1.9008179q2.5873718 -1.6373901 4.552704 -2.2854614q1.9653625 -0.64801025 3.5307617 -0.350708q1.5542908 0.28637695 2.8751526 1.5951538q2.2199402 2.199646 1.7861023 5.2890015q-0.4338379 3.0673828 -3.2546692 5.859131q-1.987915 1.9674072 -4.2197876 2.7913208q-2.231842 0.8018799 -4.352356 0.41638184q-2.1204834 -0.4074707 -3.5856628 -1.8592529l2.8208313 -2.791748q1.4985046 1.3308716 3.3860168 1.1115723q1.8986206 -0.23028564 3.642212 -1.9558716q1.5992126 -1.5827637 1.9216309 -3.17688q0.3224182 -1.6160889 -0.76535034 -2.6939087zm-5.788513 -26.213135l3.9959106 3.9593506l3.0762634 -3.0445557l2.1866455 2.166626l-3.0762634 3.0445557l10.233917 10.140381q0.9989624 0.9898071 1.9093628 1.078064q0.899292 0.07727051 1.8876953 -0.90093994q0.48867798 -0.48364258 1.1661987 -1.5059204l2.28656 2.265625q-0.79977417 1.4070435 -1.8548279 2.451233q-1.88797 1.8684692 -3.9974365 1.6918945q-2.1205444 -0.18756104 -4.229492 -2.2772217l-10.233948 -10.140381l-3.009613 2.9786377l-2.1866455 -2.166687l3.0096436 -2.9785767l-3.9959106 -3.9593506l2.8319397 -2.8027344zm41.110657 4.5112915l-13.982025 13.83783l-2.3087463 -2.2876587l13.982025 -13.83783l2.3087463 2.2876587zm8.8802185 -13.361206l-2.8319702 2.8027344l-18.813995 -18.641968l-3.6104736 7.7061157l-2.5640259 -2.5405884l5.054718 -11.026001l0.43310547 -0.4286499l22.332642 22.128357zm-0.10159302 -24.630798l2.1211853 -2.0993042q1.9768066 -2.0224 2.0995178 -4.166321q0.12271118 -2.143921 -1.6199341 -3.8706665q-3.9071045 -3.871338 -7.805176 -0.0134887695q-1.8324585 1.8135376 -1.866333 3.9354858q-0.04498291 2.110962 1.6754761 3.8157349l-2.8319397 2.8027344q-2.6417236 -2.6176147 -2.4519958 -6.256775q0.17861938 -3.6501465 3.1549377 -6.595764q3.1429138 -3.1105347 6.595886 -3.2303467q3.4529724 -0.11987305 6.416565 2.8166504q1.454071 1.4407959 1.8642578 3.7167969q0.42129517 2.2650757 -0.5230408 4.5406494q2.409607 -1.2416382 4.7521667 -0.9000244q2.3425903 0.34155273 4.285034 2.2662354q2.9858398 2.958496 2.7960815 6.6416626q-0.20083618 3.6721802 -3.3326416 6.7716675q-3.120697 3.088501 -6.7846375 3.3511963q-3.663971 0.2626953 -6.438904 -2.4868164l2.843048 -2.8137207q1.7537537 1.7376709 3.952118 1.6504517q2.1983643 -0.08728027 4.1307373 -1.9997559q2.043457 -2.0223389 2.0551147 -4.144287q0.011688232 -2.143982 -1.9862671 -4.123657q-1.9313354 -1.9136963 -4.1519165 -1.760498q-2.2316895 0.14227295 -4.5194397 2.340454l-2.1211548 2.0993042l-2.3087463 -2.2875977zm16.094147 -13.268188l-9.944733 -12.097351l11.394409 -11.276855l2.608429 2.5845337l-8.995575 8.902832l5.3829956 6.675476q0.6779785 -2.583496 2.7547302 -4.638855q3.0318298 -3.0006104 6.828888 -2.77948q3.797058 0.22113037 7.2157593 3.6085205q3.4298096 3.3984985 3.5620117 7.2026978q0.12109375 3.7931519 -3.2105713 7.090515q-2.9429932 2.9126587 -6.4404297 3.142395q-3.508484 0.21881104 -6.6498413 -2.3879395l2.6653442 -2.6378784q2.1757202 1.6279297 4.251953 1.5076294q2.0651245 -0.13128662 3.8642578 -1.9118652q1.9656982 -1.9454346 1.7442627 -4.3862915q-0.21026611 -2.4519043 -2.574524 -4.7944946q-2.231018 -2.2106323 -4.7957153 -2.3323975q-2.5646667 -0.1437378 -4.585907 1.8566284q-1.8435364 1.8245239 -2.0993958 3.6605835l-0.13360596 1.3413086l-2.842743 1.6702881z" fill-rule="nonzero"/><path fill="#000000" fill-opacity="0.0" d="m1199.9799 1085.2572l561.3544 0l0 81.95276l-561.3544 0z" fill-rule="evenodd"/><path fill="#000000" d="m1294.7339 1143.8972l0 -3.3125q-2.484375 3.90625 -7.34375 3.90625q-3.140625 0 -5.78125 -1.734375q-2.625 -1.734375 -4.078125 -4.828125q-1.4375 -3.109375 -1.4375 -7.140625q0 -3.9375 1.3125 -7.140625q1.3125 -3.203125 3.921875 -4.90625q2.625 -1.703125 5.875 -1.703125q2.375 0 4.21875 1.0q1.859375 1.0 3.015625 2.609375l0 -13.015625l4.4375 0l0 36.265625l-4.140625 0zm-14.0625 -13.109375q0 5.046875 2.125 7.546875q2.125 2.5 5.015625 2.5q2.921875 0 4.953125 -2.390625q2.046875 -2.390625 2.046875 -7.28125q0 -5.390625 -2.078125 -7.90625q-2.078125 -2.53125 -5.125 -2.53125q-2.953125 0 -4.953125 2.421875q-1.984375 2.421875 -1.984375 7.640625zm25.219482 -18.03125l0 -5.125l4.453125 0l0 5.125l-4.453125 0zm0 31.140625l0 -26.265625l4.453125 0l0 26.265625l-4.453125 0zm9.457275 -7.84375l4.40625 -0.6875q0.359375 2.640625 2.046875 4.0625q1.703125 1.40625 4.75 1.40625q3.0625 0 4.546875 -1.25q1.484375 -1.25 1.484375 -2.9375q0 -1.5 -1.3125 -2.375q-0.90625 -0.59375 -4.546875 -1.5q-4.90625 -1.25 -6.796875 -2.140625q-1.890625 -0.90625 -2.875 -2.5q-0.96875 -1.59375 -0.96875 -3.53125q0 -1.75 0.796875 -3.25q0.8125 -1.5 2.203125 -2.484375q1.03125 -0.765625 2.828125 -1.296875q1.796875 -0.53125 3.84375 -0.53125q3.09375 0 5.421875 0.890625q2.34375 0.890625 3.453125 2.421875q1.125 1.515625 1.546875 4.0625l-4.359375 0.59375q-0.296875 -2.03125 -1.71875 -3.171875q-1.421875 -1.140625 -4.015625 -1.140625q-3.078125 0 -4.390625 1.015625q-1.296875 1.015625 -1.296875 2.375q0 0.859375 0.53125 1.5625q0.546875 0.71875 1.71875 1.1875q0.65625 0.25 3.921875 1.140625q4.734375 1.25 6.59375 2.0625q1.875 0.796875 2.9375 2.328125q1.0625 1.53125 1.0625 3.8125q0 2.234375 -1.296875 4.203125q-1.296875 1.953125 -3.75 3.03125q-2.453125 1.078125 -5.546875 1.078125q-5.109375 0 -7.796875 -2.125q-2.6875 -2.125 -3.421875 -6.3125zm36.828125 3.859375l0.640625 3.9375q-1.875 0.390625 -3.359375 0.390625q-2.421875 0 -3.765625 -0.765625q-1.328125 -0.765625 -1.875 -2.015625q-0.546875 -1.25 -0.546875 -5.25l0 -15.125l-3.265625 0l0 -3.453125l3.265625 0l0 -6.5l4.421875 -2.671875l0 9.171875l4.484375 0l0 3.453125l-4.484375 0l0 15.375q0 1.890625 0.234375 2.4375q0.234375 0.546875 0.765625 0.875q0.53125 0.3125 1.53125 0.3125q0.734375 0 1.953125 -0.171875zm0.24584961 14.046875l0 -3.21875l29.5 0l0 3.21875l-29.5 0zm45.313232 -10.0625l0 -8.6875l-15.734375 0l0 -4.078125l16.546875 -23.5l3.640625 0l0 23.5l4.890625 0l0 4.078125l-4.890625 0l0 8.6875l-4.453125 0zm0 -12.765625l0 -16.34375l-11.359375 16.34375l11.359375 0zm13.906982 3.265625l4.671875 -0.390625q0.515625 3.40625 2.40625 5.125q1.890625 1.71875 4.5625 1.71875q3.21875 0 5.4375 -2.421875q2.234375 -2.421875 2.234375 -6.421875q0 -3.8125 -2.140625 -6.015625q-2.140625 -2.203125 -5.609375 -2.203125q-2.140625 0 -3.875 0.984375q-1.734375 0.96875 -2.71875 2.53125l-4.1875 -0.546875l3.515625 -18.625l18.03125 0l0 4.25l-14.46875 0l-1.953125 9.75q3.265625 -2.28125 6.84375 -2.28125q4.75 0 8.015625 3.296875q3.265625 3.28125 3.265625 8.453125q0 4.921875 -2.859375 8.515625q-3.5 4.40625 -9.53125 4.40625q-4.9375 0 -8.078125 -2.765625q-3.125 -2.78125 -3.5625 -7.359375zm66.90271 -11.828125l-23.953125 0l0 -4.140625l23.953125 0l0 4.140625zm0 11.015625l-23.953125 0l0 -4.15625l23.953125 0l0 4.15625zm37.265747 10.3125l0 -3.3125q-2.484375 3.90625 -7.34375 3.90625q-3.140625 0 -5.78125 -1.734375q-2.625 -1.734375 -4.078125 -4.828125q-1.4375 -3.109375 -1.4375 -7.140625q0 -3.9375 1.3125 -7.140625q1.3125 -3.203125 3.921875 -4.90625q2.625 -1.703125 5.875 -1.703125q2.375 0 4.21875 1.0q1.859375 1.0 3.015625 2.609375l0 -13.015625l4.4375 0l0 36.265625l-4.140625 0zm-14.0625 -13.109375q0 5.046875 2.125 7.546875q2.125 2.5 5.015625 2.5q2.921875 0 4.953125 -2.390625q2.046875 -2.390625 2.046875 -7.28125q0 -5.390625 -2.078125 -7.90625q-2.078125 -2.53125 -5.125 -2.53125q-2.953125 0 -4.953125 2.421875q-1.984375 2.421875 -1.984375 7.640625zm25.219482 -18.03125l0 -5.125l4.453125 0l0 5.125l-4.453125 0zm0 31.140625l0 -26.265625l4.453125 0l0 26.265625l-4.453125 0zm9.457397 -7.84375l4.40625 -0.6875q0.359375 2.640625 2.046875 4.0625q1.703125 1.40625 4.75 1.40625q3.0625 0 4.546875 -1.25q1.484375 -1.25 1.484375 -2.9375q0 -1.5 -1.3125 -2.375q-0.90625 -0.59375 -4.546875 -1.5q-4.90625 -1.25 -6.796875 -2.140625q-1.890625 -0.90625 -2.875 -2.5q-0.96875 -1.59375 -0.96875 -3.53125q0 -1.75 0.796875 -3.25q0.8125 -1.5 2.203125 -2.484375q1.03125 -0.765625 2.828125 -1.296875q1.796875 -0.53125 3.84375 -0.53125q3.09375 0 5.421875 0.890625q2.34375 0.890625 3.453125 2.421875q1.125 1.515625 1.546875 4.0625l-4.359375 0.59375q-0.296875 -2.03125 -1.71875 -3.171875q-1.421875 -1.140625 -4.015625 -1.140625q-3.078125 0 -4.390625 1.015625q-1.296875 1.015625 -1.296875 2.375q0 0.859375 0.53125 1.5625q0.546875 0.71875 1.71875 1.1875q0.65625 0.25 3.921875 1.140625q4.734375 1.25 6.59375 2.0625q1.875 0.796875 2.9375 2.328125q1.0625 1.53125 1.0625 3.8125q0 2.234375 -1.296875 4.203125q-1.296875 1.953125 -3.75 3.03125q-2.453125 1.078125 -5.546875 1.078125q-5.109375 0 -7.796875 -2.125q-2.6875 -2.125 -3.421875 -6.3125zm36.828125 3.859375l0.640625 3.9375q-1.875 0.390625 -3.359375 0.390625q-2.421875 0 -3.765625 -0.765625q-1.328125 -0.765625 -1.875 -2.015625q-0.546875 -1.25 -0.546875 -5.25l0 -15.125l-3.265625 0l0 -3.453125l3.265625 0l0 -6.5l4.421875 -2.671875l0 9.171875l4.484375 0l0 3.453125l-4.484375 0l0 15.375q0 1.890625 0.234375 2.4375q0.234375 0.546875 0.765625 0.875q0.53125 0.3125 1.53125 0.3125q0.734375 0 1.953125 -0.171875zm0.24572754 14.046875l0 -3.21875l29.5 0l0 3.21875l-29.5 0zm47.813232 -10.0625l-4.453125 0l0 -28.375q-1.609375 1.53125 -4.21875 3.078125q-2.609375 1.53125 -4.6875 2.296875l0 -4.3125q3.734375 -1.75 6.53125 -4.25q2.796875 -2.5 3.953125 -4.84375l2.875 0l0 36.40625zm11.422607 -9.578125l4.453125 -0.59375q0.765625 3.796875 2.609375 5.46875q1.84375 1.65625 4.484375 1.65625q3.140625 0 5.296875 -2.171875q2.171875 -2.171875 2.171875 -5.390625q0 -3.0625 -2.0 -5.046875q-2.0 -2.0 -5.09375 -2.0q-1.265625 0 -3.140625 0.484375l0.5 -3.90625q0.4375 0.046875 0.71875 0.046875q2.84375 0 5.109375 -1.484375q2.28125 -1.484375 2.28125 -4.5625q0 -2.453125 -1.65625 -4.0625q-1.65625 -1.609375 -4.28125 -1.609375q-2.59375 0 -4.328125 1.640625q-1.734375 1.625 -2.21875 4.890625l-4.453125 -0.796875q0.8125 -4.46875 3.703125 -6.921875q2.890625 -2.46875 7.203125 -2.46875q2.96875 0 5.453125 1.28125q2.5 1.265625 3.828125 3.46875q1.328125 2.203125 1.328125 4.671875q0 2.34375 -1.265625 4.28125q-1.265625 1.921875 -3.734375 3.0625q3.21875 0.75 5.0 3.09375q1.78125 2.328125 1.78125 5.84375q0 4.734375 -3.46875 8.046875q-3.453125 3.296875 -8.75 3.296875q-4.78125 0 -7.9375 -2.84375q-3.140625 -2.84375 -3.59375 -7.375zm28.156982 0.078125l4.671875 -0.390625q0.515625 3.40625 2.40625 5.125q1.890625 1.71875 4.5625 1.71875q3.21875 0 5.4375 -2.421875q2.234375 -2.421875 2.234375 -6.421875q0 -3.8125 -2.140625 -6.015625q-2.140625 -2.203125 -5.609375 -2.203125q-2.140625 0 -3.875 0.984375q-1.734375 0.96875 -2.71875 2.53125l-4.1875 -0.546875l3.515625 -18.625l18.03125 0l0 4.25l-14.46875 0l-1.953125 9.75q3.265625 -2.28125 6.84375 -2.28125q4.75 0 8.015625 3.296875q3.265625 3.28125 3.265625 8.453125q0 4.921875 -2.859375 8.515625q-3.5 4.40625 -9.53125 4.40625q-4.9375 0 -8.078125 -2.765625q-3.125 -2.78125 -3.5625 -7.359375z" fill-rule="nonzero"/><path fill="#000000" fill-opacity="0.0" d="m2071.1165 1085.2572l561.35425 0l0 81.95276l-561.35425 0z" fill-rule="evenodd"/><path fill="#000000" d="m2165.8704 1143.8972l0 -3.3125q-2.484375 3.90625 -7.34375 3.90625q-3.140625 0 -5.78125 -1.734375q-2.625 -1.734375 -4.078125 -4.828125q-1.4375 -3.109375 -1.4375 -7.140625q0 -3.9375 1.3125 -7.140625q1.3125 -3.203125 3.921875 -4.90625q2.625 -1.703125 5.875 -1.703125q2.375 0 4.21875 1.0q1.859375 1.0 3.015625 2.609375l0 -13.015625l4.4375 0l0 36.265625l-4.140625 0zm-14.0625 -13.109375q0 5.046875 2.125 7.546875q2.125 2.5 5.015625 2.5q2.921875 0 4.953125 -2.390625q2.046875 -2.390625 2.046875 -7.28125q0 -5.390625 -2.078125 -7.90625q-2.078125 -2.53125 -5.125 -2.53125q-2.953125 0 -4.953125 2.421875q-1.984375 2.421875 -1.984375 7.640625zm25.219482 -18.03125l0 -5.125l4.453125 0l0 5.125l-4.453125 0zm0 31.140625l0 -26.265625l4.453125 0l0 26.265625l-4.453125 0zm9.457275 -7.84375l4.40625 -0.6875q0.359375 2.640625 2.046875 4.0625q1.703125 1.40625 4.75 1.40625q3.0625 0 4.546875 -1.25q1.484375 -1.25 1.484375 -2.9375q0 -1.5 -1.3125 -2.375q-0.90625 -0.59375 -4.546875 -1.5q-4.90625 -1.25 -6.796875 -2.140625q-1.890625 -0.90625 -2.875 -2.5q-0.96875 -1.59375 -0.96875 -3.53125q0 -1.75 0.796875 -3.25q0.8125 -1.5 2.203125 -2.484375q1.03125 -0.765625 2.828125 -1.296875q1.796875 -0.53125 3.84375 -0.53125q3.09375 0 5.421875 0.890625q2.34375 0.890625 3.453125 2.421875q1.125 1.515625 1.546875 4.0625l-4.359375 0.59375q-0.296875 -2.03125 -1.71875 -3.171875q-1.421875 -1.140625 -4.015625 -1.140625q-3.078125 0 -4.390625 1.015625q-1.296875 1.015625 -1.296875 2.375q0 0.859375 0.53125 1.5625q0.546875 0.71875 1.71875 1.1875q0.65625 0.25 3.921875 1.140625q4.734375 1.25 6.59375 2.0625q1.875 0.796875 2.9375 2.328125q1.0625 1.53125 1.0625 3.8125q0 2.234375 -1.296875 4.203125q-1.296875 1.953125 -3.75 3.03125q-2.453125 1.078125 -5.546875 1.078125q-5.109375 0 -7.796875 -2.125q-2.6875 -2.125 -3.421875 -6.3125zm36.828125 3.859375l0.640625 3.9375q-1.875 0.390625 -3.359375 0.390625q-2.421875 0 -3.765625 -0.765625q-1.328125 -0.765625 -1.875 -2.015625q-0.546875 -1.25 -0.546875 -5.25l0 -15.125l-3.265625 0l0 -3.453125l3.265625 0l0 -6.5l4.421875 -2.671875l0 9.171875l4.484375 0l0 3.453125l-4.484375 0l0 15.375q0 1.890625 0.234375 2.4375q0.234375 0.546875 0.765625 0.875q0.53125 0.3125 1.53125 0.3125q0.734375 0 1.953125 -0.171875zm0.24584961 14.046875l0 -3.21875l29.5 0l0 3.21875l-29.5 0zm45.313232 -10.0625l0 -8.6875l-15.734375 0l0 -4.078125l16.546875 -23.5l3.640625 0l0 23.5l4.890625 0l0 4.078125l-4.890625 0l0 8.6875l-4.453125 0zm0 -12.765625l0 -16.34375l-11.359375 16.34375l11.359375 0zm13.906982 3.265625l4.671875 -0.390625q0.515625 3.40625 2.40625 5.125q1.890625 1.71875 4.5625 1.71875q3.21875 0 5.4375 -2.421875q2.234375 -2.421875 2.234375 -6.421875q0 -3.8125 -2.140625 -6.015625q-2.140625 -2.203125 -5.609375 -2.203125q-2.140625 0 -3.875 0.984375q-1.734375 0.96875 -2.71875 2.53125l-4.1875 -0.546875l3.515625 -18.625l18.03125 0l0 4.25l-14.46875 0l-1.953125 9.75q3.265625 -2.28125 6.84375 -2.28125q4.75 0 8.015625 3.296875q3.265625 3.28125 3.265625 8.453125q0 4.921875 -2.859375 8.515625q-3.5 4.40625 -9.53125 4.40625q-4.9375 0 -8.078125 -2.765625q-3.125 -2.78125 -3.5625 -7.359375zm42.902832 -6.359375l0 -4.15625l24.015625 -10.140625l0 4.4375l-19.046875 7.8125l19.046875 7.890625l0 4.421875l-24.015625 -10.265625zm61.265625 15.859375l0 -3.3125q-2.484375 3.90625 -7.34375 3.90625q-3.140625 0 -5.78125 -1.734375q-2.625 -1.734375 -4.078125 -4.828125q-1.4375 -3.109375 -1.4375 -7.140625q0 -3.9375 1.3125 -7.140625q1.3125 -3.203125 3.921875 -4.90625q2.625 -1.703125 5.875 -1.703125q2.375 0 4.21875 1.0q1.859375 1.0 3.015625 2.609375l0 -13.015625l4.4375 0l0 36.265625l-4.140625 0zm-14.0625 -13.109375q0 5.046875 2.125 7.546875q2.125 2.5 5.015625 2.5q2.921875 0 4.953125 -2.390625q2.046875 -2.390625 2.046875 -7.28125q0 -5.390625 -2.078125 -7.90625q-2.078125 -2.53125 -5.125 -2.53125q-2.953125 0 -4.953125 2.421875q-1.984375 2.421875 -1.984375 7.640625zm25.219482 -18.03125l0 -5.125l4.453125 0l0 5.125l-4.453125 0zm0 31.140625l0 -26.265625l4.453125 0l0 26.265625l-4.453125 0zm9.457275 -7.84375l4.40625 -0.6875q0.359375 2.640625 2.046875 4.0625q1.703125 1.40625 4.75 1.40625q3.0625 0 4.546875 -1.25q1.484375 -1.25 1.484375 -2.9375q0 -1.5 -1.3125 -2.375q-0.90625 -0.59375 -4.546875 -1.5q-4.90625 -1.25 -6.796875 -2.140625q-1.890625 -0.90625 -2.875 -2.5q-0.96875 -1.59375 -0.96875 -3.53125q0 -1.75 0.796875 -3.25q0.8125 -1.5 2.203125 -2.484375q1.03125 -0.765625 2.828125 -1.296875q1.796875 -0.53125 3.84375 -0.53125q3.09375 0 5.421875 0.890625q2.34375 0.890625 3.453125 2.421875q1.125 1.515625 1.546875 4.0625l-4.359375 0.59375q-0.296875 -2.03125 -1.71875 -3.171875q-1.421875 -1.140625 -4.015625 -1.140625q-3.078125 0 -4.390625 1.015625q-1.296875 1.015625 -1.296875 2.375q0 0.859375 0.53125 1.5625q0.546875 0.71875 1.71875 1.1875q0.65625 0.25 3.921875 1.140625q4.734375 1.25 6.59375 2.0625q1.875 0.796875 2.9375 2.328125q1.0625 1.53125 1.0625 3.8125q0 2.234375 -1.296875 4.203125q-1.296875 1.953125 -3.75 3.03125q-2.453125 1.078125 -5.546875 1.078125q-5.109375 0 -7.796875 -2.125q-2.6875 -2.125 -3.421875 -6.3125zm36.828125 3.859375l0.640625 3.9375q-1.875 0.390625 -3.359375 0.390625q-2.421875 0 -3.765625 -0.765625q-1.328125 -0.765625 -1.875 -2.015625q-0.546875 -1.25 -0.546875 -5.25l0 -15.125l-3.265625 0l0 -3.453125l3.265625 0l0 -6.5l4.421875 -2.671875l0 9.171875l4.484375 0l0 3.453125l-4.484375 0l0 15.375q0 1.890625 0.234375 2.4375q0.234375 0.546875 0.765625 0.875q0.53125 0.3125 1.53125 0.3125q0.734375 0 1.953125 -0.171875zm0.24584961 14.046875l0 -3.21875l29.5 0l0 3.21875l-29.5 0zm47.813232 -10.0625l-4.453125 0l0 -28.375q-1.609375 1.53125 -4.21875 3.078125q-2.609375 1.53125 -4.6875 2.296875l0 -4.3125q3.734375 -1.75 6.53125 -4.25q2.796875 -2.5 3.953125 -4.84375l2.875 0l0 36.40625zm11.422607 -9.578125l4.453125 -0.59375q0.765625 3.796875 2.609375 5.46875q1.84375 1.65625 4.484375 1.65625q3.140625 0 5.296875 -2.171875q2.171875 -2.171875 2.171875 -5.390625q0 -3.0625 -2.0 -5.046875q-2.0 -2.0 -5.09375 -2.0q-1.265625 0 -3.140625 0.484375l0.5 -3.90625q0.4375 0.046875 0.71875 0.046875q2.84375 0 5.109375 -1.484375q2.28125 -1.484375 2.28125 -4.5625q0 -2.453125 -1.65625 -4.0625q-1.65625 -1.609375 -4.28125 -1.609375q-2.59375 0 -4.328125 1.640625q-1.734375 1.625 -2.21875 4.890625l-4.453125 -0.796875q0.8125 -4.46875 3.703125 -6.921875q2.890625 -2.46875 7.203125 -2.46875q2.96875 0 5.453125 1.28125q2.5 1.265625 3.828125 3.46875q1.328125 2.203125 1.328125 4.671875q0 2.34375 -1.265625 4.28125q-1.265625 1.921875 -3.734375 3.0625q3.21875 0.75 5.0 3.09375q1.78125 2.328125 1.78125 5.84375q0 4.734375 -3.46875 8.046875q-3.453125 3.296875 -8.75 3.296875q-4.78125 0 -7.9375 -2.84375q-3.140625 -2.84375 -3.59375 -7.375zm28.156982 0.078125l4.671875 -0.390625q0.515625 3.40625 2.40625 5.125q1.890625 1.71875 4.5625 1.71875q3.21875 0 5.4375 -2.421875q2.234375 -2.421875 2.234375 -6.421875q0 -3.8125 -2.140625 -6.015625q-2.140625 -2.203125 -5.609375 -2.203125q-2.140625 0 -3.875 0.984375q-1.734375 0.96875 -2.71875 2.53125l-4.1875 -0.546875l3.515625 -18.625l18.03125 0l0 4.25l-14.46875 0l-1.953125 9.75q3.265625 -2.28125 6.84375 -2.28125q4.75 0 8.015625 3.296875q3.265625 3.28125 3.265625 8.453125q0 4.921875 -2.859375 8.515625q-3.5 4.40625 -9.53125 4.40625q-4.9375 0 -8.078125 -2.765625q-3.125 -2.78125 -3.5625 -7.359375z" fill-rule="nonzero"/><path fill="#000000" fill-opacity="0.0" d="m282.4357 492.72443l-147.87402 0l0 116.346436l147.87402 0z" fill-rule="evenodd"/><path fill="#000000" d="m182.0148 551.80444q-1.359375 1.609375 -3.25 2.59375q-1.875 0.984375 -4.125 0.984375q-2.953125 0 -5.15625 -1.453125q-2.1875 -1.453125 -3.390625 -4.078125q-1.1875 -2.640625 -1.1875 -5.828125q0 -3.421875 1.296875 -6.15625q1.3125 -2.75 3.703125 -4.203125q2.390625 -1.453125 5.578125 -1.453125q5.0625 0 7.96875 3.78125q2.921875 3.78125 2.921875 10.328125l0 1.265625q0 9.953125 -3.9375 14.546875q-3.9375 4.578125 -11.875 4.703125l-0.84375 0l0 -3.671875l0.90625 0q5.375 -0.09375 8.25 -2.796875q2.890625 -2.703125 3.140625 -8.5625zm-6.671875 0q2.171875 0 4.015625 -1.328125q1.84375 -1.34375 2.6875 -3.3125l0 -1.734375q0 -4.265625 -1.859375 -6.9375q-1.84375 -2.671875 -4.6875 -2.671875q-2.859375 0 -4.59375 2.1875q-1.734375 2.1875 -1.734375 5.78125q0 3.484375 1.671875 5.75q1.6875 2.265625 4.5 2.265625zm38.40625 0.4375q0 7.625 -2.609375 11.328125q-2.59375 3.703125 -8.125 3.703125q-5.453125 0 -8.078125 -3.625q-2.625 -3.625 -2.71875 -10.8125l0 -5.796875q0 -7.515625 2.59375 -11.171875q2.609375 -3.65625 8.15625 -3.65625q5.515625 0 8.109375 3.53125q2.609375 3.515625 2.671875 10.875l0 5.625zm-4.328125 -5.921875q0 -5.515625 -1.546875 -8.03125q-1.546875 -2.515625 -4.90625 -2.515625q-3.328125 0 -4.859375 2.515625q-1.515625 2.5 -1.5625 7.703125l0 6.9375q0 5.53125 1.609375 8.171875q1.609375 2.625 4.859375 2.625q3.21875 0 4.765625 -2.484375q1.5625 -2.484375 1.640625 -7.828125l0 -7.09375z" fill-rule="nonzero"/><path fill="#000000" d="m217.8898 540.19507q0 -2.484375 0.96875 -4.46875q0.984375 -1.984375 2.71875 -3.0625q1.75 -1.078125 3.984375 -1.078125q3.453125 0 5.578125 2.390625q2.140625 2.390625 2.140625 6.359375l0 0.203125q0 2.46875 -0.953125 4.4375q-0.9375 1.953125 -2.703125 3.046875q-1.75 1.09375 -4.03125 1.09375q-3.4375 0 -5.578125 -2.390625q-2.125 -2.390625 -2.125 -6.328125l0 -0.203125zm2.90625 0.34375q0 2.8125 1.296875 4.515625q1.3125 1.703125 3.5 1.703125q2.203125 0 3.5 -1.71875q1.296875 -1.734375 1.296875 -4.84375q0 -2.78125 -1.328125 -4.5q-1.3125 -1.734375 -3.5 -1.734375q-2.140625 0 -3.453125 1.703125q-1.3125 1.703125 -1.3125 4.875z" fill-rule="nonzero"/><path fill="#000000" fill-opacity="0.0" d="m1189.6444 483.13388l-147.87402 0l0 116.346466l147.87402 0z" fill-rule="evenodd"/><path fill="#000000" d="m1089.2235 542.21387q-1.359375 1.609375 -3.25 2.59375q-1.875 0.984375 -4.125 0.984375q-2.953125 0 -5.15625 -1.453125q-2.1875 -1.453125 -3.390625 -4.078125q-1.1875 -2.640625 -1.1875 -5.828125q0 -3.421875 1.296875 -6.15625q1.3125 -2.75 3.703125 -4.203125q2.390625 -1.453125 5.578125 -1.453125q5.0625 0 7.96875 3.78125q2.921875 3.78125 2.921875 10.328125l0 1.265625q0 9.953125 -3.9375 14.546875q-3.9375 4.578125 -11.875 4.703125l-0.84375 0l0 -3.671875l0.90625 0q5.375 -0.09375 8.25 -2.796875q2.890625 -2.703125 3.140625 -8.5625zm-6.671875 0q2.171875 0 4.015625 -1.328125q1.84375 -1.34375 2.6875 -3.3125l0 -1.734375q0 -4.265625 -1.859375 -6.9375q-1.84375 -2.671875 -4.6875 -2.671875q-2.859375 0 -4.59375 2.1875q-1.734375 2.1875 -1.734375 5.78125q0 3.484375 1.671875 5.75q1.6875 2.265625 4.5 2.265625zm38.40625 0.4375q0 7.625 -2.609375 11.328125q-2.59375 3.703125 -8.125 3.703125q-5.453125 0 -8.078125 -3.625q-2.625 -3.625 -2.71875 -10.8125l0 -5.796875q0 -7.515625 2.59375 -11.171875q2.609375 -3.65625 8.15625 -3.65625q5.515625 0 8.109375 3.53125q2.609375 3.515625 2.671875 10.875l0 5.625zm-4.328125 -5.921875q0 -5.515625 -1.546875 -8.03125q-1.546875 -2.515625 -4.90625 -2.515625q-3.328125 0 -4.859375 2.515625q-1.515625 2.5 -1.5625 7.703125l0 6.9375q0 5.53125 1.609375 8.171875q1.609375 2.625 4.859375 2.625q3.21875 0 4.765625 -2.484375q1.5625 -2.484375 1.640625 -7.828125l0 -7.09375z" fill-rule="nonzero"/><path fill="#000000" d="m1125.0985 530.6045q0 -2.484375 0.96875 -4.46875q0.984375 -1.984375 2.71875 -3.0625q1.75 -1.078125 3.984375 -1.078125q3.453125 0 5.578125 2.390625q2.140625 2.390625 2.140625 6.359375l0 0.203125q0 2.46875 -0.953125 4.4375q-0.9375 1.953125 -2.703125 3.046875q-1.75 1.09375 -4.03125 1.09375q-3.4375 0 -5.578125 -2.390625q-2.125 -2.390625 -2.125 -6.328125l0 -0.203125zm2.90625 0.34375q0 2.8125 1.296875 4.515625q1.3125 1.703125 3.5 1.703125q2.203125 0 3.5 -1.71875q1.296875 -1.734375 1.296875 -4.84375q0 -2.78125 -1.328125 -4.5q-1.3125 -1.734375 -3.5 -1.734375q-2.140625 0 -3.453125 1.703125q-1.3125 1.703125 -1.3125 4.875z" fill-rule="nonzero"/><path fill="#000000" fill-opacity="0.0" d="m2171.391 475.64044l-147.87402 0l0 116.346436l147.87402 0z" fill-rule="evenodd"/><path fill="#000000" d="m2070.9702 534.72046q-1.359375 1.609375 -3.25 2.59375q-1.875 0.984375 -4.125 0.984375q-2.953125 0 -5.15625 -1.453125q-2.1875 -1.453125 -3.390625 -4.078125q-1.1875 -2.640625 -1.1875 -5.828125q0 -3.421875 1.296875 -6.15625q1.3125 -2.75 3.703125 -4.203125q2.390625 -1.453125 5.578125 -1.453125q5.0625 0 7.96875 3.78125q2.921875 3.78125 2.921875 10.328125l0 1.265625q0 9.953125 -3.9375 14.546875q-3.9375 4.578125 -11.875 4.703125l-0.84375 0l0 -3.671875l0.90625 0q5.375 -0.09375 8.25 -2.796875q2.890625 -2.703125 3.140625 -8.5625zm-6.671875 0q2.171875 0 4.015625 -1.328125q1.84375 -1.34375 2.6875 -3.3125l0 -1.734375q0 -4.265625 -1.859375 -6.9375q-1.84375 -2.671875 -4.6875 -2.671875q-2.859375 0 -4.59375 2.1875q-1.734375 2.1875 -1.734375 5.78125q0 3.484375 1.671875 5.75q1.6875 2.265625 4.5 2.265625zm38.40625 0.4375q0 7.625 -2.609375 11.328125q-2.59375 3.703125 -8.125 3.703125q-5.453125 0 -8.078125 -3.625q-2.625 -3.625 -2.71875 -10.8125l0 -5.796875q0 -7.515625 2.59375 -11.171875q2.609375 -3.65625 8.15625 -3.65625q5.515625 0 8.109375 3.53125q2.609375 3.515625 2.671875 10.875l0 5.625zm-4.328125 -5.921875q0 -5.515625 -1.546875 -8.03125q-1.546875 -2.515625 -4.90625 -2.515625q-3.328125 0 -4.859375 2.515625q-1.515625 2.5 -1.5625 7.703125l0 6.9375q0 5.53125 1.609375 8.171875q1.609375 2.625 4.859375 2.625q3.21875 0 4.765625 -2.484375q1.5625 -2.484375 1.640625 -7.828125l0 -7.09375z" fill-rule="nonzero"/><path fill="#000000" d="m2106.8452 523.1111q0 -2.484375 0.96875 -4.46875q0.984375 -1.984375 2.71875 -3.0625q1.75 -1.078125 3.984375 -1.078125q3.453125 0 5.578125 2.390625q2.140625 2.390625 2.140625 6.359375l0 0.203125q0 2.46875 -0.953125 4.4375q-0.9375 1.953125 -2.703125 3.046875q-1.75 1.09375 -4.03125 1.09375q-3.4375 0 -5.578125 -2.390625q-2.125 -2.390625 -2.125 -6.328125l0 -0.203125zm2.90625 0.34375q0 2.8125 1.296875 4.515625q1.3125 1.703125 3.5 1.703125q2.203125 0 3.5 -1.71875q1.296875 -1.734375 1.296875 -4.84375q0 -2.78125 -1.328125 -4.5q-1.3125 -1.734375 -3.5 -1.734375q-2.140625 0 -3.453125 1.703125q-1.3125 1.703125 -1.3125 4.875z" fill-rule="nonzero"/><path fill="#000000" fill-opacity="0.0" d="m748.4409 13.412091l-147.87396 0l0 116.34645l147.87396 0z" fill-rule="evenodd"/><path fill="#000000" d="m652.80133 72.929596q0 7.625 -2.609375 11.328125q-2.59375 3.703125 -8.125 3.703125q-5.453125 0 -8.078125 -3.625q-2.625 -3.625 -2.71875 -10.8125l0 -5.796875q0 -7.515629 2.59375 -11.171879q2.609375 -3.65625 8.15625 -3.65625q5.515625 0 8.109375 3.53125q2.609375 3.515625 2.671875 10.875004l0 5.625zm-4.328125 -5.921875q0 -5.515629 -1.546875 -8.031254q-1.546875 -2.515625 -4.90625 -2.515625q-3.328125 0 -4.859375 2.515625q-1.515625 2.5 -1.5625 7.703129l0 6.9375q0 5.53125 1.609375 8.171875q1.609375 2.625 4.859375 2.625q3.21875 0 4.765625 -2.484375q1.5625 -2.484375 1.640625 -7.828125l0 -7.09375z" fill-rule="nonzero"/><path fill="#000000" d="m656.94196 60.882717q0 -2.484375 0.96875 -4.46875q0.984375 -1.984375 2.71875 -3.0625q1.75 -1.078125 3.984375 -1.078125q3.453125 0 5.578125 2.390625q2.140625 2.390625 2.140625 6.359375l0 0.203125q0 2.46875 -0.953125 4.437504q-0.9375 1.953125 -2.703125 3.046875q-1.75 1.09375 -4.03125 1.09375q-3.4375 0 -5.578125 -2.390625q-2.125 -2.390625 -2.125 -6.328129l0 -0.203125zm2.90625 0.34375q0 2.8125038 1.296875 4.515629q1.3125 1.703125 3.5 1.703125q2.203125 0 3.5 -1.71875q1.296875 -1.7343788 1.296875 -4.843754q0 -2.78125 -1.328125 -4.5q-1.3125 -1.734375 -3.5 -1.734375q-2.140625 0 -3.453125 1.703125q-1.3125 1.703125 -1.3125 4.875z" fill-rule="nonzero"/><path fill="#000000" fill-opacity="0.0" d="m1701.0052 13.412091l-147.87402 0l0 116.34645l147.87402 0z" fill-rule="evenodd"/><path fill="#000000" d="m1605.3656 72.929596q0 7.625 -2.609375 11.328125q-2.59375 3.703125 -8.125 3.703125q-5.453125 0 -8.078125 -3.625q-2.625 -3.625 -2.71875 -10.8125l0 -5.796875q0 -7.515629 2.59375 -11.171879q2.609375 -3.65625 8.15625 -3.65625q5.515625 0 8.109375 3.53125q2.609375 3.515625 2.671875 10.875004l0 5.625zm-4.328125 -5.921875q0 -5.515629 -1.546875 -8.031254q-1.546875 -2.515625 -4.90625 -2.515625q-3.328125 0 -4.859375 2.515625q-1.515625 2.5 -1.5625 7.703129l0 6.9375q0 5.53125 1.609375 8.171875q1.609375 2.625 4.859375 2.625q3.21875 0 4.765625 -2.484375q1.5625 -2.484375 1.640625 -7.828125l0 -7.09375z" fill-rule="nonzero"/><path fill="#000000" d="m1609.5062 60.882717q0 -2.484375 0.96875 -4.46875q0.984375 -1.984375 2.71875 -3.0625q1.75 -1.078125 3.984375 -1.078125q3.453125 0 5.578125 2.390625q2.140625 2.390625 2.140625 6.359375l0 0.203125q0 2.46875 -0.953125 4.437504q-0.9375 1.953125 -2.703125 3.046875q-1.75 1.09375 -4.03125 1.09375q-3.4375 0 -5.578125 -2.390625q-2.125 -2.390625 -2.125 -6.328129l0 -0.203125zm2.90625 0.34375q0 2.8125038 1.296875 4.515629q1.3125 1.703125 3.5 1.703125q2.203125 0 3.5 -1.71875q1.296875 -1.7343788 1.296875 -4.843754q0 -2.78125 -1.328125 -4.5q-1.3125 -1.734375 -3.5 -1.734375q-2.140625 0 -3.453125 1.703125q-1.3125 1.703125 -1.3125 4.875z" fill-rule="nonzero"/><path fill="#000000" fill-opacity="0.0" d="m2608.2468 13.412091l-147.87402 0l0 116.34645l147.87402 0z" fill-rule="evenodd"/><path fill="#000000" d="m2512.6072 72.929596q0 7.625 -2.609375 11.328125q-2.59375 3.703125 -8.125 3.703125q-5.453125 0 -8.078125 -3.625q-2.625 -3.625 -2.71875 -10.8125l0 -5.796875q0 -7.515629 2.59375 -11.171879q2.609375 -3.65625 8.15625 -3.65625q5.515625 0 8.109375 3.53125q2.609375 3.515625 2.671875 10.875004l0 5.625zm-4.328125 -5.921875q0 -5.515629 -1.546875 -8.031254q-1.546875 -2.515625 -4.90625 -2.515625q-3.328125 0 -4.859375 2.515625q-1.515625 2.5 -1.5625 7.703129l0 6.9375q0 5.53125 1.609375 8.171875q1.609375 2.625 4.859375 2.625q3.21875 0 4.765625 -2.484375q1.5625 -2.484375 1.640625 -7.828125l0 -7.09375z" fill-rule="nonzero"/><path fill="#000000" d="m2516.7478 60.882717q0 -2.484375 0.96875 -4.46875q0.984375 -1.984375 2.71875 -3.0625q1.75 -1.078125 3.984375 -1.078125q3.453125 0 5.578125 2.390625q2.140625 2.390625 2.140625 6.359375l0 0.203125q0 2.46875 -0.953125 4.437504q-0.9375 1.953125 -2.703125 3.046875q-1.75 1.09375 -4.03125 1.09375q-3.4375 0 -5.578125 -2.390625q-2.125 -2.390625 -2.125 -6.328129l0 -0.203125zm2.90625 0.34375q0 2.8125038 1.296875 4.515629q1.3125 1.703125 3.5 1.703125q2.203125 0 3.5 -1.71875q1.296875 -1.7343788 1.296875 -4.843754q0 -2.78125 -1.328125 -4.5q-1.3125 -1.734375 -3.5 -1.734375q-2.140625 0 -3.453125 1.703125q-1.3125 1.703125 -1.3125 4.875z" fill-rule="nonzero"/></g></svg>